<?xml version="1.0" standalone="no"?>
<!DOCTYPE svg PUBLIC "-//W3C//DTD SVG 20010904//EN"
 "http://www.w3.org/TR/2001/REC-SVG-20010904/DTD/svg10.dtd">
<svg version="1.0" xmlns="http://www.w3.org/2000/svg"
 width="300.000000pt" height="187.000000pt" viewBox="0 0 300.000000 187.000000"
 preserveAspectRatio="xMidYMid meet">
<metadata>
Created by potrace 1.10, written by Peter Selinger 2001-2011
</metadata>
<g transform="translate(0.000000,187.000000) scale(0.050000,-0.050000)"
fill="#333332" stroke="none">
<path d="M2660 3718 c-1056 -122 -2043 -754 -2561 -1639 -127 -218 -82 -359
244 -773 1369 -1736 4049 -1711 5354 52 318 428 335 500 181 756 -654 1083
-1984 1745 -3218 1604z m942 -415 c793 -184 1466 -638 1898 -1282 48 -71 87
-139 87 -151 0 -12 -39 -80 -87 -151 -1192 -1776 -3808 -1776 -5000 0 -106
157 -106 145 0 302 672 1000 1981 1541 3102 1282z"/>
<path d="M2730 3149 c-1202 -264 -1416 -1892 -320 -2444 863 -435 1890 198
1890 1165 0 817 -780 1452 -1570 1279z m576 -203 c837 -248 1091 -1303 454
-1893 -724 -670 -1880 -168 -1880 816 0 752 712 1289 1426 1077z"/>
<path d="M2847 2599 c-300 -59 -554 -338 -582 -638 -11 -129 10 -181 76 -181
58 0 99 57 99 138 0 234 218 458 495 509 153 29 196 82 125 153 -42 42 -79 46
-213 19z"/>
</g>
</svg>
