<?xml version="1.0" standalone="no"?>
<!DOCTYPE svg PUBLIC "-//W3C//DTD SVG 20010904//EN"
 "http://www.w3.org/TR/2001/REC-SVG-20010904/DTD/svg10.dtd">
<svg version="1.0" xmlns="http://www.w3.org/2000/svg"
 width="900.000000pt" height="810.000000pt" viewBox="0 0 900.000000 810.000000"
 preserveAspectRatio="xMidYMid meet">
<metadata>
Created by potrace 1.10, written by Peter Selinger 2001-2011
</metadata>
<g transform="translate(0.000000,810.000000) scale(0.100000,-0.100000)"
fill="#000000" stroke="none">
<path d="M0 4635 l0 -3465 1650 0 c1025 0 1657 -3 1668 -9 9 -5 273 -267 587
-580 313 -314 577 -571 585 -571 8 0 272 257 585 571 314 313 578 575 587 580
11 6 626 9 1678 9 l1660 0 0 3465 0 3465 -4500 0 -4500 0 0 -3465z m8298 15
c1 -1510 0 -2755 -3 -2767 l-5 -23 -1458 -2 -1457 -3 -437 -438 c-240 -240
-441 -437 -448 -437 -7 0 -208 197 -448 438 l-437 437 -1454 3 c-1145 2 -1457
5 -1463 15 -9 15 -11 5511 -1 5520 3 4 1717 6 3807 5 l3801 -3 3 -2745z"/>
<path d="M2088 6353 c-10 -2 -18 -10 -18 -16 -3 -126 1 -651 5 -658 8 -12
4822 -12 4830 0 8 13 8 662 0 670 -7 7 -4790 11 -4817 4z"/>
<path d="M2070 4958 c-1 -7 0 -159 0 -338 1 -242 4 -326 13 -332 7 -4 1090 -8
2407 -8 1317 0 2400 4 2407 8 9 6 12 90 13 332 0 179 1 331 0 338 0 9 -491 12
-2420 12 -1929 0 -2420 -3 -2420 -12z"/>
<path d="M2069 3578 c-2 -7 -2 -161 1 -343 l5 -330 1705 -3 c938 -1 1715 0
1728 3 l22 5 -2 338 -3 337 -1726 3 c-1377 2 -1728 0 -1730 -10z"/>
</g>
</svg>
