<?xml version="1.0" standalone="no"?>
<!DOCTYPE svg PUBLIC "-//W3C//DTD SVG 20010904//EN"
 "http://www.w3.org/TR/2001/REC-SVG-20010904/DTD/svg10.dtd">
<svg version="1.0" xmlns="http://www.w3.org/2000/svg"
 width="900.000000pt" height="1077.000000pt" viewBox="0 0 900.000000 1077.000000"
 preserveAspectRatio="xMidYMid meet">
<metadata>
Created by potrace 1.10, written by Peter Selinger 2001-2011
</metadata>
<g transform="translate(0.000000,1077.000000) scale(0.100000,-0.100000)"
fill="#000000" stroke="none">
<path d="M8670 10757 c0 -7 -48 -33 -106 -57 -58 -25 -108 -48 -110 -52 -3 -4
-12 -8 -20 -8 -8 0 -45 -14 -82 -31 -37 -18 -80 -38 -97 -45 -102 -44 -126
-55 -185 -81 -36 -17 -96 -42 -135 -58 -38 -16 -99 -42 -135 -58 -36 -16 -81
-36 -100 -44 -19 -9 -42 -19 -51 -23 -8 -5 -76 -34 -150 -65 -74 -32 -165 -72
-204 -90 -38 -18 -115 -52 -170 -75 -55 -23 -104 -45 -110 -49 -5 -4 -46 -22
-90 -40 -101 -41 -127 -52 -195 -84 -30 -14 -84 -37 -120 -52 -36 -15 -69 -31
-74 -36 -6 -5 -16 -9 -23 -9 -11 0 -99 -38 -164 -70 -8 -4 -91 -40 -184 -80
-93 -40 -176 -75 -184 -80 -9 -4 -32 -14 -51 -22 -19 -9 -60 -27 -90 -41 -30
-13 -115 -50 -189 -82 -74 -31 -142 -61 -150 -65 -39 -19 -117 -53 -261 -115
-144 -61 -222 -96 -261 -115 -8 -4 -91 -40 -184 -80 -93 -40 -176 -75 -184
-80 -20 -9 -85 -38 -131 -58 -19 -8 -42 -18 -51 -22 -8 -5 -76 -34 -150 -65
-74 -32 -165 -72 -204 -90 -38 -18 -146 -65 -239 -105 -93 -40 -177 -76 -185
-80 -32 -17 -148 -68 -201 -90 -56 -23 -121 -51 -220 -97 -107 -49 -136 -62
-260 -113 -119 -50 -155 -65 -280 -123 -30 -13 -100 -44 -154 -67 -54 -23
-106 -45 -115 -49 -9 -5 -33 -15 -54 -25 -58 -25 -137 -60 -252 -111 -33 -15
-96 -42 -140 -60 -74 -30 -123 -52 -250 -110 -27 -12 -90 -40 -140 -61 -152
-64 -201 -105 -224 -189 -8 -28 -11 -445 -11 -1395 0 -1453 -1 -1419 50 -1490
19 -26 106 -92 150 -113 8 -4 29 -16 45 -27 17 -11 39 -24 50 -30 11 -6 34
-19 50 -30 17 -11 37 -23 45 -27 8 -3 34 -19 57 -35 23 -15 44 -28 47 -28 3 0
25 -14 49 -30 25 -17 47 -30 50 -30 4 0 25 -12 49 -27 69 -45 82 -52 103 -63
11 -6 34 -19 50 -30 17 -11 40 -24 51 -29 44 -20 37 -40 -22 -66 -31 -14 -58
-25 -60 -25 -1 0 -46 -20 -98 -45 -53 -25 -98 -45 -101 -45 -3 0 -51 -21 -107
-46 -57 -25 -116 -52 -133 -59 -16 -7 -60 -26 -97 -44 -37 -17 -74 -31 -81
-31 -7 0 -17 -4 -22 -9 -6 -5 -71 -35 -145 -66 -74 -32 -166 -72 -205 -90 -38
-18 -130 -58 -204 -90 -74 -31 -142 -61 -150 -65 -52 -26 -152 -70 -159 -70
-5 0 -35 -13 -67 -30 -32 -16 -66 -30 -76 -30 -9 0 -22 -7 -29 -15 -7 -8 -18
-15 -25 -15 -8 0 -26 -7 -42 -15 -71 -36 -157 -75 -167 -75 -14 0 -69 -28
-110 -55 -15 -10 -40 -37 -54 -59 -23 -35 -27 -52 -27 -116 1 -58 5 -84 22
-113 25 -45 89 -96 136 -107 32 -9 335 -109 392 -131 17 -6 44 -15 60 -19 35
-10 174 -56 225 -75 19 -7 64 -22 100 -34 224 -72 265 -88 268 -109 2 -12 -37
-86 -95 -181 -54 -89 -116 -194 -138 -234 -22 -40 -76 -131 -121 -202 -44 -72
-172 -283 -283 -470 -111 -187 -206 -347 -211 -355 -5 -8 -87 -143 -182 -300
l-172 -285 0 -80 c0 -65 4 -87 23 -117 40 -65 105 -98 196 -98 63 0 95 11 275
91 25 11 61 27 80 36 19 8 42 19 51 23 9 5 61 27 115 50 54 23 128 55 164 72
36 17 74 34 85 38 11 4 50 22 87 39 37 17 70 31 73 31 3 0 35 14 72 31 76 34
116 51 171 75 20 10 44 20 53 24 8 5 92 40 185 80 93 40 173 76 179 81 5 5 15
9 22 9 8 0 51 18 96 40 45 23 123 57 172 77 91 36 172 72 280 122 33 16 101
45 150 66 50 21 113 48 140 60 104 48 165 74 329 145 93 40 177 76 185 80 65
32 153 70 164 70 7 0 17 4 22 9 6 5 39 21 75 36 36 15 88 37 115 50 94 43 161
73 260 115 54 23 105 45 114 50 9 5 41 18 71 30 30 12 92 40 138 61 46 22 89
39 96 39 6 0 16 4 21 9 6 5 55 28 109 51 54 23 106 45 115 49 9 5 33 15 54 25
20 9 54 23 75 32 20 10 44 20 53 24 8 5 76 34 150 65 74 32 166 72 204 90 39
18 130 58 204 90 74 31 142 61 150 65 16 8 64 29 126 56 82 35 197 85 260 114
144 66 176 80 184 80 5 0 31 11 58 24 26 13 124 56 217 96 93 40 177 75 185
80 9 4 34 15 56 25 22 9 47 21 56 25 8 4 92 40 185 80 93 40 189 83 214 96 25
13 52 24 60 24 9 0 20 4 25 9 6 5 86 41 179 81 93 40 177 76 185 80 9 4 34 16
56 25 88 39 111 55 142 94 18 23 37 58 43 79 6 24 10 494 10 1397 0 1463 1
1413 -50 1486 -29 40 -82 75 -465 304 -318 190 -365 221 -365 234 0 4 42 24
93 46 50 21 119 51 152 66 33 15 87 40 120 54 33 15 78 35 100 45 22 10 65 28
95 40 56 23 105 44 222 99 37 17 74 31 81 31 7 0 17 4 23 9 5 5 54 28 109 51
55 23 104 46 109 51 6 5 16 9 23 9 7 0 37 11 66 26 28 14 158 70 286 126 129
55 242 104 250 109 9 4 41 19 71 32 30 13 91 40 135 60 44 19 101 44 127 54
52 19 101 60 133 108 28 44 28 176 -2 223 -39 62 -136 113 -308 162 -30 8 -69
21 -135 46 -19 7 -60 20 -90 30 -30 9 -71 22 -90 30 -51 19 -183 61 -275 89
-44 13 -105 33 -135 45 -30 12 -68 25 -85 30 -95 25 -100 6 67 282 47 78 101
170 119 203 17 33 41 73 53 90 12 16 26 37 31 47 6 9 118 196 250 415 132 218
247 410 255 425 8 15 93 157 189 315 l175 288 0 80 c1 70 -2 85 -25 120 -15
22 -45 51 -67 65 -23 14 -42 31 -42 38 0 18 -160 17 -160 -1z m-505 -757 c-8
-16 -27 -48 -42 -72 -45 -69 -52 -82 -63 -103 -6 -11 -19 -33 -30 -50 -11 -16
-24 -39 -30 -50 -6 -11 -19 -33 -30 -50 -11 -16 -24 -39 -30 -50 -6 -11 -19
-33 -30 -50 -11 -16 -24 -39 -30 -50 -6 -11 -19 -33 -30 -50 -11 -16 -24 -39
-30 -50 -6 -11 -19 -33 -30 -50 -11 -16 -24 -39 -30 -50 -6 -11 -19 -33 -30
-50 -11 -16 -24 -39 -29 -50 -5 -11 -21 -37 -35 -58 -14 -21 -26 -40 -26 -43
0 -4 -13 -26 -30 -51 -16 -24 -30 -46 -30 -49 0 -2 -12 -23 -27 -47 -41 -63
-51 -80 -62 -103 -5 -12 -27 -48 -48 -80 -49 -76 -60 -95 -72 -119 -5 -11 -21
-37 -35 -58 -14 -21 -26 -40 -26 -43 0 -2 -12 -23 -27 -47 -83 -127 -97 -163
-97 -239 1 -70 12 -96 63 -151 34 -38 54 -47 201 -96 69 -23 139 -46 155 -52
17 -5 98 -32 180 -59 83 -27 164 -54 180 -61 17 -6 47 -15 67 -21 20 -6 44
-19 54 -29 16 -18 16 -19 -2 -25 -38 -12 -121 -47 -202 -85 -46 -22 -89 -39
-96 -39 -6 0 -16 -4 -21 -9 -6 -5 -86 -41 -179 -81 -93 -40 -179 -77 -190 -83
-36 -18 -47 -23 -257 -112 -112 -48 -208 -91 -214 -95 -5 -4 -46 -22 -90 -40
-44 -17 -87 -35 -96 -40 -8 -4 -76 -34 -150 -65 -74 -32 -156 -68 -184 -80
-121 -57 -185 -85 -190 -85 -6 0 -122 -53 -198 -91 -32 -16 -63 -29 -69 -29
-10 0 -65 -22 -99 -40 -9 -5 -61 -27 -115 -50 -54 -23 -103 -46 -108 -51 -6
-5 -16 -9 -23 -9 -11 0 -100 -38 -164 -70 -8 -4 -76 -34 -150 -65 -74 -32
-159 -68 -189 -82 -51 -23 -74 -33 -155 -69 -16 -7 -60 -27 -98 -43 -37 -17
-69 -31 -72 -31 -3 0 -35 -14 -72 -31 -38 -16 -84 -37 -103 -46 -19 -8 -42
-19 -51 -23 -8 -4 -91 -40 -184 -80 -93 -40 -176 -76 -184 -80 -15 -8 -89 -40
-136 -60 -100 -41 -163 -75 -181 -96 -16 -19 -32 -26 -71 -28 -28 -2 -64 -11
-80 -19 -15 -8 -44 -22 -63 -30 -115 -51 -210 -100 -233 -121 -15 -13 -35 -27
-45 -30 -14 -5 -18 -13 -14 -31 2 -14 0 -25 -6 -25 -5 0 -13 -16 -16 -35 -4
-21 -13 -35 -21 -35 -11 0 -15 -12 -15 -40 0 -23 -5 -43 -12 -45 -9 -4 -14
-43 -16 -134 -3 -118 -2 -130 15 -135 20 -6 90 17 164 54 8 4 91 40 184 80 93
40 177 76 187 81 10 5 26 13 36 18 10 5 94 41 187 81 93 40 176 76 184 80 64
32 153 70 164 70 7 0 21 6 32 13 11 7 61 31 110 51 50 21 115 49 145 63 30 14
71 32 90 40 19 9 42 19 51 23 8 5 76 34 150 65 74 31 138 61 143 66 6 5 16 9
23 9 7 0 43 14 80 31 38 17 84 38 103 46 19 9 42 19 51 23 8 5 76 34 149 65
73 31 141 61 149 65 9 5 23 11 31 14 8 3 22 10 30 15 8 5 87 40 175 76 152 64
249 106 287 126 10 5 23 9 30 9 10 0 390 -224 496 -292 15 -10 36 -22 47 -28
76 -39 120 -71 120 -86 0 -17 -3 -20 -68 -47 -72 -31 -178 -78 -198 -87 -8 -5
-89 -40 -180 -78 -90 -39 -188 -82 -216 -96 -29 -15 -59 -26 -66 -26 -7 0 -17
-4 -23 -9 -5 -5 -85 -41 -178 -81 -93 -40 -177 -76 -185 -80 -45 -24 -153 -70
-164 -70 -7 0 -17 -4 -23 -9 -5 -5 -49 -26 -99 -47 -96 -40 -142 -67 -163 -96
-7 -10 -20 -18 -29 -18 -10 0 -13 -6 -9 -16 5 -14 1 -16 -24 -11 -19 4 -34 2
-42 -7 -8 -9 -26 -12 -49 -9 -40 6 -101 -20 -135 -59 -17 -19 -21 -34 -20 -83
3 -70 9 -85 39 -85 24 0 13 -14 -18 -24 -34 -10 -47 7 -47 64 1 41 -2 51 -14
46 -8 -3 -14 -1 -14 4 0 6 7 10 15 10 28 0 15 18 -20 30 -27 9 -40 9 -62 -3
-16 -7 -43 -21 -61 -30 -19 -9 -39 -17 -45 -17 -15 0 -67 -51 -67 -65 0 -6 17
-16 38 -21 l37 -10 -48 -8 c-33 -6 -52 -5 -60 3 -8 8 -6 11 9 12 10 1 -1 5
-26 9 -38 6 -57 2 -115 -22 -38 -17 -74 -34 -79 -39 -6 -5 -16 -9 -23 -9 -7 0
-50 -17 -95 -39 -46 -21 -159 -71 -253 -111 -93 -40 -192 -83 -220 -95 -123
-57 -185 -85 -190 -85 -5 0 -91 -39 -202 -91 -35 -16 -66 -29 -69 -29 -4 0
-32 -12 -63 -26 -98 -46 -134 -61 -226 -99 -90 -37 -164 -70 -240 -105 -22
-10 -62 -28 -88 -39 -58 -25 -39 -33 -299 124 -208 126 -216 130 -243 145 -11
6 -33 19 -50 30 -16 10 -50 29 -74 42 -79 41 -70 56 64 113 50 20 94 41 100
46 5 5 15 9 22 9 7 0 43 14 80 31 103 47 123 56 188 84 33 15 78 35 100 45 22
10 64 28 94 40 52 20 129 54 196 85 17 8 64 30 106 49 42 18 81 41 86 50 5 9
24 25 43 35 43 23 50 41 15 41 -19 0 -26 -4 -22 -14 3 -8 -1 -17 -9 -20 -12
-5 -14 11 -12 102 2 64 7 106 13 105 6 -1 11 25 11 59 1 45 6 63 18 70 9 5 16
20 16 33 0 14 5 25 10 25 6 0 10 -5 10 -11 0 -5 4 -8 10 -4 6 4 6 15 0 30 -9
24 -8 25 25 25 50 0 43 17 -10 24 -42 7 -100 -10 -186 -54 -8 -4 -91 -40 -184
-80 -93 -40 -176 -76 -184 -80 -23 -13 -113 -52 -216 -96 -49 -20 -99 -44
-110 -51 -11 -7 -25 -13 -32 -13 -7 0 -69 -27 -139 -60 -69 -33 -129 -60 -133
-60 -12 0 -245 -102 -256 -111 -5 -5 -19 -9 -32 -9 l-23 0 0 423 c-1 1306 0
1749 6 1758 3 5 36 23 72 40 37 17 74 34 83 39 9 4 61 27 115 50 54 24 126 55
159 70 126 57 155 70 161 70 6 0 70 28 115 50 8 4 91 40 184 80 93 40 176 76
184 80 38 19 138 63 295 130 93 40 177 76 185 80 37 18 135 62 261 115 74 32
167 72 205 90 39 18 130 58 204 90 74 31 142 61 150 65 33 16 128 59 181 80
30 13 83 36 118 51 34 16 64 29 67 29 5 0 115 49 156 70 8 4 91 40 184 80 93
40 176 76 184 80 9 4 32 15 51 23 19 9 65 30 103 46 37 17 73 31 81 31 7 0 19
7 26 15 7 8 18 15 25 15 14 0 69 23 265 113 30 13 115 50 189 82 74 31 142 61
150 65 45 23 159 74 271 120 123 51 160 68 292 129 37 17 74 31 81 31 7 0 17
4 22 9 6 5 39 21 75 36 36 15 90 38 120 52 30 14 71 32 90 40 19 8 42 19 51
23 8 4 76 34 149 65 73 31 141 60 149 65 9 4 32 14 51 23 19 8 65 29 103 46
37 17 73 31 80 31 7 0 17 4 23 9 5 5 54 28 109 51 55 23 104 46 109 51 6 5 16
9 23 9 7 0 41 14 76 30 118 57 332 147 339 143 5 -2 1 -17 -7 -33z m-4282
-4138 c19 -43 23 -92 7 -92 -5 0 -13 -12 -16 -26 -6 -24 -37 -64 -49 -64 -10
0 -5 46 7 58 7 7 13 44 14 84 2 82 1 78 12 78 5 0 16 -17 25 -38z m3297 -594
c0 -233 1 -722 1 -1088 l-1 -665 -21 -16 c-12 -8 -62 -33 -113 -54 -89 -38
-162 -71 -321 -145 -44 -20 -91 -41 -105 -45 -25 -7 -63 -24 -193 -84 -37 -17
-73 -31 -80 -31 -7 0 -21 -6 -32 -13 -11 -8 -76 -37 -145 -66 -69 -29 -150
-64 -180 -78 -30 -14 -71 -32 -90 -40 -19 -9 -42 -19 -51 -23 -8 -5 -91 -40
-184 -80 -93 -40 -177 -76 -187 -81 -10 -5 -26 -13 -36 -18 -10 -5 -79 -35
-153 -66 -74 -32 -138 -61 -144 -65 -5 -4 -36 -17 -67 -28 -32 -12 -66 -25
-75 -30 -10 -5 -34 -16 -53 -24 -47 -21 -111 -49 -131 -59 -9 -4 -61 -26 -115
-49 -54 -24 -136 -60 -182 -81 -45 -22 -88 -39 -95 -39 -7 0 -17 -4 -23 -9 -5
-5 -85 -41 -178 -81 -93 -40 -177 -75 -185 -80 -9 -4 -34 -15 -56 -25 -22 -9
-47 -21 -56 -25 -8 -4 -74 -33 -145 -63 -71 -31 -153 -67 -181 -81 -29 -14
-57 -26 -62 -26 -5 0 -31 -11 -58 -24 -26 -13 -124 -56 -217 -96 -93 -40 -177
-76 -185 -80 -9 -4 -36 -17 -61 -28 -25 -11 -75 -34 -111 -51 -36 -17 -69 -31
-73 -31 -8 0 -60 -23 -249 -109 -37 -17 -73 -31 -80 -31 -7 0 -17 -4 -23 -9
-5 -5 -70 -35 -144 -66 -74 -31 -155 -68 -179 -81 -24 -13 -51 -24 -60 -24 -9
0 -21 -4 -27 -9 -5 -5 -69 -35 -143 -66 -74 -31 -142 -60 -150 -65 -9 -4 -33
-14 -53 -24 -21 -9 -55 -23 -75 -32 -21 -10 -45 -20 -54 -24 -8 -5 -76 -34
-150 -65 -74 -32 -156 -68 -184 -80 -101 -47 -143 -65 -293 -129 -85 -37 -158
-66 -163 -66 -5 0 -2 14 6 30 12 23 633 1065 685 1150 5 8 73 121 151 250
l142 235 0 71 c0 79 -18 120 -76 171 -43 38 -59 44 -452 173 -187 61 -351 118
-364 127 -27 17 -22 23 39 47 25 10 52 22 61 26 9 5 61 27 115 50 54 23 122
53 149 65 143 67 186 85 198 85 7 0 17 4 22 9 6 5 39 21 75 36 36 15 88 37
115 50 138 63 256 115 260 115 3 0 48 20 99 45 52 25 100 45 106 45 7 0 26 7
43 16 49 26 52 27 232 104 93 40 176 76 184 80 25 13 190 86 257 114 34 14 83
37 109 51 26 14 52 25 57 25 6 0 26 7 46 16 67 28 107 46 123 54 8 4 76 34
149 65 73 31 141 61 149 65 47 26 151 70 163 70 8 0 18 4 23 9 6 5 86 41 179
81 93 40 179 77 190 83 36 18 48 23 222 97 171 73 216 93 336 149 37 17 71 31
76 31 5 0 35 14 67 30 32 17 62 30 67 30 7 0 123 51 159 70 8 4 91 40 184 80
93 40 176 76 184 80 16 8 61 28 128 57 21 9 45 20 53 24 8 5 26 14 40 19 45
18 85 43 98 62 7 10 20 18 28 18 9 0 12 5 8 11 -4 7 -21 9 -43 6 -27 -5 -32
-4 -18 4 9 5 17 17 17 24 0 8 7 15 15 15 10 0 15 11 15 35 0 25 6 37 21 45 31
17 35 5 16 -51 -8 -28 -13 -57 -10 -65 7 -18 67 -18 101 0 42 22 126 59 271
121 74 31 142 60 150 65 9 4 34 15 56 25 22 9 47 21 56 25 9 5 61 27 115 50
54 23 103 46 108 51 6 5 16 9 23 9 12 0 69 25 208 91 33 15 116 51 185 80 69
28 129 55 135 60 5 5 22 9 37 9 l28 0 0 -422z m-3370 397 c0 -8 -2 -15 -4 -15
-2 0 -12 -3 -21 -7 -15 -5 -16 -3 -6 15 13 25 31 29 31 7z m1945 -241 c11 -11
15 -30 13 -57 -3 -35 -7 -42 -32 -48 -26 -7 -27 -7 -12 10 24 26 20 75 -6 94
l-23 16 22 0 c12 1 29 -6 38 -15z m-244 -50 c-12 -15 -21 -32 -21 -39 0 -7 -7
-15 -15 -19 -9 -3 -15 -18 -15 -40 0 -19 -6 -41 -12 -48 -16 -16 -17 -46 -2
-56 6 -4 14 -25 17 -47 4 -24 15 -46 29 -57 l23 -18 -24 0 c-14 0 -37 14 -58
36 -33 35 -34 40 -32 103 1 36 1 71 -1 76 -5 17 11 45 26 45 7 0 22 12 31 28
20 29 53 61 66 62 5 0 -1 -12 -12 -26z m-159 -106 c-5 -5 -31 -10 -58 -11 -27
-1 -52 -6 -56 -12 -5 -6 -8 -4 -8 6 0 27 18 34 75 31 37 -3 54 -7 47 -14z"/>
<path d="M3223 5381 c-10 -16 -9 -20 8 -24 15 -4 19 0 19 19 0 29 -11 31 -27
5z"/>
</g>
</svg>
