<?xml version="1.0" standalone="no"?>
<!DOCTYPE svg PUBLIC "-//W3C//DTD SVG 20010904//EN"
 "http://www.w3.org/TR/2001/REC-SVG-20010904/DTD/svg10.dtd">
<svg version="1.0" xmlns="http://www.w3.org/2000/svg"
 width="900.000000pt" height="858.000000pt" viewBox="0 0 900.000000 858.000000"
 preserveAspectRatio="xMidYMid meet">
<metadata>
Created by potrace 1.10, written by Peter Selinger 2001-2011
</metadata>
<g transform="translate(0.000000,858.000000) scale(0.100000,-0.100000)"
fill="#333333" stroke="none">
<path d="M4370 8566 c0 -9 -19 -18 -50 -25 -64 -14 -173 -64 -225 -104 -22
-17 -64 -56 -93 -86 -56 -59 -61 -68 -425 -811 -68 -140 -184 -376 -257 -525
-130 -266 -331 -677 -373 -765 -12 -25 -32 -62 -44 -82 -25 -41 -33 -43 -243
-73 -63 -9 -153 -22 -200 -30 -47 -8 -110 -17 -140 -20 -30 -3 -80 -10 -110
-15 -30 -6 -100 -16 -155 -24 -55 -8 -152 -22 -215 -31 -63 -9 -153 -23 -200
-30 -47 -8 -110 -16 -140 -20 -30 -3 -77 -10 -105 -15 -27 -5 -104 -16 -170
-25 -66 -9 -160 -22 -210 -30 -49 -7 -124 -19 -165 -25 -41 -6 -118 -18 -170
-25 -227 -33 -247 -38 -361 -95 -88 -45 -212 -171 -257 -263 -47 -95 -62 -163
-62 -272 0 -131 26 -224 95 -330 40 -64 70 -94 1015 -1020 140 -137 373 -366
518 -509 l263 -260 -6 -66 c-4 -36 -10 -78 -15 -95 -5 -16 -11 -50 -15 -75 -3
-25 -13 -83 -21 -130 -33 -188 -44 -249 -59 -345 -9 -55 -23 -134 -30 -175
-14 -74 -29 -163 -60 -355 -9 -55 -22 -131 -30 -170 -7 -38 -21 -117 -30 -175
-9 -58 -20 -125 -25 -150 -5 -25 -12 -63 -15 -85 -7 -51 -30 -181 -46 -265 -7
-36 -15 -90 -19 -120 -4 -30 -13 -82 -20 -115 -14 -68 -8 -231 10 -285 75
-221 242 -379 458 -434 115 -29 332 -16 411 24 9 5 43 21 76 37 33 16 99 50
146 76 48 25 129 68 180 95 52 27 114 60 139 74 44 24 152 82 355 188 124 65
271 143 350 186 33 18 85 45 115 61 30 16 109 58 175 92 66 35 163 86 215 114
52 27 127 66 165 87 39 20 98 52 133 71 l62 33 63 -33 c34 -19 94 -51 132 -71
96 -51 227 -121 370 -195 66 -35 149 -79 185 -98 36 -19 90 -48 120 -64 30
-16 99 -53 153 -81 53 -29 141 -75 195 -103 145 -76 279 -147 352 -187 35 -19
102 -55 147 -78 46 -24 122 -65 171 -91 249 -134 308 -153 467 -153 202 0 351
63 481 203 55 59 115 162 144 247 21 63 24 217 6 315 -9 50 -24 131 -32 180
-8 50 -22 126 -29 170 -8 44 -17 98 -20 120 -3 22 -10 60 -15 85 -5 25 -16 92
-25 150 -9 58 -23 137 -30 175 -8 39 -21 115 -30 170 -38 232 -50 303 -85 495
-6 30 -15 90 -20 134 -6 43 -13 82 -15 86 -3 4 -9 36 -14 71 -5 35 -19 118
-31 184 -25 134 -38 219 -39 251 -1 21 122 145 774 785 984 965 980 960 1018
1021 42 66 72 132 81 181 4 22 13 37 21 37 12 0 15 21 15 115 0 94 -3 115 -15
115 -8 0 -17 14 -21 38 -4 20 -23 71 -43 112 -47 97 -167 221 -260 269 -112
57 -133 63 -361 96 -52 7 -129 19 -170 25 -41 6 -115 18 -165 25 -49 8 -144
21 -210 30 -66 9 -142 20 -170 25 -27 6 -86 14 -130 19 -44 6 -111 15 -150 21
-173 27 -268 41 -375 55 -63 9 -137 20 -165 25 -27 5 -75 12 -105 16 -30 3
-93 12 -140 19 -47 8 -137 21 -200 30 -211 30 -218 32 -243 73 -12 20 -30 53
-39 72 -76 157 -311 637 -400 820 -61 124 -167 340 -235 480 -365 744 -369
752 -425 811 -29 30 -71 69 -93 86 -52 40 -161 90 -225 104 -31 7 -50 16 -50
25 0 11 -23 14 -120 14 -97 0 -120 -3 -120 -14z m172 -717 c20 -41 105 -213
188 -384 84 -170 210 -427 280 -570 70 -143 169 -345 220 -450 281 -578 318
-649 375 -712 62 -68 165 -142 235 -168 64 -24 196 -52 335 -70 66 -9 143 -20
170 -25 28 -5 73 -12 100 -15 28 -3 95 -13 150 -21 192 -29 291 -43 405 -59
63 -9 138 -20 165 -25 28 -5 75 -12 105 -15 30 -3 93 -12 140 -20 47 -7 137
-21 200 -30 63 -9 140 -20 170 -26 30 -5 91 -14 135 -19 198 -24 415 -62 415
-72 0 -10 -62 -72 -520 -521 -1149 -1128 -1228 -1207 -1265 -1263 -48 -74 -69
-128 -90 -228 -21 -101 -22 -92 50 -513 9 -49 20 -117 25 -153 6 -36 12 -72
15 -80 3 -8 9 -49 15 -90 5 -41 14 -95 20 -120 5 -25 16 -88 25 -140 9 -52 22
-135 31 -185 8 -49 22 -126 29 -170 8 -44 21 -123 30 -175 8 -52 22 -133 30
-180 8 -47 22 -130 31 -185 9 -55 20 -122 26 -150 13 -72 38 -219 49 -295 5
-36 11 -70 13 -77 9 -24 -27 -22 -72 3 -69 39 -153 84 -277 149 -259 136 -294
154 -365 192 -41 22 -104 56 -140 75 -36 19 -110 59 -165 88 -55 29 -136 72
-180 95 -44 23 -129 68 -190 100 -60 32 -144 76 -185 98 -41 22 -111 59 -155
82 -44 23 -107 57 -140 75 -264 144 -317 161 -485 161 -168 0 -221 -17 -485
-161 -33 -18 -96 -52 -140 -75 -44 -23 -114 -60 -155 -82 -41 -22 -124 -66
-185 -98 -60 -32 -146 -77 -190 -100 -44 -23 -125 -66 -180 -95 -55 -29 -129
-69 -165 -88 -85 -46 -157 -84 -315 -167 -202 -105 -386 -203 -467 -249 -45
-25 -81 -27 -72 -3 2 7 8 41 13 77 5 36 17 108 26 160 9 52 22 131 29 175 7
44 18 107 24 140 11 59 26 148 57 335 9 52 22 131 30 175 7 44 21 121 29 170
9 50 22 133 31 185 9 52 20 115 25 140 5 25 12 65 16 90 3 25 12 79 19 120 7
41 20 120 29 175 9 55 21 120 26 145 5 25 12 61 14 80 3 19 13 79 22 133 22
127 9 234 -41 351 -44 104 -87 149 -835 882 -140 138 -363 356 -495 486 -132
130 -300 295 -372 366 -73 72 -133 135 -133 140 0 10 217 48 415 72 44 5 105
14 135 19 30 6 107 17 170 26 63 9 153 22 200 30 47 8 110 17 140 20 30 3 78
10 105 15 28 5 102 16 165 25 63 9 158 22 210 30 52 8 145 21 205 30 61 9 153
23 205 30 52 8 147 21 210 30 162 23 270 44 304 61 16 8 34 14 40 14 27 0 168
104 220 162 59 65 85 114 381 723 54 110 153 313 220 450 181 369 406 828 454
926 23 48 45 89 48 93 14 14 29 -4 65 -75z"/>
</g>
</svg>
