<svg xmlns="http://www.w3.org/2000/svg" width="72" height="13" viewBox="0 0 72 13">
  <defs>
    <style>
      .cls-1 {
        fill-rule: evenodd;
      }
    </style>
  </defs>
  <path id="arrow-right.svg" class="cls-1" d="M1752.73,6096.74h-71.47a0.245,0.245,0,1,1,0-.49h71.47A0.245,0.245,0,1,1,1752.73,6096.74Zm-6.52,6.26a0.264,0.264,0,0,1-.19-0.07,0.253,0.253,0,0,1,0-.36l6.35-6.08-6.35-6.07a0.254,0.254,0,0,1,0-.36,0.287,0.287,0,0,1,.37,0l6.53,6.26a0.219,0.219,0,0,1,.07.17,0.241,0.241,0,0,1-.07.18l-6.53,6.26A0.257,0.257,0,0,1,1746.21,6103Z" transform="translate(-1681 -6090)"/>
</svg>
