<svg xmlns="http://www.w3.org/2000/svg" width="72" height="13" viewBox="0 0 72 13">
  <defs>
    <style>
      .cls-1 {
        fill-rule: evenodd;
      }
    </style>
  </defs>
  <path id="arrow-left.svg" class="cls-1" d="M508.267,6096.74h71.468a0.245,0.245,0,1,0,0-.49H508.267A0.245,0.245,0,1,0,508.267,6096.74Zm6.526,6.26a0.256,0.256,0,0,0,.184-0.07,0.25,0.25,0,0,0,0-.36l-6.342-6.08,6.342-6.07a0.25,0.25,0,0,0,0-.36,0.285,0.285,0,0,0-.368,0l-6.526,6.26a0.228,0.228,0,0,0-.076.17,0.25,0.25,0,0,0,.076.18l6.526,6.26A0.256,0.256,0,0,0,514.793,6103Z" transform="translate(-508 -6090)"/>
</svg>
