<svg xmlns="http://www.w3.org/2000/svg" width="13" height="45" viewBox="0 0 13 45">
  <defs>
    <style>
      .cls-1 {
        fill: #ffde00;
        fill-rule: evenodd;
      }
    </style>
  </defs>
  <path id="arrow-down.svg" class="cls-1" d="M100.239,907.732V863.264a0.249,0.249,0,1,1,.5,0v44.468A0.249,0.249,0,1,1,100.239,907.732ZM94,901.206a0.264,0.264,0,0,1,.073-0.184,0.241,0.241,0,0,1,.352,0l6.066,6.342,6.064-6.342a0.241,0.241,0,0,1,.352,0,0.269,0.269,0,0,1,0,.368l-6.24,6.526a0.242,0.242,0,0,1-.352,0l-6.242-6.526A0.264,0.264,0,0,1,94,901.206Z" transform="translate(-94 -863)"/>
</svg>
