<svg xmlns="http://www.w3.org/2000/svg" width="11" height="20" viewBox="0 0 11 20">
  <defs>
    <style>
      .cls-1 {
        fill: #373f51;
        fill-rule: evenodd;
      }
    </style>
  </defs>
  <path id="fb.svg" class="cls-1" d="M1450.59,6311h-2.64a4.588,4.588,0,0,0-4.88,4.92v2.27h-2.66a0.412,0.412,0,0,0-.41.41v3.29a0.41,0.41,0,0,0,.41.4h2.66v8.3a0.406,0.406,0,0,0,.41.41h3.46a0.414,0.414,0,0,0,.42-0.41v-8.3h3.1a0.4,0.4,0,0,0,.41-0.4l0.01-3.29a0.411,0.411,0,0,0-.13-0.29,0.385,0.385,0,0,0-.29-0.12h-3.1v-1.92c0-.93.22-1.4,1.45-1.4h1.78a0.412,0.412,0,0,0,.41-0.41v-3.05A0.419,0.419,0,0,0,1450.59,6311Z" transform="translate(-1440 -6311)"/>
</svg>
