<svg xmlns="http://www.w3.org/2000/svg" width="88.594" height="88" viewBox="0 0 88.594 88">
  <defs>
    <style>
      .cls-1 {
        fill: #1a273e;
        fill-rule: evenodd;
      }
    </style>
  </defs>
  <path id="feature1.svg" class="cls-1" d="M709.516,1229.17a7.673,7.673,0,0,0-7.482-6.17,1.545,1.545,0,0,0,0,3.09,4.63,4.63,0,0,1,0,9.26,1.545,1.545,0,0,0,0,3.09,7.674,7.674,0,0,0,7.482-6.18h20.008v13.9h-82.47v-13.9h25.963a1.545,1.545,0,0,0,0-3.09h-2.773a4.584,4.584,0,1,1,4.3,6.18,1.545,1.545,0,0,0,0,3.09,7.72,7.72,0,1,0-7.482-9.27H644V1311h88.579v-81.83H709.516Zm20.008,78.74h-82.47v-58.67h82.47v58.67Zm-45.816-81.82a4.63,4.63,0,0,1,0,9.26,1.545,1.545,0,0,0,0,3.09,7.72,7.72,0,0,0,0-15.44A1.545,1.545,0,0,0,683.708,1226.09Zm9.163,0a4.63,4.63,0,0,1,0,9.26,1.545,1.545,0,0,0,0,3.09,7.72,7.72,0,0,0,0-15.44A1.545,1.545,0,0,0,692.871,1226.09ZM677.6,1258.51a1.545,1.545,0,1,1-1.528,1.54A1.534,1.534,0,0,1,677.6,1258.51Zm10.69,0a1.545,1.545,0,1,1-1.527,1.54A1.533,1.533,0,0,1,688.289,1258.51Zm10.691,0a1.545,1.545,0,1,1-1.527,1.54A1.534,1.534,0,0,1,698.98,1258.51Zm10.69,0a1.545,1.545,0,1,1-1.527,1.54A1.534,1.534,0,0,1,709.67,1258.51Zm10.691,0a1.545,1.545,0,1,1-1.527,1.54A1.534,1.534,0,0,1,720.361,1258.51Zm-64.143,12.35a1.545,1.545,0,1,1-1.528,1.54A1.534,1.534,0,0,1,656.218,1270.86Zm10.69,0a1.545,1.545,0,1,1-1.527,1.54A1.533,1.533,0,0,1,666.908,1270.86Zm10.691,0a1.545,1.545,0,1,1-1.528,1.54A1.534,1.534,0,0,1,677.6,1270.86Zm10.69,0a1.545,1.545,0,1,1-1.527,1.54A1.533,1.533,0,0,1,688.289,1270.86Zm10.691,0a1.545,1.545,0,1,1-1.527,1.54A1.534,1.534,0,0,1,698.98,1270.86Zm10.69,0a1.545,1.545,0,1,1-1.527,1.54A1.534,1.534,0,0,1,709.67,1270.86Zm10.691,0a1.545,1.545,0,1,1-1.527,1.54A1.534,1.534,0,0,1,720.361,1270.86Zm-64.143,10.81a1.54,1.54,0,1,1-1.528,1.54A1.534,1.534,0,0,1,656.218,1281.67Zm10.69,0a1.54,1.54,0,1,1-1.527,1.54A1.533,1.533,0,0,1,666.908,1281.67Zm10.691,0a1.54,1.54,0,1,1-1.528,1.54A1.534,1.534,0,0,1,677.6,1281.67Zm10.69,0a1.54,1.54,0,1,1-1.527,1.54A1.533,1.533,0,0,1,688.289,1281.67Zm10.691,0a1.54,1.54,0,1,1-1.527,1.54A1.534,1.534,0,0,1,698.98,1281.67Zm10.69,0a1.54,1.54,0,1,1-1.527,1.54A1.534,1.534,0,0,1,709.67,1281.67Zm10.691,0a1.54,1.54,0,1,1-1.527,1.54A1.534,1.534,0,0,1,720.361,1281.67Zm-64.143,12.35a1.54,1.54,0,1,1-1.528,1.54A1.534,1.534,0,0,1,656.218,1294.02Zm10.69,0a1.54,1.54,0,1,1-1.527,1.54A1.533,1.533,0,0,1,666.908,1294.02Zm10.691,0a1.54,1.54,0,1,1-1.528,1.54A1.534,1.534,0,0,1,677.6,1294.02Zm10.69,0a1.54,1.54,0,1,1-1.527,1.54A1.533,1.533,0,0,1,688.289,1294.02Zm10.691,0a1.54,1.54,0,1,1-1.527,1.54A1.534,1.534,0,0,1,698.98,1294.02Z" transform="translate(-644 -1223)"/>
</svg>
