<svg xmlns="http://www.w3.org/2000/svg" width="92.44" height="87.03" viewBox="0 0 92.44 87.03">
  <defs>
    <style>
      .cls-1 {
        fill: #1a273e;
        fill-rule: evenodd;
      }
    </style>
  </defs>
  <path id="feature2.svg" class="cls-1" d="M1113.8,1298.33h50.84a1.36,1.36,0,0,0,0-2.72H1113.8A1.36,1.36,0,0,0,1113.8,1298.33Zm0-45.63h4.45a1.36,1.36,0,1,0,0-2.72h-4.45A1.36,1.36,0,1,0,1113.8,1252.7Zm0,11.41h4.45a1.36,1.36,0,0,0,0-2.72h-4.45A1.36,1.36,0,1,0,1113.8,1264.11Zm0,11.4h4.45a1.36,1.36,0,0,0,0-2.72h-4.45A1.36,1.36,0,0,0,1113.8,1275.51Zm0,11.41h4.45a1.36,1.36,0,1,0,0-2.72h-4.45A1.36,1.36,0,1,0,1113.8,1286.92Zm16.02,0h28.33a2.563,2.563,0,0,0,2.55-2.56v-21.3h1.69a1.762,1.762,0,0,0,.99-3.21l-18.4-12.81a1.764,1.764,0,0,0-1.99,0l-18.41,12.81a1.766,1.766,0,0,0,1,3.21h1.69v21.3A2.556,2.556,0,0,0,1129.82,1286.92Zm17.47-2.72h-6.61v-11.5h6.61v11.5Zm10.7,0h-8v-11.72a2.49,2.49,0,0,0-2.48-2.5h-7.05a2.5,2.5,0,0,0-2.49,2.5v11.72h-7.99v-21.14h28.01v21.14Zm-14.01-34.55,15.35,10.69h-30.69Zm30.87-3.59a1.361,1.361,0,0,0,1.36-1.36v-4.97a4.908,4.908,0,0,0-4.88-4.92h-66.12v-0.06a10.715,10.715,0,1,0-21.43,0v42.56a1.355,1.355,0,1,0,2.71,0v-42.56a8.005,8.005,0,1,1,16.01,0v58.29c-0.19-.21-0.38-0.41-0.59-0.61a10.621,10.621,0,0,0-6.8-2.99h-0.16c-0.13-.01-0.26-0.01-0.4-0.01h-0.47a0.375,0.375,0,0,1-.1.01c-0.08,0-.15.01-0.22,0.01l-0.34.03-0.22.03c-0.11.01-.21,0.02-0.32,0.04-0.08.01-.16,0.03-0.24,0.04s-0.18.03-.27,0.05l-0.28.06c-0.06.02-.12,0.03-0.19,0.05a10.672,10.672,0,0,0-5.41,3.3v-10.22a1.355,1.355,0,1,0-2.71,0v17.43a10.74,10.74,0,0,0,3,7.44,10.589,10.589,0,0,0,7.71,3.3h76.84a4.908,4.908,0,0,0,4.88-4.92v-55.72a1.355,1.355,0,1,0-2.71,0v55.72a2.187,2.187,0,0,1-2.17,2.2h-76.84a7.929,7.929,0,0,1-5.76-2.47,8.056,8.056,0,0,1-2.24-5.81,0.66,0.66,0,0,1,.01-0.14,1.7,1.7,0,0,1,.01-0.23c0-.06.01-0.12,0.01-0.17,0.01-.08.02-0.15,0.03-0.22a0.881,0.881,0,0,1,.02-0.17,1.572,1.572,0,0,1,.04-0.23,0.772,0.772,0,0,1,.02-0.15c0.02-.09.04-0.17,0.05-0.25l0.03-.12c0.02-.09.05-0.18,0.07-0.27l0.03-.09c0.02-.1.06-0.2,0.09-0.3,0-.01.01-0.03,0.01-0.04a8.128,8.128,0,0,1,4.66-4.92,0.227,0.227,0,0,1,.04-0.01c0.09-.04.19-0.07,0.29-0.11,0.03-.01.05-0.02,0.08-0.03a2.582,2.582,0,0,0,.26-0.08l0.13-.03,0.22-.06a1.364,1.364,0,0,1,.17-0.04,1.416,1.416,0,0,1,.2-0.04,1.766,1.766,0,0,1,.2-0.04l0.18-.03,0.22-.03a0.777,0.777,0,0,0,.16-0.02c0.08,0,.16-0.01.24-0.01a0.97,0.97,0,0,1,.17-0.01,1.477,1.477,0,0,1,.21-0.01h0.43c0.06,0,.11.01,0.17,0.01a2.825,2.825,0,0,1,.29.02c0.03,0,.07.01,0.1,0.01,0.12,0.01.25,0.03,0.38,0.05h0a8.049,8.049,0,0,1,6.74,7.14,7.7,7.7,0,0,1,.05.83v0.03a0.757,0.757,0,0,0,.01.15c0,0.02.01,0.04,0.01,0.06,0.01,0.04.02,0.09,0.03,0.13a0.227,0.227,0,0,0,.01.04l0.06,0.15a0.257,0.257,0,0,0,.02.05c0.02,0.04.05,0.08,0.07,0.12a0.142,0.142,0,0,1,.02.04,1.059,1.059,0,0,0,.1.12,0.176,0.176,0,0,0,.04.05,0.9,0.9,0,0,0,.1.09,0.138,0.138,0,0,0,.04.03,0.538,0.538,0,0,0,.12.09c0.01,0.01.03,0.02,0.04,0.03,0.05,0.03.11,0.05,0.16,0.08h0.02a0.88,0.88,0,0,0,.15.05c0.02,0.01.03,0.01,0.05,0.02,0.05,0.01.11,0.02,0.17,0.03h0.23c0.05-.01.1-0.01,0.16-0.02h0.01c0.06-.02.11-0.03,0.17-0.05a0.037,0.037,0,0,1,.03-0.01c0.06-.02.11-0.05,0.16-0.07l0.01-.01,0.15-.09,0.03-.03a0.526,0.526,0,0,0,.14-0.12h0l0.01-.01a0.6,0.6,0,0,0,.08-0.08c0.01-.01.01-0.03,0.02-0.04s0.04-.05.06-0.07c0-.01.01-0.02,0.01-0.03a0.405,0.405,0,0,0,.05-0.09c0.01,0,.01-0.01.01-0.02a0.313,0.313,0,0,0,.05-0.1,0.01,0.01,0,0,1,.01-0.01c0.01-.04.03-0.07,0.04-0.11v-0.02c0.01-.03.02-0.07,0.03-0.11v-0.04a0.292,0.292,0,0,0,.02-0.09c0-.05.01-0.09,0.01-0.14v-62.68h66.12a2.187,2.187,0,0,1,2.17,2.2v4.97A1.359,1.359,0,0,0,1174.85,1246.06Z" transform="translate(-1083.78 -1223.97)"/>
</svg>
