<svg xmlns="http://www.w3.org/2000/svg" width="102.34" height="81.91" viewBox="0 0 102.34 81.91">
  <defs>
    <style>
      .cls-1 {
        fill: #1a273e;
        fill-rule: evenodd;
      }
    </style>
  </defs>
  <path id="feature3.svg" class="cls-1" d="M1622.35,1229.09h-99.03a1.643,1.643,0,0,0-1.65,1.64v78.64a1.641,1.641,0,0,0,1.65,1.63h99.03a1.641,1.641,0,0,0,1.65-1.63v-78.64A1.643,1.643,0,0,0,1622.35,1229.09Zm-1.65,78.64h-95.73v-75.37h95.73v75.37Zm-90.78-11.38a6.526,6.526,0,0,1,6.55,6.48,1.643,1.643,0,0,0,1.65,1.64h69.43a1.65,1.65,0,0,0,1.65-1.64,6.526,6.526,0,0,1,6.55-6.48,1.641,1.641,0,0,0,1.65-1.63v-49.35a1.641,1.641,0,0,0-1.65-1.63,6.526,6.526,0,0,1-6.55-6.48,1.641,1.641,0,0,0-1.65-1.63h-9.39a1.63,1.63,0,1,0,0,3.26h7.88a9.832,9.832,0,0,0,8.06,7.98v46.35a9.832,9.832,0,0,0-8.06,7.98h-66.41a9.832,9.832,0,0,0-8.06-7.98v-46.35a9.832,9.832,0,0,0,8.06-7.98h51.93a1.63,1.63,0,1,0,0-3.26h-53.44a1.635,1.635,0,0,0-1.65,1.63,6.526,6.526,0,0,1-6.55,6.48,1.641,1.641,0,0,0-1.65,1.63v49.35A1.641,1.641,0,0,0,1529.92,1296.35Zm27.51-39.8a1.653,1.653,0,0,0,1.3-.63l3.83-4.88,3.84,4.88a1.656,1.656,0,0,0,2.6,0l3.84-4.88,3.83,4.88a1.656,1.656,0,0,0,2.6,0l3.83-4.88,3.84,4.88a1.65,1.65,0,0,0,2.31.28,1.619,1.619,0,0,0,.29-2.29l-5.13-6.53a1.683,1.683,0,0,0-1.31-.64,1.649,1.649,0,0,0-1.3.64l-3.83,4.87-3.83-4.87a1.65,1.65,0,0,0-2.61,0l-3.83,4.87-3.83-4.87a1.674,1.674,0,0,0-1.31-.63,1.654,1.654,0,0,0-1.3.63l-5.13,6.53a1.619,1.619,0,0,0,.29,2.29A1.651,1.651,0,0,0,1557.43,1256.55Zm40.73,11.98H1547.5a1.63,1.63,0,1,0,0,3.26h50.66A1.63,1.63,0,1,0,1598.16,1268.53Zm8.26-4.9a1.643,1.643,0,0,0-1.65-1.64H1540.9a1.635,1.635,0,1,0,0,3.27h63.87A1.641,1.641,0,0,0,1606.42,1263.63Zm-41.84,21.78a8.255,8.255,0,1,0,8.25-8.17A8.214,8.214,0,0,0,1564.58,1285.41Zm13.21,0a4.955,4.955,0,1,1-4.96-4.9A4.94,4.94,0,0,1,1577.79,1285.41Zm-30.29-1.64a1.635,1.635,0,1,0,0,3.27h12.13a1.635,1.635,0,1,0,0-3.27H1547.5Zm50.66,0h-12.12a1.635,1.635,0,1,0,0,3.27h12.12A1.635,1.635,0,1,0,1598.16,1283.77Z" transform="translate(-1521.66 -1229.09)"/>
</svg>
