<svg xmlns="http://www.w3.org/2000/svg" width="16" height="16" viewBox="0 0 16 16">
  <defs>
    <style>
      .cls-1 {
        fill: #373f51;
        fill-rule: evenodd;
      }
    </style>
  </defs>
  <path id="ins.svg" class="cls-1" d="M1495.58,6313h-7.16a4.419,4.419,0,0,0-4.42,4.41v7.17a4.421,4.421,0,0,0,4.42,4.42h7.16a4.421,4.421,0,0,0,4.42-4.42v-7.17A4.419,4.419,0,0,0,1495.58,6313Zm3,11.58a3,3,0,0,1-3,3h-7.16a3,3,0,0,1-3-3v-7.17a2.994,2.994,0,0,1,3-2.99h7.16a2.994,2.994,0,0,1,3,2.99v7.17h0Zm-6.58-7.7a4.12,4.12,0,1,0,4.12,4.12A4.127,4.127,0,0,0,1492,6316.88Zm0,6.82a2.7,2.7,0,1,1,2.7-2.7A2.7,2.7,0,0,1,1492,6323.7Zm4.3-8.03a1.02,1.02,0,0,0-.74.31,1.039,1.039,0,1,0,1.47,1.47A1.045,1.045,0,0,0,1496.3,6315.67Z" transform="translate(-1484 -6313)"/>
</svg>
