<svg xmlns="http://www.w3.org/2000/svg" width="14" height="22" viewBox="0 0 14 22">
  <defs>
    <style>
      .cls-1 {
        fill: #373f51;
        fill-rule: evenodd;
      }
    </style>
  </defs>
  <path id="ok.svg" class="cls-1" d="M1393.31,6332a1.656,1.656,0,0,1-1.17-1.05,1.222,1.222,0,0,1,.34-1.33c0.59-.57,1.19-1.13,1.78-1.69,0.78-.74,1.57-1.48,2.35-2.22a0.179,0.179,0,0,0,.11-0.17,0.21,0.21,0,0,0-.21-0.06,9.1,9.1,0,0,1-4.8-1.82,3.385,3.385,0,0,1-.34-0.31,1.356,1.356,0,0,1,.69-2.24,1.6,1.6,0,0,1,1.23.18,11.994,11.994,0,0,0,1.63.85,8.449,8.449,0,0,0,2.69.57,8.02,8.02,0,0,0,4.12-.86c0.31-.16.6-0.35,0.91-0.53a1.616,1.616,0,0,1,1.45-.16,1.336,1.336,0,0,1,.47,2.25,7.7,7.7,0,0,1-3.37,1.76,12.672,12.672,0,0,1-1.74.31c-0.06.01-.14-0.01-0.16,0.06s0.06,0.09.1,0.13c0.97,0.93,1.95,1.85,2.92,2.77,0.38,0.36.74,0.74,1.13,1.09a1.371,1.371,0,0,1-.58,2.41c-0.06.02-.12,0.04-0.17,0.06h-0.5a1.9,1.9,0,0,1-.89-0.51l-2.4-2.28c-0.23-.21-0.43-0.44-0.68-0.64a0.3,0.3,0,0,0-.42.01c-0.09.07-.17,0.15-0.25,0.22-0.94.89-1.89,1.78-2.82,2.68a2.054,2.054,0,0,1-.83.52h-0.59Zm5.37-22a7.829,7.829,0,0,1,1.43.34,5.55,5.55,0,0,1,3.72,4.42,5.157,5.157,0,0,1-1.64,4.74,5.79,5.79,0,0,1-3.35,1.59,5.929,5.929,0,0,1-4.51-1.15,5.381,5.381,0,0,1-2.22-3.92,5.574,5.574,0,0,1,3.55-5.59,7.791,7.791,0,0,1,1.66-.43h1.36Zm-0.67,2.88a2.7,2.7,0,1,0,2.84,2.7A2.751,2.751,0,0,0,1398.01,6312.88Z" transform="translate(-1391 -6310)"/>
</svg>
