<svg xmlns="http://www.w3.org/2000/svg" width="19.845" height="22.16" viewBox="0 0 19.845 22.16">
  <defs>
    <style>
      .cls-1 {
        fill: #a4a4a4;
        fill-rule: evenodd;
      }
    </style>
  </defs>
  <path id="ruble.svg" class="cls-1" d="M983.363,2895.48h3.473v3.02a0.506,0.506,0,0,0,.14.36,0.493,0.493,0,0,0,.356.14h2.59a0.506,0.506,0,0,0,.349-0.14,0.5,0.5,0,0,0,.147-0.36v-3.02h7.83a0.466,0.466,0,0,0,.357-0.15,0.478,0.478,0,0,0,.14-0.36v-2.01a0.478,0.478,0,0,0-.14-0.36,0.458,0.458,0,0,0-.357-0.14h-7.83v-1.86h5.272a6.924,6.924,0,0,0,5.06-1.92,7.231,7.231,0,0,0,0-9.9,6.922,6.922,0,0,0-5.06-1.92h-8.358a0.5,0.5,0,0,0-.357.14,0.478,0.478,0,0,0-.139.36v9.89h-3.473a0.466,0.466,0,0,0-.357.15,0.511,0.511,0,0,0-.14.36v2.34a0.478,0.478,0,0,0,.14.36,0.5,0.5,0,0,0,.357.14h3.473v1.86h-3.473a0.458,0.458,0,0,0-.357.14,0.478,0.478,0,0,0-.14.36v2.01a0.478,0.478,0,0,0,.14.36A0.466,0.466,0,0,0,983.363,2895.48Zm7.055-15.27h4.962a3.649,3.649,0,0,1,2.651.97,3.729,3.729,0,0,1,0,5.1,3.649,3.649,0,0,1-2.651.97h-4.962v-7.04Z" transform="translate(-982.875 -2876.84)"/>
</svg>
