<svg xmlns="http://www.w3.org/2000/svg" width="20.38" height="36" viewBox="0 0 20.38 36">
  <defs>
    <style>
      .cls-1 {
        fill: #ffde00;
        fill-rule: evenodd;
      }
    </style>
  </defs>
  <path id="tel.svg" class="cls-1" d="M1283.56,32h-15.12a2.642,2.642,0,0,0-2.64,2.643V65.356A2.642,2.642,0,0,0,1268.44,68h15.12a2.642,2.642,0,0,0,2.64-2.643V34.642A2.642,2.642,0,0,0,1283.56,32ZM1267,36.8h18V59.6h-18V36.8Zm1.44-3.6h15.12a1.446,1.446,0,0,1,1.44,1.443V35.6h-18V34.642A1.446,1.446,0,0,1,1268.44,33.2Zm15.12,33.6h-15.12a1.446,1.446,0,0,1-1.44-1.442V60.8h18v4.557A1.446,1.446,0,0,1,1283.56,66.8ZM1276,61.4a2.4,2.4,0,1,0,2.4,2.4A2.4,2.4,0,0,0,1276,61.4Zm0,3.6a1.2,1.2,0,1,1,1.2-1.2A1.2,1.2,0,0,1,1276,65Zm-2.4-30h2.4a0.6,0.6,0,0,0,0-1.2h-2.4A0.6,0.6,0,0,0,1273.6,35Zm4.2,0h0.6a0.6,0.6,0,0,0,0-1.2h-0.6A0.6,0.6,0,0,0,1277.8,35Z" transform="translate(-1265.81 -32)"/>
</svg>
