<svg xmlns="http://www.w3.org/2000/svg" width="36.03" height="36" viewBox="0 0 36.03 36">
  <defs>
    <style>
      .cls-1 {
        fill: #ffde00;
        fill-rule: evenodd;
      }
    </style>
  </defs>
  <path id="tel2.svg" class="cls-1" d="M1832.56,158h-15.12a2.642,2.642,0,0,0-2.64,2.643v30.714a2.642,2.642,0,0,0,2.64,2.643h15.12a2.642,2.642,0,0,0,2.64-2.643V160.642A2.642,2.642,0,0,0,1832.56,158ZM1816,162.8h18v22.8h-18V162.8Zm1.44-3.6h15.12a1.446,1.446,0,0,1,1.44,1.443V161.6h-18v-0.957A1.446,1.446,0,0,1,1817.44,159.2Zm15.12,33.6h-15.12a1.446,1.446,0,0,1-1.44-1.443V186.8h18v4.557A1.446,1.446,0,0,1,1832.56,192.8Zm-7.56-5.4a2.4,2.4,0,1,0,2.4,2.4A2.405,2.405,0,0,0,1825,187.4Zm0,3.6a1.2,1.2,0,1,1,1.2-1.2A1.2,1.2,0,0,1,1825,191Zm-2.4-30h2.4a0.6,0.6,0,1,0,0-1.2h-2.4A0.6,0.6,0,0,0,1822.6,161Zm4.2,0h0.6a0.6,0.6,0,1,0,0-1.2h-0.6A0.6,0.6,0,0,0,1826.8,161Zm14.17-.258a0.6,0.6,0,0,0-.85,0,0.607,0.607,0,0,0,0,.848,5.759,5.759,0,0,1,0,8.131,0.6,0.6,0,0,0,.43,1.024,0.6,0.6,0,0,0,.42-0.175A6.957,6.957,0,0,0,1840.97,160.741Zm-2.53,1.365a0.6,0.6,0,1,0-.85.848,3.92,3.92,0,0,1,0,5.567,0.6,0.6,0,0,0,.43,1.024,0.586,0.586,0,0,0,.42-0.175A5.123,5.123,0,0,0,1838.44,162.106Zm-28.56-.517a0.607,0.607,0,0,0,0-.848,0.6,0.6,0,0,0-.85,0,6.957,6.957,0,0,0,0,9.828,0.6,0.6,0,0,0,.85,0,0.609,0.609,0,0,0,0-.849A5.759,5.759,0,0,1,1809.88,161.589Zm2.53,0.352a0.6,0.6,0,0,0-.85,0,5.122,5.122,0,0,0,0,7.263,0.582,0.582,0,0,0,.42.175,0.622,0.622,0,0,0,.43-0.175,0.609,0.609,0,0,0,0-.849,3.918,3.918,0,0,1,0-5.566A0.607,0.607,0,0,0,1812.41,161.941Z" transform="translate(-1807 -158)"/>
</svg>
