<svg xmlns="http://www.w3.org/2000/svg" width="9.375" height="15" viewBox="0 0 9.375 15">
  <defs>
    <style>
      .cls-1 {
        fill-rule: evenodd;
      }
    </style>
  </defs>
  <path id="usd.svg" class="cls-1" d="M4.8,11.46V7.948A5.743,5.743,0,0,1,1.946,6.527a3.222,3.222,0,0,1-.91-2.31A3,3,0,0,1,2.064,1.906,4.5,4.5,0,0,1,4.8.83V0H6.247V0.83a4.658,4.658,0,0,1,2.514.909A3.347,3.347,0,0,1,9.955,3.746l-2.517.277A1.774,1.774,0,0,0,6.246,2.682V5.96A6.84,6.84,0,0,1,9.5,7.374,3.015,3.015,0,0,1,10.362,9.6a3.4,3.4,0,0,1-1.09,2.558,5.128,5.128,0,0,1-3.026,1.274V15H4.8V13.475A5.02,5.02,0,0,1,2.01,12.391,4.183,4.183,0,0,1,.638,9.835L3.232,9.6a2.588,2.588,0,0,0,.6,1.157A2.616,2.616,0,0,0,4.8,11.46Zm0-8.8a1.892,1.892,0,0,0-.935.571,1.33,1.33,0,0,0-.349.889,1.258,1.258,0,0,0,.318.825,2.18,2.18,0,0,0,.964.616v-2.9h0Zm1.441,8.922A2.124,2.124,0,0,0,7.458,11a1.5,1.5,0,0,0,.467-1.1,1.353,1.353,0,0,0-.392-0.969,2.626,2.626,0,0,0-1.287-.621v3.268Z" transform="translate(-0.625)"/>
</svg>
