<svg xmlns="http://www.w3.org/2000/svg" width="15" height="11" viewBox="0 0 15 11">
  <defs>
    <style>
      .cls-1 {
        fill: #373f51;
        fill-rule: evenodd;
      }
    </style>
  </defs>
  <path id="yuotube.svg" class="cls-1" d="M1546.42,6316.94c-0.55-.67-1.55-0.94-3.46-0.94h-6.93c-1.95,0-2.96.29-3.5,1s-0.53,1.73-.53,3.15v2.7c0,2.75.62,4.15,4.03,4.15h6.94c1.65,0,2.57-.24,3.16-0.83,0.61-.61.87-1.6,0.87-3.32v-2.7C1547,6318.65,1546.96,6317.62,1546.42,6316.94Zm-4.79,4.93-3.15,1.72a0.419,0.419,0,0,1-.22.05,0.451,0.451,0,0,1-.25-0.07,0.5,0.5,0,0,1-.24-0.43v-3.42a0.507,0.507,0,0,1,.24-0.43,0.443,0.443,0,0,1,.47-0.01l3.15,1.7a0.513,0.513,0,0,1,.26.45A0.5,0.5,0,0,1,1541.63,6321.87Z" transform="translate(-1532 -6316)"/>
</svg>
