<?xml version="1.0" encoding="utf-8"?>
<!-- Generator: Adobe Illustrator 17.1.0, SVG Export Plug-In . SVG Version: 6.00 Build 0)  -->
<!DOCTYPE svg PUBLIC "-//W3C//DTD SVG 1.1//EN" "http://www.w3.org/Graphics/SVG/1.1/DTD/svg11.dtd">
<svg version="1.1" id="Layer_1" xmlns="http://www.w3.org/2000/svg" xmlns:xlink="http://www.w3.org/1999/xlink" x="0px" y="0px"
	 viewBox="0 0 51.1 39.6" enable-background="new 0 0 51.1 39.6" xml:space="preserve">
<g>
	<defs>
		<rect id="SVGID_1_" y="0" width="51.1" height="39.6"/>
	</defs>
	<clipPath id="SVGID_2_">
		<use xlink:href="#SVGID_1_"  overflow="visible"/>
	</clipPath>
	<path clip-path="url(#SVGID_2_)" fill="#3ED2FF" d="M10.3,0.9C10,1.2,2.4,9.1,2.4,9.1l-1.3,1.6l9.2,9.1c0,0,17.1,18.1,17.2,18.2
		c0.1,0.2,2.5,0,2.5,0l1.7-2.8L30,32.6l3.4,1.7l2.1-0.1l0.4-2.8l-1.5-1.5l3.8,1.4l1.2-1.4l0.3-3l2.4,0.9l1.4-2.6l-0.7-1.8L29.5,9.5
		l-3.9,3.9l-3.2,2.1l-0.7,0.4l-2.4-0.4l-1.5-2.1l3.2-3.3l1.1-2l-4.8-0.2L10.3,0.9z"/>
	<polygon clip-path="url(#SVGID_2_)" fill="#FB7901" points="14.3,17.6 17.1,19.5 17.1,21.7 20.5,22.4 21.3,25.2 23.7,26.5 
		24.7,29.1 27.5,29.9 28.5,32.1 26.9,34.3 21.4,39.1 19.3,38.1 18.5,34.6 15.6,35.3 14.7,31.2 12.2,31 11.1,27.8 8.9,27.8 7.3,25.2 
		8.1,22.8 	"/>
	<path clip-path="url(#SVGID_2_)" fill="#FB7901" d="M23.4,7.9c-0.3-0.2-5.6,5.4-5.6,5.4l2.8,2.3l2.9-0.9l5.5-5l11.9,10.9l9.5-9.9
		l-9.6-9.8l-5.5,5.3l-1.9,0.5c0,0-2-0.3-2.3-0.6C30.8,5.8,27.5,5,27.5,5L24,6.2L23.4,7.9z"/>
	<path clip-path="url(#SVGID_2_)" fill="#1E2C41" d="M41,0.2c-0.3-0.3-0.8-0.3-1.1,0l-5.7,5.7c-0.4,0.4-0.7,0.4-1.2,0.2l-2.5-1.2
		c-2.1-1-4.5-0.7-6.2,1l-0.7,0.7l-5,0c-0.7,0-1.2-0.2-1.7-0.7l-5.7-5.7c-0.3-0.3-0.8-0.3-1.1,0l-9.9,9.9C0.1,10.3,0,10.5,0,10.7
		c0,0.2,0.1,0.4,0.2,0.5l9.4,9.4l-2,2c-0.6,0.6-1,1.5-1,2.4c0,0.9,0.4,1.8,1,2.4c0.6,0.6,1.5,1,2.4,1c0.1,0,0.2,0,0.4,0
		c-0.1,1,0.2,2,1,2.7c0.6,0.6,1.5,1,2.4,1c0.1,0,0.2,0,0.4,0c-0.1,1,0.2,2,1,2.7c0.6,0.6,1.5,1,2.4,1c0.1,0,0.2,0,0.4,0
		c-0.1,1,0.2,2,1,2.7c0.6,0.6,1.5,1,2.4,1c0.9,0,1.8-0.4,2.4-1l2-2l0.9,0.9c0.7,0.7,1.5,1,2.4,1c0.9,0,1.7-0.3,2.4-1
		c0.6-0.6,1-1.5,1-2.4c0.3,0.1,0.5,0.1,0.8,0.1c0.9,0,1.7-0.3,2.4-1c0.7-0.7,1-1.5,1-2.4c0.3,0.1,0.5,0.1,0.8,0.1
		c0.9,0,1.7-0.3,2.4-1c0.7-0.8,1.1-1.8,1-2.8c0.1,0,0.2,0,0.4,0c0.9,0,1.7-0.3,2.4-1c1.3-1.3,1.3-3.5,0-4.8l-1.8-1.8l9.4-9.4
		c0.1-0.1,0.2-0.3,0.2-0.5c0-0.2-0.1-0.4-0.2-0.5L41,0.2z M8.7,26.3C8.3,26,8.1,25.5,8.1,25c0-0.5,0.2-1,0.5-1.3l4.4-4.4
		c0.4-0.4,0.8-0.5,1.3-0.5s1,0.2,1.3,0.5c0.7,0.7,0.7,1.9,0,2.6l-4.4,4.4C10.6,27,9.4,27,8.7,26.3 M15,30.1c-0.7,0.7-1.9,0.7-2.6,0
		c-0.7-0.7-0.7-1.9,0-2.6l4.4-4.4c0.4-0.4,0.8-0.5,1.3-0.5s1,0.2,1.3,0.5c0.7,0.7,0.7,1.9,0,2.6L15,30.1z M16.1,33.8
		c-0.7-0.7-0.7-1.9,0-2.6l4.4-4.4c0.4-0.4,0.8-0.5,1.3-0.5c0.5,0,1,0.2,1.3,0.5c0.7,0.7,0.7,1.9,0,2.6l-4.4,4.4
		C18.1,34.5,16.8,34.5,16.1,33.8 M22.5,37.5c-0.7,0.7-1.9,0.7-2.6,0c-0.7-0.7-0.7-1.9,0-2.6l4.4-4.4c0.4-0.4,0.8-0.5,1.3-0.5
		c0.5,0,1,0.2,1.3,0.5c0.4,0.4,0.5,0.8,0.5,1.3c0,0.5-0.2,1-0.5,1.3L22.5,37.5z M42.3,23.5c0.7,0.7,0.7,1.9,0,2.6
		c-0.7,0.7-1.9,0.7-2.6,0l-1.9-1.9l-1.1,1.1l1.9,1.9c0.7,0.7,0.7,1.9,0,2.6c-0.7,0.7-1.9,0.7-2.6,0l-0.5-0.5c0,0,0,0,0,0L34.1,28
		L33,29.1l1.4,1.4c0.7,0.7,0.7,1.9,0,2.6c-0.7,0.7-1.9,0.7-2.6,0L30.5,32l-0.2-0.2h0l-0.5,0.5l-0.5,0.5l0.9,0.9
		c0.4,0.4,0.5,0.8,0.5,1.3s-0.2,1-0.5,1.3c-0.7,0.7-1.9,0.7-2.6,0l-0.9-0.9l1.3-1.3c0.6-0.6,1-1.5,1-2.4c0-0.9-0.4-1.8-1-2.4
		c-0.6-0.6-1.5-1-2.4-1c-0.1,0-0.2,0-0.4,0c0.1-1-0.2-2-1-2.7c-0.6-0.6-1.5-1-2.4-1c-0.1,0-0.2,0-0.4,0c0.1-1-0.2-2-1-2.7
		c-0.6-0.6-1.5-1-2.4-1c-0.1,0-0.2,0-0.4,0c0.1-1-0.2-2-1-2.7c-0.6-0.6-1.5-1-2.4-1s-1.8,0.4-2.4,1l-1.3,1.3l-8.8-8.8l8.8-8.8
		L15.8,7c0.8,0.8,1.6,1.2,2.8,1.2l3.5,0l-5.3,5.3c-0.2,0.2-0.2,0.4-0.2,0.6c0,0.2,0.1,0.4,0.3,0.5c1.6,1.3,5.3,3.1,7.9,0.5l4.5-4.6
		l11.1,11.1l0,0L42.3,23.5z M40.5,19.5L29.8,8.9c-0.1-0.1-0.3-0.2-0.5-0.2s-0.4,0.1-0.5,0.2L23.7,14c-1.7,1.7-4.1,0.6-5.2-0.1
		l6.9-6.9c1.2-1.2,2.9-1.5,4.4-0.7l2.5,1.2c1.1,0.5,2.1,0.4,3-0.5l5.1-5.1l8.8,8.8L40.5,19.5z"/>
</g>
</svg>
