<?xml version="1.0" encoding="utf-8"?>
<!-- Generator: Adobe Illustrator 17.1.0, SVG Export Plug-In . SVG Version: 6.00 Build 0)  -->
<!DOCTYPE svg PUBLIC "-//W3C//DTD SVG 1.1//EN" "http://www.w3.org/Graphics/SVG/1.1/DTD/svg11.dtd">
<svg version="1.1" id="Layer_1" xmlns="http://www.w3.org/2000/svg" xmlns:xlink="http://www.w3.org/1999/xlink" x="0px" y="0px"
	 viewBox="0 0 53.6 48.1" enable-background="new 0 0 53.6 48.1" xml:space="preserve">
<g>
	<defs>
		<rect id="SVGID_1_" y="0" width="53.6" height="48.1"/>
	</defs>
	<clipPath id="SVGID_2_">
		<use xlink:href="#SVGID_1_"  overflow="visible"/>
	</clipPath>
	<path clip-path="url(#SVGID_2_)" fill="#3ED2FF" d="M8.8,1.4c0.3-0.2,37.6,0.1,37.9,0c0.3-0.1,5.1,1.3,5.1,1.3l0.9,26.8
		c0,0-0.8,7.1-0.9,7.1c-0.2-0.1-16.9,1-16.9,1H5.3L2,35.9l-0.8-8.5L1.7,2.7l3.8-1.3L8.8,1.4z"/>
	<polygon clip-path="url(#SVGID_2_)" fill="#FB7901" points="12.4,36.6 13.8,33 22.6,29.6 23.1,25.9 20.3,22.8 20.6,13.4 24.4,9.8 
		30.7,10.7 33.2,14.2 33.6,21.9 30.2,27.1 33.6,30.7 40.6,33.3 41.5,37.3 12.4,37.3 	"/>
	<path clip-path="url(#SVGID_2_)" fill="#1E2C41" d="M37.7,48.1H16c-0.7,0-1.4-0.6-1.4-1.4c0-0.7,0.6-1.4,1.4-1.4h9.6v-3.1
		c0-0.7,0.6-1.4,1.4-1.4c0.7,0,1.4,0.6,1.4,1.4v3.1h9.6c0.7,0,1.4,0.6,1.4,1.4C39,47.6,38.4,48.1,37.7,48.1 M4.8,38.8
		c-2.6,0-4.8-2.1-4.8-4.8V4.8C0,2.2,2.1,0,4.8,0h43.9c2.6,0,4.8,2.1,4.8,4.8v29.1c0,2.6-2.1,4.8-4.8,4.8H4.8z M32.1,16.9L32.1,16.9
		c-0.3-5.6-4.5-5.7-5.3-5.6h-0.1h-0.1c-1.1,0-4.9,0.4-5.1,5.6v0.1c0,0.1-0.5,5,1.8,7.5c0.9,1,2.1,1.4,3.6,1.5h0.1
		c1.6,0,2.7-0.5,3.6-1.5C32.6,21.9,32.1,17,32.1,16.9 M15.5,33.4c-1.2,0.3-1.6,1.5-1.7,2.6h26c-0.1-1.1-0.5-2.4-1.7-2.6
		c-6.1-1.6-8.4-3.6-9.3-5.1c-0.6,0.1-1.4,0.3-2.1,0.3h-0.1h-0.1h-0.1c-0.6,0-1.3-0.1-1.9-0.2C23.8,29.8,21.5,31.9,15.5,33.4
		 M4.8,36.1h6.3c0.1-2.8,1.5-4.7,3.7-5.3c5.1-1.3,6.8-2.8,7.4-3.6c-0.4-0.3-0.8-0.6-1.1-1.1c-2.9-3.3-2.5-8.9-2.4-9.6
		c0.3-6.6,5.2-8.2,8.1-8.1c2.9-0.1,7.7,1.5,8.1,8.1c0.1,0.6,0.5,6.2-2.4,9.6c-0.3,0.4-0.6,0.6-1,0.9c0.5,0.8,2.2,2.4,7.5,3.7
		c2.2,0.6,3.6,2.4,3.7,5.3h6.3c1.2,0,2.1-1,2.1-2.1v-29c0-1.2-1-2.1-2.1-2.1H4.9c-1.2,0-2.1,1-2.1,2.1v29.1
		C2.7,35.2,3.6,36.1,4.8,36.1"/>
</g>
</svg>
