<?xml version="1.0" encoding="utf-8"?>
<!-- Generator: Adobe Illustrator 17.1.0, SVG Export Plug-In . SVG Version: 6.00 Build 0)  -->
<!DOCTYPE svg PUBLIC "-//W3C//DTD SVG 1.1//EN" "http://www.w3.org/Graphics/SVG/1.1/DTD/svg11.dtd">
<svg version="1.1" id="Layer_1" xmlns="http://www.w3.org/2000/svg" xmlns:xlink="http://www.w3.org/1999/xlink" x="0px" y="0px"
	 viewBox="0 0 39.5 48" enable-background="new 0 0 39.5 48" xml:space="preserve">
<polygon fill="#3ED2FF" points="17.8,3.3 10.9,6.6 6.5,6.9 1.3,5.9 0.7,14.4 0.7,26.6 2,32.2 5.8,36.9 16,45.9 20.1,47 27.9,42.6 
	37.6,32.2 39,24.8 38.6,8.1 38.4,5.9 34.1,6.9 26.8,6.4 23.1,3.8 20.1,1.7 "/>
<g>
	<defs>
		<rect id="SVGID_1_" y="0" width="39.5" height="48"/>
	</defs>
	<clipPath id="SVGID_2_">
		<use xlink:href="#SVGID_1_"  overflow="visible"/>
	</clipPath>
	<path clip-path="url(#SVGID_2_)" fill="#FB7901" d="M30.4,23.6c0,5.7-4.6,10.2-10.2,10.2c-5.7,0-10.2-4.6-10.2-10.2
		s4.6-10.2,10.2-10.2C25.8,13.4,30.4,18,30.4,23.6"/>
	<path clip-path="url(#SVGID_2_)" fill="#1E2C41" d="M39.1,4.6c-0.3-0.2-0.6-0.2-1-0.1c-1.9,0.9-4,1.4-6.1,1.4
		c-4.5,0-8.6-2-11.4-5.5c-0.4-0.5-1.2-0.5-1.6,0c-2.8,3.5-6.9,5.5-11.4,5.5c-2.2,0-4.2-0.5-6.1-1.4c-0.3-0.1-0.7-0.1-1,0.1
		C0.2,4.8,0,5.1,0,5.4v22.3c0,9.9,14.8,18,19.3,20.2c0.2,0.1,0.3,0.1,0.5,0.1c0.1,0,0.3,0,0.4-0.1c4.5-2.2,19.3-10.3,19.3-20.2V5.4
		C39.6,5.1,39.4,4.8,39.1,4.6 M37.6,27.7c0,8.6-13.9,16.3-17.8,18.2C16,44,2,36.3,2,27.7V6.9c1.8,0.6,3.6,1,5.6,1
		c4.7,0,9.1-1.9,12.2-5.4c3.1,3.4,7.5,5.4,12.2,5.4c1.9,0,3.8-0.3,5.6-1V27.7z"/>
	<path clip-path="url(#SVGID_2_)" fill="#1E2C41" d="M19.8,12.4c-6,0-10.9,4.9-10.9,10.9s4.9,10.9,10.9,10.9s10.9-4.9,10.9-10.9
		S25.8,12.4,19.8,12.4 M19.8,32.2c-4.9,0-8.9-4-8.9-8.9s4-8.9,8.9-8.9s8.9,4,8.9,8.9S24.7,32.2,19.8,32.2"/>
	<path clip-path="url(#SVGID_2_)" fill="#1E2C41" d="M24.1,18.9l-6.7,6.7l-1.9-1.9c-0.4-0.4-1-0.4-1.4,0s-0.4,1,0,1.4l2.6,2.6
		c0.2,0.2,0.4,0.3,0.7,0.3s0.5-0.1,0.7-0.3l7.4-7.4c0.4-0.4,0.4-1,0-1.4C25.1,18.5,24.5,18.5,24.1,18.9"/>
	<line clip-path="url(#SVGID_2_)" fill="#1E2C41" x1="0.7" y1="5.9" x2="0.7" y2="29.2"/>
</g>
</svg>
