<?xml version="1.0" encoding="utf-8"?>
<!-- Generator: Adobe Illustrator 17.1.0, SVG Export Plug-In . SVG Version: 6.00 Build 0)  -->
<!DOCTYPE svg PUBLIC "-//W3C//DTD SVG 1.1//EN" "http://www.w3.org/Graphics/SVG/1.1/DTD/svg11.dtd">
<svg version="1.1" id="Layer_1" xmlns="http://www.w3.org/2000/svg" xmlns:xlink="http://www.w3.org/1999/xlink" x="0px" y="0px"
	 viewBox="0 0 49.5 50.8" enable-background="new 0 0 49.5 50.8" xml:space="preserve">
<g>
	<path fill="#3ED2FF" stroke="#1E2C41" stroke-width="2" stroke-miterlimit="10" d="M47,13.7c0,0-1.5-7.2-8-9.7
		c-3.1-1.2-8.7-1.7-14.2-1.8c-5.5,0-11.1,0.6-14.2,1.7c-6.5,2.5-8,9.7-8,9.7c-1,4.1-1.3,8.2-1.3,11.8c0,3.6,0.2,7.8,1.3,11.8
		c0,0,1.5,7.2,8,9.7c3.1,1.2,8.7,1.7,14.2,1.8c5.5,0,11.1-0.6,14.2-1.8c6.5-2.5,8-9.7,8-9.7c1-4.1,1.3-8.2,1.3-11.8
		C48.3,21.9,48,17.7,47,13.7z"/>
</g>
<circle fill="#FB7901" cx="22.8" cy="22.9" r="7.8"/>
<path fill="#1E2C41" d="M37.4,35.2l-6.8-6.8c1.2-1.5,1.9-3.5,1.9-5.5c0-5-4.1-9.1-9.1-9.1s-9.1,4.1-9.1,9.1s4.1,9.1,9.1,9.1
	c2.1,0,4-0.7,5.5-1.9l6.8,6.8c0.2,0.2,0.5,0.3,0.8,0.3c0.3,0,0.6-0.1,0.8-0.3C37.8,36.4,37.8,35.7,37.4,35.2z M23.4,29.7
	c-3.7,0-6.8-3-6.8-6.8s3-6.8,6.8-6.8s6.8,3,6.8,6.8S27.2,29.7,23.4,29.7z"/>
<path fill="#1E2C41" d="M22.2,18.3c-0.1,0-0.2,0-0.3,0c-0.6,0-1.1,0.6-1.1,1.2c0,0.6,0.6,1.1,1.2,1.1c0.1,0,0.1,0,0.2,0
	c1.6,0,2.8,1.2,2.9,2.8c0,0.6,0.5,1.1,1.1,1.1c0,0,0,0,0.1,0c0.6,0,1.1-0.6,1.1-1.2C27.2,20.4,24.9,18.3,22.2,18.3z"/>
</svg>
