<?xml version="1.0" encoding="utf-8"?>
<!-- Generator: Adobe Illustrator 17.1.0, SVG Export Plug-In . SVG Version: 6.00 Build 0)  -->
<!DOCTYPE svg PUBLIC "-//W3C//DTD SVG 1.1//EN" "http://www.w3.org/Graphics/SVG/1.1/DTD/svg11.dtd">
<svg version="1.1" id="Layer_1" xmlns="http://www.w3.org/2000/svg" xmlns:xlink="http://www.w3.org/1999/xlink" x="0px" y="0px"
	 viewBox="0 0 60 49" enable-background="new 0 0 60 49" xml:space="preserve">
<g>
	<defs>
		<rect id="SVGID_1_" width="60" height="49"/>
	</defs>
	<clipPath id="SVGID_2_">
		<use xlink:href="#SVGID_1_"  overflow="visible"/>
	</clipPath>
	<path clip-path="url(#SVGID_2_)" fill="#3ED2FF" d="M17.4,4c-0.5,0.2-9.6,7.3-9.6,7.3L3.1,19l-2.2,8l0.7,9.5l3.5,9.1l2.7,2.9
		l36.3-0.7h8.6l4-5.6L59.3,30l-2.9-12.3L48.2,6.9L36,1.5H25L17.4,4z"/>
	<path clip-path="url(#SVGID_2_)" fill="#FB7901" d="M38.7,20.7c-0.4-0.1-10.9,6.5-11.2,6.3c-0.3-0.2-1.5,3-1.5,3l1,3l3,1.1l3.4-1.5
		l4.3-8l1.7-3.8L38.7,20.7z"/>
	<path clip-path="url(#SVGID_2_)" fill="#FB7901" d="M21,37.7v6.6c0,0,17.6,0.3,17.7,0c0.2-0.3,0-5.8,0-5.8L21,37.7z"/>
	<path clip-path="url(#SVGID_2_)" fill="#1E2C41" d="M39,45H21c-0.6,0-1-0.4-1-1v-6c0-0.6,0.4-1,1-1h18c0.6,0,1,0.4,1,1v6
		C40,44.6,39.6,45,39,45 M22,43h16v-4H22V43z"/>
	<path clip-path="url(#SVGID_2_)" fill="#1E2C41" d="M9,31H1c-0.6,0-1-0.4-1-1c0-0.6,0.4-1,1-1h8c0.6,0,1,0.4,1,1
		C10,30.6,9.6,31,9,31"/>
	<path clip-path="url(#SVGID_2_)" fill="#1E2C41" d="M59,31h-8c-0.6,0-1-0.4-1-1c0-0.6,0.4-1,1-1h8c0.6,0,1,0.4,1,1
		C60,30.6,59.6,31,59,31"/>
	<path clip-path="url(#SVGID_2_)" fill="#1E2C41" d="M30,10c-0.6,0-1-0.4-1-1V1c0-0.6,0.4-1,1-1c0.6,0,1,0.4,1,1v8
		C31,9.6,30.6,10,30,10"/>
	<path clip-path="url(#SVGID_2_)" fill="#1E2C41" d="M30,35c-0.4,0-0.8,0-1.2-0.1c-1.8-0.4-3.3-1.9-3.7-3.7
		c-0.5-2.3,0.6-4.6,2.7-5.7c0.6-0.3,1.2-0.6,1.7-0.8c1.7-0.8,3.5-1.7,5.2-2.7l4.8-2.9c0.4-0.2,0.9-0.2,1.2,0.2
		c0.3,0.3,0.4,0.8,0.1,1.2L38,25.3c-1,1.7-1.9,3.5-2.7,5.2c-0.3,0.6-0.5,1.2-0.8,1.7C33.6,33.9,31.9,35,30,35 M37.1,22.9l-1.3,0.8
		c-1.7,1-3.6,1.9-5.4,2.8c-0.6,0.3-1.2,0.5-1.7,0.8h0c-1.3,0.6-1.9,2-1.6,3.4c0.2,1.1,1.1,2,2.2,2.2c1.4,0.3,2.8-0.3,3.4-1.6
		c0.3-0.6,0.5-1.1,0.8-1.7c0.8-1.8,1.7-3.6,2.8-5.4L37.1,22.9z M28.2,26.4L28.2,26.4L28.2,26.4z"/>
	<path clip-path="url(#SVGID_2_)" fill="#1E2C41" d="M12.3,13.3c-0.3,0-0.5-0.1-0.7-0.3l-2.8-2.8c-0.4-0.4-0.4-1,0-1.4
		c0.4-0.4,1-0.4,1.4,0l2.8,2.8c0.4,0.4,0.4,1,0,1.4C12.8,13.2,12.6,13.3,12.3,13.3"/>
	<path clip-path="url(#SVGID_2_)" fill="#1E2C41" d="M47.7,13.3c-0.3,0-0.5-0.1-0.7-0.3c-0.4-0.4-0.4-1,0-1.4l2.8-2.8
		c0.4-0.4,1-0.4,1.4,0c0.4,0.4,0.4,1,0,1.4L48.4,13C48.2,13.2,47.9,13.3,47.7,13.3"/>
	<path clip-path="url(#SVGID_2_)" fill="#1E2C41" d="M7,21.3c-0.1,0-0.3,0-0.4-0.1l-3.7-1.6c-0.5-0.2-0.7-0.8-0.5-1.3
		c0.2-0.5,0.8-0.7,1.3-0.5l3.7,1.6c0.5,0.2,0.7,0.8,0.5,1.3C7.7,21.1,7.3,21.3,7,21.3"/>
	<path clip-path="url(#SVGID_2_)" fill="#1E2C41" d="M56.7,42.3c-0.1,0-0.3,0-0.4-0.1l-3.7-1.6c-0.5-0.2-0.7-0.8-0.5-1.3
		c0.2-0.5,0.8-0.7,1.3-0.5l3.7,1.6c0.5,0.2,0.7,0.8,0.5,1.3C57.5,42,57.1,42.3,56.7,42.3"/>
	<path clip-path="url(#SVGID_2_)" fill="#1E2C41" d="M39.7,8c-0.1,0-0.3,0-0.4-0.1c-0.5-0.2-0.7-0.8-0.5-1.3l1.6-3.7
		c0.2-0.5,0.8-0.7,1.3-0.5c0.5,0.2,0.7,0.8,0.5,1.3l-1.6,3.7C40.5,7.7,40.1,8,39.7,8"/>
	<path clip-path="url(#SVGID_2_)" fill="#1E2C41" d="M20.6,7.8c-0.4,0-0.8-0.2-0.9-0.6l-1.5-3.7c-0.2-0.5,0-1.1,0.5-1.3
		c0.5-0.2,1.1,0,1.3,0.5l1.5,3.7c0.2,0.5,0,1.1-0.5,1.3C20.8,7.8,20.7,7.8,20.6,7.8"/>
	<path clip-path="url(#SVGID_2_)" fill="#1E2C41" d="M53.2,21.6c-0.4,0-0.8-0.2-0.9-0.6c-0.2-0.5,0-1.1,0.5-1.3l3.7-1.5
		c0.5-0.2,1.1,0,1.3,0.5c0.2,0.5,0,1.1-0.5,1.3l-3.7,1.5C53.4,21.5,53.3,21.6,53.2,21.6"/>
	<path clip-path="url(#SVGID_2_)" fill="#1E2C41" d="M3.1,41.9c-0.4,0-0.8-0.2-0.9-0.6c-0.2-0.5,0-1.1,0.5-1.3l3.7-1.5
		c0.5-0.2,1.1,0,1.3,0.5c0.2,0.5,0,1.1-0.5,1.3l-3.7,1.5C3.4,41.9,3.3,41.9,3.1,41.9"/>
	<path clip-path="url(#SVGID_2_)" fill="#1E2C41" d="M52.7,49H7.3c-0.3,0-0.6-0.1-0.8-0.4C2.2,43.3,0,36.8,0,30C0,13.5,13.5,0,30,0
		s30,13.5,30,30c0,6.8-2.2,13.3-6.5,18.6C53.3,48.9,53,49,52.7,49 M7.8,47h44.5C56,42.1,58,36.2,58,30C58,14.6,45.4,2,30,2
		C14.6,2,2,14.6,2,30C2,36.2,4,42.1,7.8,47"/>
</g>
</svg>
