<?xml version="1.0" encoding="utf-8"?>
<!-- Generator: Adobe Illustrator 17.1.0, SVG Export Plug-In . SVG Version: 6.00 Build 0)  -->
<!DOCTYPE svg PUBLIC "-//W3C//DTD SVG 1.1//EN" "http://www.w3.org/Graphics/SVG/1.1/DTD/svg11.dtd">
<svg version="1.1" id="Layer_1" xmlns="http://www.w3.org/2000/svg" xmlns:xlink="http://www.w3.org/1999/xlink" x="0px" y="0px"
	 viewBox="0 0 52.2 36.6" enable-background="new 0 0 52.2 36.6" xml:space="preserve">
<g>
	<defs>
		<rect id="SVGID_1_" y="0" width="52.2" height="36.6"/>
	</defs>
	<clipPath id="SVGID_2_">
		<use xlink:href="#SVGID_1_"  overflow="visible"/>
	</clipPath>
	<path clip-path="url(#SVGID_2_)" fill="#3ED2FF" d="M0.9,7.4v25.5L1.6,36l43.9-0.2c0,0,0.4-5.2,0.8-5.2c0.3,0,4.8-0.6,4.8-0.6V3
		l-0.8-2L6.7,1.4L6.3,6.4l-5,0.1L0.9,7.4z"/>
	<path clip-path="url(#SVGID_2_)" fill="#FB7901" d="M33.5,20.8c0,5.4-4.4,9.9-9.9,9.9c-5.4,0-9.9-4.4-9.9-9.9s4.4-9.9,9.9-9.9
		C29,10.9,33.5,15.3,33.5,20.8"/>
	<path clip-path="url(#SVGID_2_)" fill="#1E2C41" d="M21.4,23c-0.4,0.4-0.8,0.9-1.2,1.3c0.8,0.7,1.8,1,2.8,1.1v1
		c0,0.3,0.2,0.5,0.5,0.5c0.3,0,0.5-0.2,0.5-0.5v-1c1.3-0.1,2.6-0.9,2.6-2.5c0-1.7-1.4-2.2-2.6-2.5v-1.9c0.5,0,1.1,0.2,1.4,0.6
		c0.4-0.4,0.8-0.8,1.1-1.3c-0.7-0.6-1.7-0.9-2.6-0.9v-0.6c0,0,0,0,0-0.1v-0.2h-0.1c-0.1-0.1-0.2-0.2-0.4-0.2c-0.2,0-0.3,0.1-0.4,0.2
		h0v0c0,0.1-0.1,0.1-0.1,0.2V17c-1.2,0.1-2.5,0.9-2.5,2.4c0,1.6,1.2,2.1,2.5,2.4v2C22.5,23.8,21.8,23.5,21.4,23 M24,22.1
		c0.4,0.1,0.8,0.4,0.8,0.9c0,0.5-0.3,0.8-0.8,0.9V22.1z M22.3,19.3c0-0.5,0.3-0.7,0.7-0.8v1.6C22.6,20,22.3,19.7,22.3,19.3"/>
	<path clip-path="url(#SVGID_2_)" fill="#1E2C41" d="M50.2,0H7.6c-2,0-2.2,1.3-2.2,1.7v3.8H2.1C0.2,5.4,0,7.1,0,7.5V35
		c0,0.5,0.3,1.6,2.1,1.6h43.2c0.5,0,1.6-0.3,1.6-2v-3.4h3.5c0,0,1.9,0.1,1.9-2V2.5C52.2-0.1,50.2,0,50.2,0 M44.8,29.2v5.4H2V22h10.8
		c0.5,5.4,5.1,9.7,10.6,9.7c5.5,0,10.1-4.2,10.6-9.7h10.8V29.2z M14.8,21c0-4.8,3.9-8.7,8.7-8.7c4.8,0,8.7,3.9,8.7,8.7
		c0,4.8-3.9,8.7-8.7,8.7C18.6,29.7,14.8,25.8,14.8,21 M44.8,20H34c-0.5-5.4-5.1-9.7-10.6-9.7c-5.5,0-10.1,4.2-10.6,9.7H2V7.4h5.4
		h37.4V20z M50.2,29.2h-3.4v-12h3.4V29.2z M50.2,15.1h-3.4V7.6c0-2.2-2-2.2-2-2.2H7.4V2h42.8L50.2,15.1L50.2,15.1z"/>
</g>
</svg>
