<?xml version="1.0" encoding="utf-8"?>
<!-- Generator: Adobe Illustrator 17.1.0, SVG Export Plug-In . SVG Version: 6.00 Build 0)  -->
<!DOCTYPE svg PUBLIC "-//W3C//DTD SVG 1.1//EN" "http://www.w3.org/Graphics/SVG/1.1/DTD/svg11.dtd">
<svg version="1.1" id="Layer_1" xmlns="http://www.w3.org/2000/svg" xmlns:xlink="http://www.w3.org/1999/xlink" x="0px" y="0px"
	 viewBox="0 0 4275.9 617.9" enable-background="new 0 0 4275.9 617.9" xml:space="preserve">
<g>
	<defs>
		<rect id="SVGID_1_" width="4275.9" height="617.9"/>
	</defs>
	<clipPath id="SVGID_2_">
		<use xlink:href="#SVGID_1_"  overflow="visible"/>
	</clipPath>
	<path clip-path="url(#SVGID_2_)" fill="#FFFFFF" d="M505.7,610.5c-0.6-0.7-0.9-1.5-1.1-2.3c-9.8-2.9-17.8-8.3-22.6-17.4
		c-21.9-42.2-46.9-83.4-58.7-128.5H133c-2.8,0-10.7,6.8-23.4,20.3c-12.8,13.6-26.6,29-41.5,46.5c-14.9,17.4-28.9,34.7-42,51.7
		c-13.1,17-21.8,29.4-26.1,37.2h511.3C509.5,615.4,507.6,612.9,505.7,610.5"/>
	<path clip-path="url(#SVGID_2_)" fill="#FC7901" d="M801.9,357.6c-6-20.9-15.3-40.5-27.7-58.7c-12.4-18.2-28.4-33.3-47.9-45.3
		c-11.1-6.8-23.3-11.7-36.8-14.6c-12.7-0.1-25.3-0.2-37.9,0.1c-33.1,0.7-66.4-0.7-99.3,1.6c-24.4,1.7-43.6,20.8-44.3,41.7
		c-1.1,30-15.2,54.1-37.5,77.4c-8.1,8.5-15.7,17.4-22,26.9h106.1c7.1,0,11.9,3.3,14.4,9.9c2.5,6.6,3.7,13,3.7,19.2v13.9
		c0,7.8-1.1,15.1-3.2,22.1s-9.6,10.5-22.3,10.5H431.4c3.5,16.2,11.7,31.5,25.4,44.8c8.2,8,17,15.9,23.2,25c5.1,7.5,8.7,16.5,9.5,25
		c1.6,18.1,8.5,25.9,30.1,31.8c15.2,4.2,29.8,9.7,44.7,14.7c-0.5,2.2-1,4.3-1.6,6.5c-3.2,0.5-6.5,1.2-9.7,1.8
		c0.7,0.4,1.4,0.9,2.1,1.3c2.2,1.5,4.2,3.1,6.1,4.8h70c22.7,0,44.9-6.4,66.5-19.2c21.6-12.8,40.8-28.8,57.5-48.2
		c16.7-19.4,30.2-40.5,40.4-63.3c10.3-22.8,15.4-44.3,15.4-64.5v-7C811,397.9,808,378.5,801.9,357.6"/>
	<path clip-path="url(#SVGID_2_)" fill="#FFFFFF" d="M447,366c1.2-1.1,2.4-2.3,3.9-3.2c35.2-21.7,49.8-50.3,43.8-86.8
		c-2.7-16.6,1.3-31.3,11.3-42.5h-70c-0.7,0-4.3-1.3-10.6-4.1c-6.4-2.7-11.4-5.6-14.9-8.7c-2.1-1.5-4.8-3.7-8-6.4
		c-3.2-2.7-4.8-4.5-4.8-5.2v-5.8c0-7,3.2-16.3,9.6-27.9c6.4-11.6,14.5-17.4,24.5-17.4h421.3c31.2-26.3,59.2-52.7,84.1-79
		c24.8-26.3,47.2-52.7,67-79H353.1C329,0,305,7.2,281.3,21.5c-23.8,14.3-45,32.2-63.8,53.5c-18.8,21.3-34,43.8-45.8,67.4
		s-17.5,44.7-17.5,63.3c0,20.2,3.9,40.7,11.7,61.6c7.8,20.9,19,40.1,33.5,57.5c14.5,17.4,32.1,31.8,52.7,43
		c20.6,11.2,43.6,16.8,69.2,16.8h109.6C435,378.1,440.4,372,447,366"/>
	<path clip-path="url(#SVGID_2_)" fill="#FFFFFF" d="M2069,229.3l29.2-72.4h392.6c7.1,0,18.1-6.2,33-18.6
		c14.9-12.4,30.3-27.1,46.3-44.2c16-17,30.9-34.3,44.7-51.7C2628.5,25,2638.3,10.8,2644,0h-727.8l-52.4,131.2
		c55.5,25.2,111,50.3,165.6,76.6C2043,214.4,2056.1,221.7,2069,229.3"/>
	<path clip-path="url(#SVGID_2_)" fill="#FFFFFF" d="M2166.7,278.5c69.4,4.6,139,8.3,208.5,12.5l65.6-56.5H2146L2117,260
		c5,2.9,10,5.7,15,8.5C2142,274,2154.8,277.7,2166.7,278.5"/>
	<path clip-path="url(#SVGID_2_)" fill="#FC7901" d="M2283.9,303c-51.1-0.9-102.2-1.3-153.2-3c-10.1-0.3-20.8-4.7-29.7-9.3
		c-3.9-2.1-7.9-4.2-11.8-6.2l-64.6,56.9l30.3-75.2c-45.4-24.5-90.6-49.4-137.1-72.3c-21.7-10.7-43.5-21.4-65.6-31.6l-181.9,455.7
		H2312c0.7,0,6-3.9,16-11.6c9.9-7.8,21.3-17.2,34-28.5c12.8-11.2,25.7-23,38.8-35.5c13.1-12.4,23.6-23.2,31.4-32.5
		c0.7-0.8,2.8-3.5,6.4-8.1c3.5-4.6,7.1-9.7,10.6-15.1c3.5-5.4,6.9-10.7,10.1-15.7c3.2-5,5.1-8.3,5.9-9.9h-488.4l27.7-69.7h254.3
		l95.8-82.6c-19.9-1.8-39.8-3.6-59.7-5.5C2291.3,302.9,2287.6,303.1,2283.9,303"/>
	<path clip-path="url(#SVGID_2_)" fill="#FFFFFF" d="M2793.5,355.7c24.1,6.6,47.4,15.6,69.9,25.3c4.5,1.9,8.5,5.3,11.8,9.2h181.4
		l182-156.9h-294.7l-121.3,106.9l73.4-182.4h392.6c7.1,0,18.1-6.2,33-18.6c14.9-12.4,30.3-27.1,46.3-44.2c16-17,30.9-34.3,44.7-51.7
		c13.8-17.4,23.6-31.6,29.3-42.4H2714l-123.1,308.5c22.2,3.6,44.4,7.7,66.3,12.4C2703.1,331.7,2748.5,343.3,2793.5,355.7"/>
	<path clip-path="url(#SVGID_2_)" fill="#FFFFFF" d="M2937.9,461c0.1,2.3,0,4.7-0.4,7.1c-4.9,33.5-10.5,67-17.5,100.2
		c-1,4.8-2.2,9.1-3.7,13.1c2.3,0.7,4,2.9,2.9,5.8c-3.8,10.7-8.6,20.9-14.3,30.6h205.8c0.7,0,6-3.9,16-11.6
		c9.9-7.8,21.3-17.2,34-28.5c12.8-11.2,25.7-23,38.8-35.5c13.1-12.4,23.6-23.2,31.4-32.5c0.7-0.8,2.8-3.5,6.4-8.1
		c3.5-4.6,7.1-9.7,10.6-15.1c3.5-5.4,6.9-10.7,10.1-15.7c3.2-5,5.1-8.3,5.9-9.9H2937.9z"/>
	<path clip-path="url(#SVGID_2_)" fill="#FC7901" d="M2915.5,461h-140.8l27.7-69.7h18.4c-1.6-0.5-3.3-1.1-4.9-1.5
		c-62.2-17-124.1-35.8-187.7-48.4c-15.3-3-30.8-5.6-46.4-7.9l-113.5,284.3h285.6c1.9-3.2,3.9-6.3,6-9.3c-1.9-1.8-3.7-3.9-5.6-5.4
		c5.4-2.2,10.6-6,16.1-6.4c39.4-2.8,78.8-5,121.8-7.5c-14.6-26.8-2.4-47.7,3.6-68.8c4.8-17,11.7-33.6,18.3-50.2
		C2915.5,466.7,2916.1,463.7,2915.5,461"/>
	<polygon clip-path="url(#SVGID_2_)" fill="#FFFFFF" points="4033.3,0 3893.9,346.3 3821.5,0 3511.9,0 3266.1,615.9 3510.9,615.9 
		3649.2,269.6 3720.5,615.9 4029,615.9 4275.9,0 	"/>
	<path clip-path="url(#SVGID_2_)" fill="#FC7901" d="M2904.8,436.3c-16.5-6.4-24.3-17.3-31.3-30.1c-3.9-7.1-10.3-15.1-18.3-18.5
		c-22.2-9.5-45.2-18.2-68.8-24.7c-44.3-12.1-89-23.4-134.2-33c-37.6-8-75.8-14.3-114.2-18.9c-39.8-4.8-80-7.1-120.1-9.6
		c-82.8-5.1-165.7-9.3-248.4-14.8c-11.7-0.8-24.3-4.4-34.2-9.7c-34.1-18.5-65.8-40.3-101-57.1c-75.2-35.9-152.1-69.4-228.3-104
		c-43.2-19.6-89.7-31.9-138.4-33.8c-74.9-2.9-149.9-4.6-224.9-5.8c0,0,0,0,0,0s-180.9-12.1-276.6,14.3c0,0,0,0-0.1,0
		c-32.7,6.4-64.4,15.7-95.6,26.4c-76.5,26.3-151.3,55.8-227.8,82c-72.6,24.8-148.6,31-226.9,23.6c-23.6-2.2-49.7-1.4-71.8,4.8
		c-31.5,8.8-46.4,31-41.8,59c5.8,35.6-8.5,63.4-43.1,84.5c-1.4,0.9-2.6,2-3.8,3.1c-21.5,19-30,40.8-26.3,67.1
		c7.5,53.9,37.2,101.1,62.7,149.7c7.1,13.6,21.8,18.6,38.6,19.8c13.5,1,27.1,1.7,40.7,1.7c6.6,0,13.1-1.8,19.7-2.8
		c0.5-2.1,1-4.2,1.5-6.3c-14.6-4.8-29-10.2-44-14.3c-21.3-5.8-28.1-13.4-29.6-31c-0.7-8.3-4.3-17.1-9.3-24.4
		c-6.1-8.8-14.7-16.5-22.8-24.3c-19.2-18.4-27.3-40.5-27-63.6c0.4-30.5,18.5-56.8,40.5-79.7c21.9-22.7,35.8-46.2,36.9-75.4
		c0.8-20.3,19.7-38.9,43.6-40.6c32.4-2.3,65.2-0.9,97.8-1.6c39.8-0.8,80.5,2,119.1-4.1c65.5-10.4,124.8-35,184.1-59.3L808.7,617.9
		h244.7l89.4-223.1h358.6c29.1,0,59.4-5.4,91-16.3c31.6-10.8,60.5-26.1,86.7-45.9s47.9-43.2,64.9-70.3c17-27.1,25.5-56.9,25.5-89.5
		c0-11.1-1-23.3-3-36.5c55.2,18.2,106.9,43.1,158,68.1c61.3,29.9,120.1,63.1,180.4,94.4c8.7,4.5,19.3,8.8,29.2,9.1
		c50.2,1.7,100.5,2.1,150.8,3c3.6,0.1,7.2-0.2,10.7,0.2c50.5,4.7,101,8.8,151.3,14.4c59.1,6.6,118.8,11.5,176.7,22.8
		c62.6,12.2,123.5,30.5,184.8,47.1c21.1,5.7,36.1,17.5,43.1,36.2c2.4,6.2,11.8,11.4,19.3,15.4c7.7,4.1,17,6.4,25.7,9.2
		c10.5,3.4,12,9.3,8.6,17.6c-6.5,16.2-13.3,32.3-18,48.9c-5.9,20.5-17.9,40.9-3.5,67c-42.3,2.5-81.1,4.6-119.8,7.3
		c-5.5,0.4-10.6,4.1-15.9,6.2c4.2,3.3,8.1,9.2,12.7,9.6c26.7,2.4,53.5,4.8,80.3,4.7c42.9-0.3,61.7-13.6,69.2-48.2
		c7-32.4,12.5-65,17.3-97.6C2929.4,456.4,2922.3,443,2904.8,436.3 M1523.7,197.2c-0.7,2.3-2.7,5.6-5.9,9.9
		c-3.2,4.3-6.6,8.7-10.1,13.4c-3.5,4.7-6.7,8.7-9.6,12.2c-2.8,3.5-4.6,5.2-5.3,5.2h-204.3l-122.4,98.8l70.2-176.6h261.7
		c1.4,0,5.3,3.3,11.7,9.9c6.4,6.6,11,11.8,13.8,15.7c0.7,3.1,1.4,5,2.1,5.8L1523.7,197.2z"/>
	<path clip-path="url(#SVGID_2_)" fill="#FFFFFF" d="M1746.2,81.8c-2.8-6.5-5.9-12.8-9.4-19c-2.1-3.6-4.3-7.1-6.7-10.5
		c-8.9-12.5-19.9-23.3-33.2-32.5c-16.9-11.7-38.3-17.6-64.3-17.6H1056l-7.6,16.1l-30.8,72.6l-16.3,38.5
		c170.4-62,271.3-63.6,271.3-63.6h123l166.5,5c154-4,187.5,18.5,187.5,18.5C1749.1,87.8,1747.8,85.1,1746.2,81.8"/>
</g>
</svg>
