<?xml version="1.0" encoding="utf-8"?>
<!-- Generator: Adobe Illustrator 19.0.0, SVG Export Plug-In . SVG Version: 6.00 Build 0)  -->
<svg version="1.1" id="_x3F__x3F__x3F__x3F__1" xmlns="http://www.w3.org/2000/svg" xmlns:xlink="http://www.w3.org/1999/xlink"
	 x="0px" y="0px" viewBox="0 0 355.7 193.7" style="enable-background:new 0 0 355.7 193.7;" xml:space="preserve">
<style type="text/css">
	.st0{fill-rule:evenodd;clip-rule:evenodd; fill:#231f20;}
	.st1{fill-rule:evenodd;clip-rule:evenodd;fill:#FFDD00;}
</style>
<path class="st0" d="M21.4,68.1c-1,1.1-1.9,2.1-2.8,2.8l-1.2,1H6.9l-1-3.2c-0.8-2.6-1.5-5.4-2-8.1c-1.4-6.9-2.3-13.9-2.8-20.9
	c-0.5-8.2,2.8-15.2,10.9-17.8c2.7-0.9,6.3-1.2,9.3-0.9v15.7c-1.4,0-2.2,0.1-2.3,1.6c-0.2,2.2-0.3,4.5-0.3,6.7c0.9-1.3,1.7-2.7,2.6-4
	V68.1L21.4,68.1z M21.4,160.6c-8.8-4.1-16.9-11-20-19.7c-1.6-4.5-1.8-9.4-0.8-14.1c2.3-11.1,10.6-19.7,20.8-19.5v15.9
	c-1.1,0-2.5,0.3-3.4,0.8c-3.3,3.3-4.2,7.2-3.5,11.1h3c1.3,0,2.6,0,3.9,0V160.6L21.4,160.6z M65.3,157.4v-52.6
	c-0.3-0.8-0.7-1.7-1-2.5c-1.2-2.7-2.7-5.5-4.3-8c1.4,1,2.7,2.2,3.9,3.4c0.5,0.5,1,1.1,1.4,1.7V81.1l-0.1-0.1l0.1-0.2V53l-0.4,0.7
	c-0.2,0.4-0.4,0.7-0.6,1.1c0.8-2.9,1-5.7,0.2-8.3l-1.1-3.9l-4,0.7C53,44.3,47.8,43.2,42,40.7c-2.4-1-5-2.3-7.6-3.3
	c4.7,0.1,9.5-0.1,14.1-0.8c5.9-0.9,11.9-2.8,16.8-6.4V9l-2.7,3.1c-0.9,1.1-1.6,2-2.7,3C58.2,16.8,56.2,18,54,19
	c-9.2,4.3-21.5,3.7-31.3,2.2c-0.4-0.1-0.9-0.1-1.3-0.2v15.7l0.3,0c0.8,0,1.5,0.1,2.3,0.1l-0.9,1.5c-0.6,0.9-1.1,1.8-1.7,2.7v27.1
	c1.8-2.1,3.6-4.5,4.9-6.3c1.9-2.5,3.7-5.1,5.5-7.7c2.2,0.2,4.7,0.8,6.5,1.2c2.4,0.5,5.2,0.9,8,1.1c-0.7,1.7-1.4,3.3-2.2,4.7
	c-3.7,7.2-9,13.5-15.7,18l-0.3,0.2l-0.3,0.3c-1.4,1.4-1.8,3.5-1,5.4c0.6,1.4,1.8,2.3,3.1,3c6.1,3.1,14.5,10.5,17.8,16.6
	c2,3.6,3.1,7.6,3.5,11.6c0.8,7.4-0.7,17.9-6.9,22.9c-1.2,0.9-2.5,1.6-3.9,1.9c0.9-1,1.6-2.2,2.2-3.5c2.2-4.7,2.1-10.1,0.2-14.8
	c-2.2-5.5-6.6-9.8-11.7-12.7c-3.4-1.9-6.7-2.7-9.8-2.8v15.9c0.3,0,0.7,0,0.9,0c2.8,0.3,4.5,2.5,5.6,4.9c0.4,1,1.7,4.1,0.8,5.2
	c-0.9,1.1-3.8,1.5-5.1,1.6c-0.8,0.1-1.6,0.1-2.3,0.2v25.5c3.3,1.5,6.6,2.7,9.9,3.3C43.8,166.6,55.3,163.7,65.3,157.4L65.3,157.4z
	 M72.8,39.6v35.5l-2.6-0.2c-1.6,2.2-3.2,4.2-4.9,6V53c1.9-3.1,3.7-6.3,5.5-9.5C71.3,42.5,72.1,40.9,72.8,39.6L72.8,39.6z M65.3,9
	l0.4-0.4l3.4,3.1c1.2,1.1,2.5,2.3,3.7,3.5v23.3c-0.3-0.4-0.6-0.8-0.8-1.1c-1.2-1.6-2.4-3.2-3.7-4.7c-0.7-0.9-1.6-1.9-2.4-2.8
	c-0.2,0.1-0.4,0.3-0.6,0.4V9L65.3,9z M72.8,151.9c-2.4,2.1-4.9,3.9-7.5,5.5v-52.6c3.5,9.2,4.6,20.5,1.2,29.8
	c0.1-0.2,0.2-0.4,0.3-0.6c3.5-5.9,4.1-12.6,3.7-19.2c-0.3-5.1-2-11.1-5.2-15.4V81.1c1.5,0.8,3,1.6,4.4,2.5c1.1,0.7,2.1,1.4,3.1,2.2
	V151.9L72.8,151.9z M82,154.3v-59c-0.5-0.7-1-1.3-1.5-2l1.5,0.3V59.7c-2.2,2.8-4.5,5.3-6.4,6.9c2.3-3.9,4.5-8,6.4-12V27.1
	c-1.5-2.2-3.1-4.3-4.6-6.5c-1.3-1.8-2.9-3.7-4.6-5.4v23.3c0.1,0.1,0.2,0.3,0.3,0.4c-0.1,0.2-0.2,0.4-0.3,0.7v35.5l7.6,0.7l-0.2,11
	l0,0l-0.1,6.1c-2.2-2.6-4.6-4.9-7.3-7v66.1c1.3-1.1,2.5-2.3,3.7-3.5C78.2,150.5,80.1,152.5,82,154.3L82,154.3z M107.6,164.4
	c-9.8,0.8-18.5-3.5-25.6-10.1v-59c0.6,0.8,1.2,1.6,1.7,2.4c1.3-0.9,2.7-1.7,4.1-2.5c-1.3-0.6-2.6-1-3.9-1.2L82,93.6V59.7
	c2.9-3.7,5.5-8,6.4-11.6c-0.9-0.5-1.8-1.1-2.6-1.8c-1.1,2.6-2.4,5.4-3.8,8.3V27.1c0.5,0.7,1,1.5,1.5,2.2c1.6-2.5,3.9-4.7,6.1-6.5
	c3.9-3.3,7.4-7.2,9.5-11.9c0.6-1.4,1.1-2.8,1.5-4.3c0.3-1,0.4-2.1,0.7-3.1l1-3.5l3.6,0.1c0.7,0,1.3,0.2,1.8,0.4v75.2h-3.3
	c1.1,0.2,2.2,0.4,3.3,0.7v42.3c-0.5-1.3-1.1-2.5-1.8-3.7c-0.2-0.3-0.4-0.6-0.6-1c-2.5,2.5-4.3,6.1-5.2,9.2c-2,6.9-0.4,12.9,5.1,16.5
	c1-1.4,1.9-2.8,2.6-4.2V164.4L107.6,164.4z M117.3,162v-56c-1.7-2.1-3.7-4.1-5.9-5.9c0.7-0.8,1.2-1.9,1.4-3.2c0-0.2,0-0.5,0-0.7
	c1.4,1.4,2.7,2.9,3.8,4.5c0.2,0.3,0.4,0.6,0.6,0.9v-84c-2.4-2.3-4.3-4.9-5.5-8.1c-0.5-1.3-0.8-2.6-1.1-3.9c-0.4-2.1-1.1-4.2-3-5.1
	v75.2h3.3v1.7c-1.1-0.4-2.2-0.7-3.3-1v42.3c0.5,1.2,0.9,2.5,1.2,3.8c1.1,4.7,0.6,9-1.2,12.9v29.1c2-0.2,4.1-0.6,6.2-1.2
	C115,162.9,116.2,162.5,117.3,162L117.3,162z M117.3,179.1c-0.7-1.9-1-4.1-1-6.3c0-2,0.3-4.1,1-6.1V179.1L117.3,179.1z M137.4,192.9
	c-2.2-0.4-4.4-0.9-6.6-1.6c-6.5-2-11.5-6.3-13.5-12.2v-12.5c0.7-2.3,1.8-4.5,3.3-6.3c-1.1,0.6-2.1,1.2-3.3,1.6v-56
	c2.5,3.1,4.5,6.4,5.9,10c-1.2-5.3-3.2-10.3-5.9-14.3v-84c1.1,1.1,2.4,2.1,3.7,3c4.3,3,8.3,9.2,8.7,14.6l7.7-6.8v28.7
	c-2,2.3-4.2,5-5.3,7.1c-0.1,0.2-0.1,0.3-0.2,0.5c0.4,0.5,1.7,1,2.4,1.2c1.1-0.1,2.1,0.1,3.1,0.4v27.6l-5.3-0.9v0l-0.6,0.2
	c1.4,1.8,2.7,3.6,3.8,5.6c0.7-1.1,1.3-2.2,2.1-3.3v53.1c-0.8-1.2-1.5-2.5-2.2-3.8c-2.2,4.2-5.1,8-8.5,11.1c3.6-1.3,7.3-1.7,10.7-1
	v15.1c-0.4-1.3-1.1-2.7-2-3.1c-0.8-0.3-2.4,0-3.2,0.2c-1.6,0.6-2.6,1.7-3.1,3.4c-0.5,1.7-0.6,3.4,0.3,4.9l4.4-1c1.2-0.3,3-0.8,3.6-2
	V192.9L137.4,192.9z M137.4,28.4v28.7l0.4-0.4l5,14.2h-0.2c-1.1-2.3-2.9-3.9-5.2-4.6v27.6l0.7,0.1l0.7-0.7c-0.5,0.7-1,1.4-1.5,2.1
	v53.1c1.7,2.5,3.6,4.9,5.9,7.1c0.5,0.5,1.1,1,1.6,1.5V86.3c-0.5,0.6-1.1,1.1-1.6,1.7c-0.3,0.3-0.6,0.6-0.8,0.9
	c0.2-0.5,0.4-1,0.6-1.7c0.7-2.6,0.8-5.9,0.7-8.9l-0.2-4.5l-0.1-1l1.5,4.1V22.2l-0.2-0.2L137.4,28.4L137.4,28.4z M145,193.7v-34.9
	c-2.2-2.1-4.8-3.4-7.6-4v15.1c0.2,0.6,0.3,1.3,0.2,1.8c0,0.2-0.1,0.5-0.2,0.7v20.6C139.9,193.3,142.5,193.6,145,193.7L145,193.7z
	 M156.8,192.6c-3.3,0.7-6.8,1.1-10.2,1.1h-0.3c-0.4,0-0.9,0-1.3,0v-34.9c0.6,0.5,1.1,1.2,1.6,1.8c2,2.6,3.2,5.7,3.6,9
	c0.1-0.1,0.3-0.2,0.4-0.3c1.1-0.9,3.5-3.1,5.5-5.2c-4-1.7-7.9-4.2-11.1-6.9V86.3c0.8-0.8,1.6-1.7,2.5-2.5l-2.5-6.9V22.2l11.8,10
	v24.4c-0.8,0.4-1.6,0.9-2.4,1.5c0.1,0.3,0.2,0.6,0.3,0.9c0.7-0.8,1.3-1.5,2-2.3v37.9c-0.8,0.9-1.7,1.9-2.4,2.9
	c0.8-0.8,1.6-1.5,2.4-2.2V192.6L156.8,192.6z M164.4,190.3v-51.8c-3.2-4.4-4.5-9.8-4.1-15.6c0.3-4.1,1.6-9.3,4.1-13.3V70l-0.4-0.2
	c0.1-0.1,0.3-0.3,0.4-0.4V38.7l-7.6-6.5v24.4c0.1-0.1,0.2-0.1,0.3-0.1c-0.1,0.1-0.2,0.2-0.3,0.3v37.9c0.7-0.7,1.3-1.4,2-2
	c0.2,0.2,0.3,0.5,0.4,0.7c-0.8,0.6-1.6,1.3-2.4,2v97.2C159.4,192,161.9,191.3,164.4,190.3L164.4,190.3z M164.4,38.7l8.3,7.1
	c3.5,1.2,7.1,1.9,10.8,2.2v29c-0.9-0.2-1.7-0.5-2.5-0.7c-4.7-1.5-11.4-4.1-15.8-7.5c-0.2,0.3-0.5,0.5-0.7,0.8V38.7L164.4,38.7z
	 M183.4,175.9c-1.8,2.3-3.7,4.3-5.5,5.9c-4.1,3.7-8.7,6.5-13.5,8.5v-51.8c0.6,0.9,1.3,1.7,2,2.4c2.3-7.2,2.7-14.9,1.5-22.5
	c-0.6-3.4-1.4-6.9-2.7-10.1c0,0,0,0,0,0c-0.3,0.4-0.6,0.8-0.9,1.3V70l0,0c7.2,3,13.7,7.9,19.1,13.9V175.9L183.4,175.9z M206.3,158.4
	V64.6c-5.7-0.3-11.3-1.1-16.7-2.4c-0.1,0-0.1,0-0.2,0c1.5,0,2.9-0.1,4.3-0.2c4.2-0.3,8.5-0.8,12.6-1.5V45.7
	c-2.3,0.6-4.6,1.1-6.8,1.4c-5.3,0.9-10.7,1.3-16.1,0.8v29c6.3,1.7,12.9,2.7,19.5,2.8c-4,5.8-7.2,12.5-9.6,19.2
	c-2.6-5.4-5.9-10.4-9.9-14.9v91.9c6-7.5,11.2-17.6,14.1-27.5C199.9,152.2,202.8,155.6,206.3,158.4L206.3,158.4z M229.5,165.5
	c-4.2,0.4-8.5,0-12.5-1.3c-4.1-1.3-7.6-3.3-10.7-5.8V64.6c5.2,0.3,10.4,0.2,15.5-0.3c0.5-0.1,1-0.1,1.4,0c-2.2-2.1-4.2-4.3-5.8-6.3
	c-2.2,0.6-4.4,1.1-5.7,1.4c-1.8,0.4-3.6,0.8-5.5,1.1V45.7c5-1.2,10.3-3,14.5-5l4.4-2.1l1.8,4.5c0.4,1,1.4,2.4,2.5,3.9v22.8
	c-0.6-0.5-1.3-1-1.9-1.5c0.4,1.8-0.2,3.8-1.9,5c-6.6,6.1-12.5,16.9-16.1,26.6c1.6-2.6,3.3-5.2,5.3-7.6c4.2-5.2,9.2-9.8,14.5-13.8
	v21.5c-2.7,3.2-5.2,6.6-7,10l4.6-3.9c0.8-0.7,1.6-1.3,2.4-2v10.1l-9,0.1c-0.9,2.2-1.5,4.4-1.8,6.7c-0.5,3.7-0.3,7.2,0.6,10.6
	c2.9-2.6,6.5-4.3,10.2-4.9V141c-0.8,0.4-1.5,0.9-2.1,1.4c-0.1,0-0.1,0.1-0.2,0.2c0.9,0,1.4-0.1,2.3,0.3V165.5L229.5,165.5z
	 M229.5,47v22.8c2,1.6,4.1,3.1,6.1,4.4c-2.1,1.4-4.1,2.8-6.1,4.3v21.5c3.8-4.4,8.2-8.6,12.7-12.3V60.2c-2.3-2-4.4-4-6.4-6.1
	C234.4,52.7,231.6,49.7,229.5,47L229.5,47z M242.2,160.8V93.2c-4.2,3.6-8.4,7.3-12.7,10.9v10.1l11.1-0.1c0,2.2-0.2,4.5-0.4,6.5
	c-0.2,2.5-0.4,4.9-0.5,7.3c-3.2-1.4-6.8-1.8-10.2-1.2V141c1.3-0.7,2.7-1.2,3.9-1.2c1.6,0,2.4,0.9,3.1,2.2c0.9,1.7,1.2,3.5,0.1,5.2
	c-0.5,0.8-1.8,2.1-2.8,2.3c-0.3,0-0.8,0.1-1.3,0.1c0.1-0.4,0.2-0.9,0.3-1.5c0-1,0-1.4-0.5-2.4c-0.6-1.2-1.5-2.2-2.7-2.7l-0.1,0v22.6
	C234.1,165,238.5,163.5,242.2,160.8L242.2,160.8z M256.9,164.6c-4.8-0.4-8.8-2.6-11.7-6.4c-0.9,1-1.9,1.8-3,2.6V93.2
	c0.8-0.7,1.7-1.4,2.5-2.1L246,90h10.9v55.5c-1.5-3.7-2-7.9-1.4-13c0.2-2.3,0.4-4.7,0.5-7c0.1-2.4,0.2-4.8,0.3-7.1
	c0.1-1.6,0.1-3.3,0.3-4.8c0.2-1.9,0.1-4.5,0.1-6.5c0-0.9,0-1.8,0-2.7c-1,0.1-1.9,0.4-2.9,0.7c0.9,1.7,1.4,3.7,1.6,5.7
	c0.3,3.1,0.1,6.7,0,9.9c-0.2,3.4-0.4,6.9-0.7,10.3c-0.3,3.1-0.1,6.9,0.1,10c0.1,1.6,0.7,6.6,1.7,7.8c0.1,0.1,0.3,0.2,0.4,0.4V164.6
	L256.9,164.6z M256.7,70.3c0.1-0.2,0.1-0.5,0.2-0.7v12.7c-0.5-1.6-0.8-3.3-0.9-5l-0.1,0.1c-4.2,2.9-8.9,6.4-13.7,10.3V60.2
	c4.1,3.6,8.6,6.8,13.3,9.4L256.7,70.3L256.7,70.3L256.7,70.3z M256.9,69.6v12.7c0.4,1.1,0.8,2.2,1.4,3.2c1,1.8,2.2,3.3,3.6,4.5h-5
	v55.5c0.8,1.8,1.8,3.5,3.1,5c-0.4,0-0.8-0.1-1.3-0.1c-0.6-0.2-1.3-0.9-1.9-1.4v15.6c2.6,0.2,5.5-0.1,8.5-1.1
	c1.6-0.5,3.2-0.8,4.8-1.1v-28.3c-0.2,1.3-0.4,2.6-0.7,3.4c0-0.2,0-0.3,0-0.4c0.3-2.3,0.5-4.7,0.7-7.1v-75
	c-5.9,2.6-10.6,7.2-12.9,13.3C257.1,68.8,257,69.2,256.9,69.6L256.9,69.6z M270.2,55.2c0.2-0.1,0.4-0.2,0.6-0.2
	c1.9-0.8,3.8-1.4,5.7-1.9v15.3c-2.3,1-4.3,2.5-5.5,4.4c-1.3,2-0.1,4.4,1.4,5.8c1.1,1,2.6,1.7,4.1,2v81.7c-0.2,0-0.4,0-0.6,0
	c-1.9,0-3.8,0.1-5.7,0.3v-28.3c0.4-3,0.7-6.5,0.7-8.5c0-7.7,0-31.2,0-31.2v-0.2c-0.2,0-0.3-0.1-0.5-0.1l0,0.3c0,4.7,0.1,9.3,0.1,14
	c0,4.6,0.2,9.4,0,14c-0.1,2.5-0.2,5.1-0.3,7.7V55.2L270.2,55.2z M281.8,163v-14.7c-0.6-0.3-1.1-0.5-1.7-0.8c0.7-1.1,1.2-2.2,1.7-3.4
	V79.8c-0.5,0.3-1.2,0.5-1.6,0.6c-1.2,0.3-2.5,0.3-3.8,0.1v81.7c1.5,0.1,3.4,0.2,4.7,0.6C281.4,162.9,281.6,162.9,281.8,163
	L281.8,163z M276.5,53v15.3c0.4-0.2,0.7-0.3,1.1-0.4c-0.4,0.5-0.6,1.2-0.7,1.9c-0.1,0.6-0.1,1,0,1.6l0.4,2.2l1.9,1.1
	c0.7,0.4,2,1.3,2.7,2.4V52.1C280.1,52.2,278.3,52.6,276.5,53L276.5,53z M281.8,52.1c4.7-0.5,9.5,0,14.2,1.6c3.8,1.3,6.9,3.2,9.9,5.4
	V84c-3.2-1.7-6.4-1.7-9.3,0.9c0,0,0,0-0.1,0.1l0,2.9c0,0.9,0,1.8,0,2.7l0.6-0.6l8.8,0v13.5c-0.4,0.1-0.7,0.2-1.1,0.4
	c0.5,1,0.8,2,1.1,3v18.3c-0.2,1.7-0.3,3.3-0.5,5c-0.3,2.9,0,6.8,0.4,9.7c0,0.2,0,0.4,0.1,0.6v22.4c-1.2-0.3-2.3-0.7-3.4-1.2l1.2,2.3
	l-5.5,1.4c-4.8,1.3-11.6-0.9-16.4-2.4v-14.7c0.6,0.3,1.1,0.5,1.7,0.8c-0.5-2.3-0.8-4.8-1-7.2c-0.2,0.7-0.4,1.4-0.7,2.1V79.8
	c0.3-0.2,0.6-0.5,0.7-0.8c0.2-0.7-0.1-1.4-0.7-2.1V52.1L281.8,52.1z M306,59.1V84c0.4,0.2,0.8,0.4,1.1,0.7c2.7,1.8,5.4,3.6,8.3,5.3
	l-9.4,0v13.5c0.3-0.1,0.5-0.1,0.8-0.2c0,1.1,0,2.2,0,3.2c0,2,0.1,4.8,0,6.8c0-0.9,0-1.8-0.1-2.6c-0.1-1.2-0.3-2.5-0.7-3.8v18.3
	c0.1-0.8,0.2-1.6,0.2-2.4c0,0.9,0,1.8-0.1,2.7c-0.1,2.3-0.1,4.5-0.1,6.8c0,7.3,1.4,12.8,5.1,17.1c-0.3,0-0.5-0.1-0.8-0.1
	c-0.9-0.3-1.8-1.2-2.5-1.8c-0.9-1-1.6-5-1.9-7v22.4c3.9,0.9,8.3,0.8,12.9-0.7c0.6-0.2,1.1-0.3,1.7-0.5v-25.8c0,0.2-0.1,0.3-0.1,0.5
	c-0.1-0.5-0.2-1-0.3-1.3c-0.7-3.9-0.4-8.5,0-12.4c0.2-1.7,0.1-3.7,0.1-5.4c0-2.9,0-5.9-0.1-8.8c-0.1-4.7-0.1-9.3-0.2-14l0-1.8
	l0.6,0.3V74.2c-2.9-4.4-6.4-8.4-10.1-11.5C309,61.4,307.5,60.2,306,59.1L306,59.1z M320.6,74.2c2.9,4.3,5.3,9,7,13.6l0.7,1.9
	c1.8-0.4,3.6-0.9,5.3-1.7v54.5c-0.4,1.1-0.9,2.2-1.5,3.2c0.5,0.2,1,0.5,1.5,0.7v16l-0.5-0.1c-4.5-1.3-8.1-1.6-12.5-0.6v-25.8
	c0.5-3.1,0.8-7.8,0.8-10.2c0-7.7,0-31.2,0-31.2v-1.1l-0.3-0.1l-0.5-0.3V74.2L320.6,74.2z M333.6,87.9v54.5c0.2-0.5,0.4-1.1,0.5-1.7
	c0.2,2.1,0.5,4.3,1,6.3c-0.5-0.3-1-0.5-1.5-0.7v16c4.8,1.4,12.2,3.4,16.8,2.2l5.3-1.4l-2.3-4.9c-2.5-5.4-5.7-14-5.7-19.9
	c0.2-14.6-0.1-51.2-0.1-51.7V74.8l-7.9,8.7C338.1,85.4,335.9,86.9,333.6,87.9z"/>
<path class="st0" d="M42.5,145.2v6c-11.9,1.5-24.5-7.6-25-11.5c6.8,0,20.8,0.3,14.6-13.4c-5.1-11.4-15.6-7.1-17.1-5.6
	c-3.1,3.1-9.2,11.5-1.6,23.5c5.1,8.1,16.9,12.4,29.1,10.9v5.2c-18.1,0.9-33.2-10.9-36.8-20.9c-0.6-1.8-1-3.7-1.1-5.6v-2.3
	C5.2,119,15.6,106.6,28.9,114c16.2,9.2,13.6,28.5-3.2,29C31.8,146,37.7,146.7,42.5,145.2L42.5,145.2z M42.5,72.2v8.3l-0.9,1.2l0,0
	c0.3,0,0.6,0,0.9-0.1v9.8C38.3,87.7,34,85,32,84c-1.4-0.7-1-1-1-1C35.8,79.7,39.5,75.9,42.5,72.2L42.5,72.2L42.5,72.2z M42.5,26.6
	v6.2c-8.6,0.6-16.8-0.4-20.5-0.5c-4.8-0.2-7.1,2.1-7.4,5.8c-0.2,2.1-0.3,5.4-0.3,8.9c0,4.1,0.6,8.1,1.6,11.1c0,0,8.4-12.8,11.1-17.1
	c4.4-0.6,9.2,2.6,15.5,5v5.6c-1-0.1-2.1-0.3-3.2-0.6c-7-1.5-9.8-1.4-9.8-1.4S19.4,64.5,15.7,67.4h-5.5c0,0-3.5-11.1-4.6-27.9
	C4.6,22.7,22,25.7,22,25.7C30.2,27,37,27.1,42.5,26.6L42.5,26.6L42.5,26.6z M42.5,80.4C46,75.6,53.9,64.8,56,61.8
	c2.5-3.7,5.3-10,4.1-14c-7.1,1.2-12.9-0.1-17.7-1.9v5.6c5.6,0.8,10.1,0.3,10.1,0.3S50.4,62,42.5,72.2V80.4L42.5,80.4z M77.8,70.8
	L77.5,71l0.2,0V70.8L77.8,70.8z M77.8,39.4L77.8,39.4c-1.9,5.2-13.8,25.5-18.9,31.2c-5.2,5.8-9.6,10.4-16.4,11v9.8
	c3.5,3.1,7,6.9,9.3,11c7.1,12.9,5.2,32.4-4.5,40.3c-1.4,1.1-3,2-4.8,2.5v6c1.8-0.2,3.7-0.7,5.4-1.5c5.6-2.6,10.5-7.9,13.7-15
	c4.4-9.7,2.2-22.2-1.5-30.4c-6.3-14-13.7-18.5-13.7-18.5c5.5-1.2,14.3,1.9,20.8,8.9c1.5,1.6,7.1,8.3,7.8,19.9
	c0.4,6,0.2,14.3-4.3,21.8l0,0c-6.9,11.5-17.7,17.3-28.3,18.6v5.2c11-0.6,23.1-5.8,34.5-18.9c0.3,0.4,0.6,0.8,0.8,1.2V97.2
	c-8.9-11.4-18.7-13.5-21-14.9c7.5-4.7,15.4-17.8,21-29.4V39.4L77.8,39.4z M77.8,28.9L77.8,28.9c-1.5-2.2-2.9-4.1-4-5.7
	c-2.9-4-7.6-8.2-7.6-8.2c-1.5,1.7-6.7,9.9-23.6,11.6v6.2c8.7-0.6,18-2.9,23.6-9.2c3.6,3.1,10.3,11.7,11.7,14.3V28.9L77.8,28.9z
	 M77.8,53V39.4c0.2-0.6,0.3-1,0.2-1.1c0-0.1-0.1-0.3-0.2-0.5v-8.9c2,2.9,4.2,6.3,6.2,9.6C82.6,42.2,80.4,47.4,77.8,53L77.8,53z
	 M90.2,118.9c-2,5.9-1.8,12.1,0,17.6V118.9L90.2,118.9z M90.2,99v6.9c-2.6,2.4-5.1,5.9-7.1,11.2c-5.2,14.2,0.1,26,7.1,32.7v5.3
	c-4.3-2.8-8.5-6.9-12.5-12.6V97.2c1.7,2.1,3.3,4.6,4.8,7.4C84.6,102.5,87.3,100.6,90.2,99L90.2,99L90.2,99z M90.2,80.5v10.8
	c-1.9-0.8-3.9-1.5-5.5-1.9l0.2-7.5C86.6,81.4,88.4,80.9,90.2,80.5L90.2,80.5L90.2,80.5z M90.2,55.5v4.3l-4.6,6.7h4.6v12.9
	c-3.3,0.5-5.4,1.2-5.4,1.2l0.2-8.9L77.8,71v-0.2C81.4,67.8,86.9,61.7,90.2,55.5L90.2,55.5L90.2,55.5z M90.2,28.2L90.2,28.2
	c-7.2,7.1-5.3,12.5,0,15.7v-4.6c-0.2-0.4-0.3-0.9-0.5-1.3l0,0c0.1,0.1,0.3,0.2,0.5,0.2v-1.7c-0.3-0.2-0.5-0.4-0.5-0.4
	c0,0-0.2,0-0.2-0.1l0,0c0-1.2,0.2-2.4,0.6-3.4l0.1,0V28.2L90.2,28.2z M97.9,154.7c-2.5-0.9-5.2-2.6-7.6-4.9v5.3
	c2.5,1.7,5.1,2.9,7.6,3.7V154.7L97.9,154.7z M97.9,107.5v8.9c-3.8,6.9-5,16,0,22.7v8.9c-3.4-2.9-6.1-6.9-7.6-11.4v-17.6
	C91.7,114.9,94.1,110.9,97.9,107.5L97.9,107.5L97.9,107.5z M97.9,95.9L97.9,95.9c-2.4,0.7-5.1,1.8-7.6,3.1v6.9
	c2.6-2.4,5.3-3.7,7.6-4.6V95.9L97.9,95.9z M97.9,79.7L97.9,79.7c-2.6,0-5.1,0.3-7.6,0.8v10.8c2.9,1.3,5.7,2.8,7.6,3.7v-7.5
	c-0.5-0.8-0.7-1.5,0-2V79.7L97.9,79.7z M97.9,44.1c-0.3,0-0.6-0.1-1-0.1c-2.9-0.3-5.5-2.2-6.6-4.7v4.6c0.9,0.5,1.9,1,3,1.4
	c0.1,3-1.1,6.6-3,10.1v4.3l1-1.5h3.5L92,66.4h-1.8v12.9c2.1-0.4,4.7-0.7,7.6-0.7V66.4h-2.7l1.7-8.2h1v-3.1h-3.4l2.8-8.2h0.7V44.1
	L97.9,44.1z M97.9,41.2v1.5c-1.6-0.1-2.9-1.3-3-1.3c-0.3-0.3-0.3-0.7,0-1c0.3-0.3,0.7-0.3,1,0C95.9,40.3,96.8,41.1,97.9,41.2
	L97.9,41.2L97.9,41.2z M97.9,37.2v1.5c-1.1-0.1-2-0.6-2.5-1c-0.6,0.4-1.9,1-3.1,1c-0.7,0-1.4-0.2-2-0.5v-1.7c0.5,0.3,1.3,0.7,2,0.7
	c1,0,2.3-0.8,2.7-1c0.3-0.2,0.7-0.2,0.9,0.1C95.9,36.3,96.8,37.1,97.9,37.2L97.9,37.2L97.9,37.2z M97.9,21v4.2
	c-0.3,0.3-0.6,0.6-0.9,0.9c0.3,0.1,0.6,0.2,0.9,0.3v1.5c-0.8-0.1-1.5-0.4-2-0.7c-1.1,1.1-2.3,2-3.4,2.8l0,0
	c-0.6,0.4-1.1,0.9-1.5,1.5c0.4,0.3,1,0.6,1.7,0.6c1.2,0,2.2-0.9,2.2-1c0.3-0.3,0.7-0.3,1,0c0,0,0.9,0.8,2,0.9v1.5
	c-1.1-0.1-1.9-0.6-2.5-1c-0.6,0.4-1.5,1-2.7,1c-1,0-1.8-0.4-2.4-0.7v-4.5c0.7-0.6,1.4-1.3,2.2-2C94.6,24.5,96.4,22.7,97.9,21
	L97.9,21L97.9,21z M106.4,145.1v14.8c-2.8,0.1-5.6-0.2-8.5-1.1v-4.1c1.7,0.6,3.2,0.9,4.6,0.8l3.8-3.2c-3.1-0.7-6-2.2-8.5-4.3v-8.9
	c1.9,2.5,4.6,4.6,8.3,6.2l0,0C106.3,145.2,106.3,145.2,106.4,145.1L106.4,145.1z M106.4,101.9L106.4,101.9c-0.1-0.1-0.1-0.1-0.2-0.2
	c-3.3,1.7-6,3.6-8.3,5.7v8.9c2-3.7,4.9-6.8,7.9-8.6c0.2,0.1,0.4,0.3,0.6,0.5V101.9L106.4,101.9z M106.4,94.6v3.6
	c-1.2,0.5-3,1.1-5.4,2c-0.9,0.3-2,0.7-3.2,1.2v-5.4c0.4-0.1,0.8-0.2,1.2-0.3c-0.3-0.1-0.7-0.3-1.2-0.5v-7.5c0.5,0.7,1.4,1.6,2.3,2.4
	C101.8,91.4,104.6,93.2,106.4,94.6L106.4,94.6L106.4,94.6z M106.4,80.8v5.4c-1.9-0.8-3.7-1.3-5.4-1.3c-1.7,0-2.7,0.3-3.2,0.7v-5.9
	C100.7,79.7,103.6,80,106.4,80.8L106.4,80.8L106.4,80.8z M106.4,44.4v2.4h-1.8l-0.9,8.2h2.8v6.8l-0.1-3.6h-3.8l-0.6,8.2h4.6v4.7
	h-7.1v7.4c-0.5,0-1,0-1.4,0V66.4h2.2l0,0l0.6-8.2h-2.7v-3.1h2.5l0,0l1.1-8.2h-3.6v-2.8C100.6,44.3,103.7,44.4,106.4,44.4L106.4,44.4
	L106.4,44.4z M106.4,40.1v1.7v0c-0.6,0.4-1.5,1-2.7,1c-1.2,0-2.2-0.6-2.7-1c-0.6,0.4-1.5,1-2.7,1c-0.1,0-0.2,0-0.3,0v-1.5
	c0.1,0,0.2,0,0.3,0c1.2,0,2.2-0.9,2.2-1c0.3-0.3,0.7-0.3,1,0c0,0,1,1,2.2,1c1.2,0,2.2-0.9,2.2-1C106,40.2,106.2,40.1,106.4,40.1
	L106.4,40.1L106.4,40.1z M106.4,36.1L106.4,36.1c-0.2,0-0.4,0.1-0.5,0.2c0,0-1,1-2.2,1c-1.2,0-2.2-0.9-2.2-1c-0.3-0.3-0.7-0.3-1,0
	c0,0-1,1-2.2,1c-0.1,0-0.2,0-0.3,0v1.5c0.1,0,0.2,0,0.3,0c1.2,0,2.2-0.6,2.7-1c0.6,0.4,1.5,1,2.7,1c1.2,0,2.2-0.6,2.7-1V36.1
	L106.4,36.1z M106.4,30.8L106.4,30.8c-0.2,0-0.4,0.1-0.5,0.2c0,0-1,1-2.2,1c-1.2,0-2.2-0.9-2.2-1c-0.3-0.3-0.7-0.3-1,0
	c0,0-1,1-2.2,1c-0.1,0-0.2,0-0.3,0v1.5c0.1,0,0.2,0,0.3,0c1.2,0,2.2-0.6,2.7-1c0.6,0.4,1.5,1,2.7,1c1.2,0,2.2-0.6,2.7-1V30.8
	L106.4,30.8z M106.4,25.2c-0.2,0-0.4,0.1-0.5,0.2c0,0-1,1-2.2,1c-1.2,0-2.2-0.9-2.2-1c-0.3-0.3-0.7-0.3-1,0c0,0-1,1-2.2,1
	c-0.1,0-0.2,0-0.3,0v1.5c0.1,0,0.2,0,0.3,0c1.2,0,2.2-0.6,2.7-1c0.6,0.4,1.5,1,2.7,1c1.2,0,2.2-0.6,2.7-1v0V25.2L106.4,25.2z
	 M106.4,7.3L106.4,7.3c-0.4-1.6-0.5-2.6-0.7-2.6c-0.5,1.9-1.2,8.6-7.8,16.3v4.2c0.8-0.9,1.6-1.8,2.4-2.7l0,0
	c0.3-0.1,0.5-0.3,0.7-0.4c0.6,0.4,1.5,1,2.7,1c1.2,0,2.2-0.6,2.7-1v0v-1.7c-0.2,0-0.4,0.1-0.5,0.2c0,0-1,1-2.2,1
	c-0.9,0-1.7-0.5-2.1-0.8c2.1-2.7,3.7-5.4,4.4-7.3l0,0c0.1,0.4,0.3,0.9,0.4,1.3V7.3L106.4,7.3z M106.4,98.2c1.2-0.5,1.8-1,1.9-1.7
	c0-0.3-0.7-1-1.9-1.8V98.2L106.4,98.2z M113.7,131L113.7,131c-0.7,4.6-2.9,9.4-7.3,14.1v14.8c2.5-0.1,5-0.6,7.3-1.4v-5.4
	c-1.4,0.6-2.8,1.2-4.4,1.6l0,0c1.4-1.2,2.9-2.9,4.4-5.1V131L113.7,131z M113.7,108.7v14.8c-1.1-7.5-5.3-13.3-7.3-15.2v-6.4
	C109.3,104.1,111.7,106.3,113.7,108.7L113.7,108.7L113.7,108.7z M113.7,83.6L113.7,83.6c-2.4-1.2-4.8-2.2-7.3-2.8v5.4
	c2.4,1.1,4.9,2.7,7.3,4.7V83.6L113.7,83.6z M113.7,63.3l-5,4.3l-2.2-1.6l0,0.4h-0.2v4.7h7.3V63.3L113.7,63.3z M113.7,44.4
	L113.7,44.4c-1.5,0-4.2,0.1-7.3,0v2.4h2.2l0.4,8.2l0,0h-2.6v6.8l0.1,3.9l7.2-6.2v-4.5H112l-0.7-8.2h2.4V44.4L113.7,44.4z
	 M113.7,41.1L113.7,41.1c-0.7-0.3-1.3-0.8-1.3-0.8c-0.3-0.3-0.7-0.3-1,0c0,0-1,1-2.2,1c-1.2,0-2.2-0.9-2.2-1
	c-0.1-0.1-0.3-0.2-0.5-0.2v1.7c0.6,0.4,1.5,1,2.7,1c1.2,0,2.2-0.6,2.7-1c0.4,0.3,1,0.7,1.8,0.9V41.1L113.7,41.1z M113.7,37v1.5
	c-0.8-0.2-1.4-0.6-1.8-0.9c-0.6,0.4-1.5,1-2.7,1c-1.2,0-2.2-0.6-2.7-1v-1.7c0.2,0,0.4,0.1,0.5,0.2c0,0,1,1,2.2,1
	c1.2,0,2.2-0.9,2.2-1c0.3-0.3,0.7-0.3,1,0C112.4,36.3,112.9,36.8,113.7,37L113.7,37L113.7,37z M113.7,31.8v1.5
	c-0.8-0.2-1.4-0.6-1.8-0.9c-0.6,0.4-1.5,1-2.7,1c-1.2,0-2.2-0.6-2.7-1v-1.7c0.2,0,0.4,0.1,0.5,0.2c0,0,1,1,2.2,1
	c1.2,0,2.2-0.9,2.2-1c0.3-0.3,0.7-0.3,1,0C112.4,31,112.9,31.5,113.7,31.8L113.7,31.8L113.7,31.8z M113.7,26.2v1.5
	c-0.8-0.2-1.4-0.6-1.8-0.9c-0.6,0.4-1.5,1-2.7,1c-1.2,0-2.2-0.6-2.7-1v-1.7c0.2,0,0.4,0.1,0.5,0.2c0,0,1,1,2.2,1
	c1.2,0,2.2-0.9,2.2-1c0.3-0.3,0.7-0.3,1,0C112.4,25.4,112.9,25.9,113.7,26.2L113.7,26.2L113.7,26.2z M113.7,20.4v4
	c-0.8-0.7-1.5-1.4-2.1-2.1c-0.6,0.4-1.4,0.8-2.4,0.8c-1.2,0-2.2-0.6-2.7-1v-1.7c0.2,0,0.4,0.1,0.5,0.2c0,0,1,1,2.2,1
	c0.5,0,1-0.2,1.4-0.4c-2-2.3-3.4-4.5-4.1-6.4V7.3C107.1,10.3,108.6,15.4,113.7,20.4L113.7,20.4L113.7,20.4z M113.7,42.6v-1.5
	c0.3,0.1,0.6,0.2,0.9,0.2c1.2,0,2.2-0.9,2.2-1c0.3-0.3,0.8-0.3,1,0c0.3,0.3,0.3,0.8,0,1c-0.1,0.1-1.5,1.4-3.3,1.4
	C114.3,42.7,114,42.7,113.7,42.6L113.7,42.6z M113.7,149.7V131c0.4-2.6,0.4-5.1,0-7.5v-14.8C125.8,123.2,120.1,140.3,113.7,149.7
	L113.7,149.7z M133.2,159v3.2c-3.1,0.3-6.8,2-8.4,6.8c-2.4,7.6,2.8,12.3,8.4,14.2v4c-0.3-0.1-0.7-0.2-1-0.3
	c-16.7-5.1-12.1-23.7-4.3-26.7C129.8,159.5,131.5,159.1,133.2,159L133.2,159L133.2,159z M133.2,103.9v34.5
	c-3.6,9.4-10.8,17.1-19.5,20.1v-5.4c19.8-9.3,18.1-38.8,6.7-55.1c-1.8-2.5-4.1-5.1-6.7-7.2v-7.3C120.8,87.2,127.5,93.7,133.2,103.9
	L133.2,103.9L133.2,103.9z M133.2,51.5l-8.8,8.6l3.1,3.9c0.1-0.6,0.3-1.2,0.6-1.8c0.9-1.8,2.8-4.3,5.1-7V51.5L133.2,51.5z
	 M133.2,46.5v2.8L116,64.7l11.5,0.8c0.5,2.9,3.8,4.4,5.7,4.9v7.3H132v10.7l0,0l-4.2,1.2l0,0v-18h-8.1v13.7l-0.2-0.1
	c-1.2-1-2.5-1.9-3.9-2.6V71.1h-1.8v-7.8L133.2,46.5L133.2,46.5z M133.2,38.2v4.3l-19.5,17v-4.5h2.4l0,0l-1.4-8.2h-1v-2.5l0.6,0
	c4.1,0,7-2.8,7.9-6.3c-0.6,0.3-1.3,0.6-2.1,0.6c-1.2,0-2.2-0.6-2.7-1c-0.6,0.4-1.6,1-2.7,1c-0.3,0-0.7,0-0.9-0.1V37
	c0.3,0.1,0.6,0.2,0.9,0.2c1.2,0,2.2-0.9,2.2-1c0.3-0.3,0.7-0.3,1,0c0,0,1,1,2.2,1c1.2,0,2.2-0.9,2.2-1l0.1,0.1
	c0.1-1.1-0.1-2.3-0.4-3.4c-0.5,0.3-1.2,0.5-1.9,0.5c-1.2,0-2.2-0.6-2.7-1c-0.6,0.4-1.6,1-2.7,1c-0.3,0-0.7,0-0.9-0.1v-1.5
	c0.3,0.1,0.6,0.2,0.9,0.2c1.2,0,2.2-0.9,2.2-1c0.3-0.3,0.7-0.3,1,0c0,0,1,1,2.2,1c0.5,0,1-0.2,1.3-0.4c-0.7-1.3-1.8-2.5-3.2-3.6
	c-0.4-0.3-0.9-0.6-1.3-0.9c-0.6,0.3-1.4,0.7-2.3,0.7c-0.3,0-0.7,0-0.9-0.1v-1.5c0.3,0.1,0.6,0.2,0.9,0.2c0.4,0,0.7-0.1,1-0.2
	c-0.7-0.6-1.4-1.1-2-1.7v-4c1.3,1.3,2.8,2.6,4.7,3.9c3.2,2.3,6.7,7.5,6.8,11.6c0.1,3.7-1.5,7.4-5.8,9.7c-1.5,0.8-0.4,1.7-0.4,1.7
	l1.1,1l12.4-9.4L133.2,38.2L133.2,38.2L133.2,38.2z M133.2,77.6h3.5v11.5l0.1,0c1.5-1.4,3.2-2.4,2.4-13.7c0,0,0,0,0-0.1h-2.9v-1.6
	h2.7c-0.9-3.5-3.8-3.4-4.6-3.3c-0.2,0-0.6,0-1.1-0.2V77.6L133.2,77.6z M141.7,174L141.7,174c-0.9,2.1-3,4-6.8,4.8c0,0,4,1.8,2.5,5.3
	l0,0c-1.3-0.1-2.8-0.4-4.2-0.9v4c2.8,0.8,5.6,1.3,8.5,1.6v-4.1c-0.2,0-0.3,0-0.5-0.1c0.2,0,0.3-0.1,0.5-0.1V174L141.7,174z
	 M141.7,161.9L141.7,161.9c-2.1-1.9-4.9-3.1-8.5-2.9v3.2c1.6-0.2,3.1,0,3.9,0.3c1.8,0.7,3.7,2.9,4.6,5.6V161.9L141.7,161.9z
	 M141.7,97.2L141.7,97.2c-2.4,3.4-4.7,7.4-6,11.5c-0.8-1.7-1.6-3.3-2.5-4.8v34.5c1.3-3.5,2.2-7.2,2.5-11.1c0.2,8,2.6,14.4,6,19.3
	v-17.2c-0.1-0.7-0.2-1.4-0.3-2l0,0c-0.6-4.4-0.4-8.6,0.3-12.6V97.2L141.7,97.2z M141.7,53.8v0.2V53.8L141.7,53.8L141.7,53.8
	L141.7,53.8z M141.7,39.2v6.4c-2.5,2.7-5.8,6.2-8.5,9.5v-3.6l3-2.9l-1-1.1l-2,1.8v-2.8L141.7,39.2L141.7,39.2z M141.7,30.7
	L141.7,30.7l-8.5,7.5v4.3l8.5-7.4V30.7L141.7,30.7z M152.1,184.5v4.3c-3.5,0.4-7,0.5-10.5,0.1v-4.1
	C145.4,185.2,148.9,185.1,152.1,184.5L152.1,184.5z M152.1,173.8v5.8c-3.7,2.4-7.3,4-10.5,5V174c0.8-1.8,0.6-3.9,0-5.8v-6.3
	c4.9,4.5,5.5,13,1.3,17.6C145.6,178.6,148.9,176.4,152.1,173.8L152.1,173.8L152.1,173.8z M152.1,148.9v7.8
	c-3.7-2.4-7.5-5.7-10.5-10.1v-17.2C142.9,136.1,145.8,143,152.1,148.9L152.1,148.9L152.1,148.9z M152.1,107.5
	c-7.1,11.4-5.1,23.9,0,33.4V107.5L152.1,107.5z M152.1,85.5V93c-4.4,5.2-8.8,12.9-10.5,21.8V97.2c1.7-2.4,3.4-4.5,5-6.1
	C148.2,89.5,150.2,87.6,152.1,85.5L152.1,85.5L152.1,85.5z M152.1,48.5L152.1,48.5c-4.2,2.5-8.8,5.1-10.5,5.2v0.2l8.9,25.2
	c0.4-0.6,0.9-1.3,1.5-2V65.7c-1.1-4-2.9-8.5-3.1-9.2c1.1-0.9,2.1-1.7,3.1-2.4V48.5L152.1,48.5z M152.1,41.4l-6.4-5.7l-4.1,3.6v6.4
	c2.5-2.7,4.4-4.6,4.4-4.6l6.1,5.1V41.4L152.1,41.4z M152.1,34.2v3.9l-6.9-6.1l-3.6,3.1v-4.4l3.1-2.8l0,0L152.1,34.2L152.1,34.2
	L152.1,34.2z M152.1,46v-4.7l2.3,2.1l0,0l1.6-1.8l-3.9-3.5v-3.9l11.1,9.5l-1.3,0.2l-3-1.9l-6.4,4.3L152.1,46L152.1,46z M164.3,179.7
	L164.3,179.7c-3.6,2.4-7.7,4.1-12.2,4.9v4.3c4.2-0.5,8.3-1.7,12.2-3.5V179.7L164.3,179.7z M164.3,156.7c-5.1-2.2-9.1-4.9-12.2-7.8
	v7.8c4.1,2.7,8.2,4.2,11.1,4.9c-0.9,2.7-5.9,8-11.1,12.2v5.8c4.1-2.6,8.4-6.2,12.2-10.5V156.7L164.3,156.7z M164.3,95.3L164.3,95.3
	c-5.6,3.8-9.5,7.9-12.2,12.2v33.4c3.3,6.2,8,11.1,12.2,13.5v-9.2c-13.8-12.5-9.3-34.2,0-42.8V95.3L164.3,95.3z M164.3,75
	c-0.6-0.3-1.1-0.5-1.7-0.7c-2.2,2.7-6.4,7.1-10.5,11.3V93c2.6-3.1,5.3-5.4,7.3-6.5c1.6,1.5,3.3,3.3,4.9,7.2V82.9l-0.1-0.2l0.1,0V75
	L164.3,75z M164.3,57v6c-0.5,0.3-1,0.8-1.7,1.5c-1.4,1.4-7.1,8.1-10.5,12.5V65.7c0.5,1.7,0.8,3.4,0.8,4.6c0,0,3.9-8.9,10.9-13.6
	C164,56.8,164.2,56.9,164.3,57L164.3,57L164.3,57z M164.3,47v4.6c-5.6-1.3-8.8,0.1-12.2,2.5v-5.6c4-2.4,7.5-4.7,7.5-4.7
	C161.1,45.1,162.7,46.1,164.3,47L164.3,47L164.3,47z M164.3,169v-12.3c0.2,0.1,0.4,0.2,0.6,0.3l0.9-1.8c-0.5-0.2-1-0.5-1.5-0.8v-9.2
	c1.2,1.1,2.5,2.1,4,3c10.8-22.4,0.1-45.5-1.8-47.5l0,0c-0.8,0.5-1.5,1.1-2.2,1.7v-7.2c0.2-0.1,0.3-0.2,0.5-0.3
	c-0.1-0.4-0.3-0.8-0.5-1.2V82.9c25.2,33.4,15.3,67,1.3,84.5C165.2,168,164.8,168.5,164.3,169L164.3,169z M232.1,107.8v1.8l-2.1,0
	C230.2,109.4,231,108.8,232.1,107.8L232.1,107.8L232.1,107.8z M232.1,82.2v8.4c-15.2,14.7-24.1,31.7-13.8,50.6
	c2-6.3,7.9-10.1,13.8-10.3v4.4c-3.3,0.5-6.4,2.5-7.5,3.5c-3.6,2.9-2.3,6.9,0.2,7.9c2.5,1,3-0.1,3.4,0.8c0.6,1.2-2.7,2.2-1,4.6
	c1,1.5,2.9,2,4.9,2v6.4c-12.9,3.1-30.7-4.4-36.7-29c0.9,15.7-10.5,37.9-20.6,47c-3.3,2.9-6.8,5.2-10.5,6.9v-5.7
	c5.3-3.5,9.6-8.3,13-13.8l0,0c10.6-17.1,12.4-40.4,7.7-56.7c-5.9-20.3-12.5-23.6-20.7-26.4V75c14.9,6.9,26.9,23.9,29.9,41.4
	c-0.8-4.7,5-28.1,18.6-41.6c-23.8,2.6-42.3-6.6-46.7-11.1c-0.7-0.7-1.2-0.8-1.8-0.5v-6c11.8,7.9,34.6,14.2,57.9,11.8
	c1.4-0.1,0.8,0.8,0.7,0.8c-8.4,7.6-20,27.4-21.8,46.9l0,0c-1.1,16.3,5.5,36.8,22.1,37.7c-12.3-8.3-25.9-33.3-4.7-59.1
	C222.1,90.8,226.5,86.5,232.1,82.2L232.1,82.2z M232.1,56.9L232.1,56.9c-5.2-5.5-8.6-10.2-9.4-12.1c0,0-33.7,16.1-58.4,2.2v4.6
	c2.5,0.6,5.4,1.6,9,3.4c14.1,6.8,44.8-1.5,45.8-2.5c2.2,3.6,7.3,8.9,13,13.5V56.9L232.1,56.9z M232.1,90.6
	c6.3-6.1,13.6-11.7,21.2-17c-8.3-4.6-15.7-11-21.2-16.7V66c4.3,3.4,8.8,6.4,12.7,7.9c-4.8,2.7-9,5.5-12.7,8.3V90.6L232.1,90.6z
	 M258,94.5L258,94.5h-10.4c0,0-10.8,9.3-15.5,13.3v1.8l12.6-0.2c1.3,6.6-1,14.4-0.7,28.9c-2.4-5.2-7.1-7.5-11.9-7.4v4.4
	c3-0.5,6.2,0.4,8.4,4.6c4.3,8.3-2.9,13.6-6.1,14l0,0c-0.8,0.1-1.6,0.2-2.4,0.2v6.4c6.1-1.5,11.2-5.3,13.4-10.9c0,0,0-0.3,0.1-0.9
	c2,7.2,6.3,11.3,12.4,11.5v-5.3c-0.1,0-0.2,0-0.3-0.1l0,0c-2.1-0.5-3.2-1.8-4.3-2.9c-3.6-3.3-3.6-17.5-3.3-21.5
	c0.3-3.4,1.1-14.8,0.7-19.3c-0.4-4.5-2.3-7.3-5.7-6.6c4.3-3.5,9.2-4.7,12.9-4.9V94.5L258,94.5z M285.2,92.2v5.2l-5.6,2.3
	c0,0,0,23.6-0.3,26.9c-0.3,3.3,1.1,20.3-7.8,21.9l0,0c3.9,1.7,9.2,4.8,13.6,6.4v4.5c-1.3-0.4-2.3-0.7-2.7-0.9
	c-1.5-0.4-9.6-2-18.4,0.8c-2.2,0.7-4.2,1-6,0.9v-5.3c3.7,0.6,8.4-0.1,12.9-1.8c-8.8-4.4-12-10-10.9-20.1c0.7-6.3,0.8-16.7,1.1-19
	c0.3-2.3,0.1-14.4,0.1-14.4c-0.9-0.1-1.9-0.1-3.1-0.1v-5.1h7.8c0,0,0.3,25.2,0.2,27.8c-0.1,2.6-0.4,9.8-1,14.4
	c-0.5,4.1,1.5,7,3.7,7.1c3.1,0.2,4.2-2,5-4.5c1-3,1.7-11,1.7-13.6c0-2.6,0-31.2,0-31.2C278.1,94.5,281.8,93.6,285.2,92.2L285.2,92.2
	z M285.2,69.9c-0.8,0-1.7,0-2.4,0l0,0c-0.5,0-1.6,0.3-1.5,0.7c1.6,0.9,2.9,2,3.9,3.3V69.9L285.2,69.9z M285.2,87.7v-4.8
	c-0.9,0.8-2.2,1.5-3.8,1.9c-2.8,0.7-8.1,0.8-12.1-3c-2.4-2.3-5-7-2.1-11.6c2.9-4.6,9.2-7.7,15.3-7.9c0.9,0,1.9,0,2.8,0.1v-6
	c-3.8,0-8,0.8-12.7,2.7c-11.3,4.5-14.5,16.5-10.2,24.1c3.5,6.2,12.4,9.2,21.2,5.3C284.1,88.3,284.7,88,285.2,87.7L285.2,87.7z
	 M309.5,94.6l-10.5,0c0,0-3.3,2.9-7,6.1c0.1-7.4,0.1-12.8,0.1-12.8c-1.5,1.7-4.1,3.2-6.9,4.4v5.2l2-0.8c0,0-0.3,26.8-0.5,35.3
	c-0.3,8.1,1.1,18.7,3.5,24.1c-1.4,0.1-3.1-0.4-5-1.1v4.5c3.4,1,9,2.5,11.9,1.7c-2.2-4.2-4.9-13.7-5.3-19.7c-0.2-2.7-0.1-18.7,0-32.6
	l4.4,0.2c1.4,5.6-1,11.9-0.5,29.4c0.1,2.6,0.3,5,0.6,6.9c1.3,8.6,6.4,13.1,13.1,13.7v-5.1l-0.2,0l0,0c-2.1-0.5-3.3-1.9-4.5-2.9
	c-3.6-3.3-4.2-17.1-3.8-21.1c0.3-3.4,1.6-14.1,1.1-18.6c-0.4-4.5-2-8.4-5.4-7.7c4.9-4,9.3-5,12.8-5V94.6L309.5,94.6z M309.5,80.8
	c-7.1-4.7-12.8-2-15.8,0.7c-2.6,2.3-5.2,4.5-8.5,6.2v-4.8c2.6-2.4,2.4-6,0-9.1v-4c8.2,0.3,19.3,2.3,19.3,2.3
	c-2.5-4.5-10.8-9.2-19.3-9.8v-6c10.8-0.1,17.9,6,22.4,9.7c0.7,0.6,1.3,1.2,1.9,1.7V80.8L309.5,80.8z M332.8,93.2v4.8l-1.9,0.6
	c0,0,0.3,23.7,0,26.9c-0.3,3.3,1.3,19.3-7.7,22.1l0,0c3.9,0.9,7,2.2,9.5,3.6v6.3c-2.7-0.7-8.2-1.8-15.2,0.4c-2.8,0.9-5.6,1.2-8.1,1
	v-5.1c3.7,0.7,8.2,0.1,12.8-1.6c-8.8-4.4-11.7-9.8-11.7-19.9c0-6.2,0.4-15.9,0.7-18.2c0.3-2.3,0-15.6,0-15.6
	c-0.6-0.1-1.1-0.1-1.8-0.1v-3.8l6,0c0,0,0.4,25.2,0.2,27.8c-1.3,13.4,0.7,19.7,4.5,20.7c2.2,0.6,3.5-1.2,4.3-3.8
	c1-3,1.4-11,1.4-13.5c0-2.6,0-31.2,0-31.2C328.3,94.4,330.7,93.9,332.8,93.2L332.8,93.2z M309.7,80.9c-0.1,0-0.1-0.1-0.2-0.1V67.9
	c7.6,7.3,12.1,16.7,13.8,21.4C323.3,89.3,316.9,85.8,309.7,80.9L309.7,80.9L309.7,80.9z M332.8,157.5c0.7,0.2,1.3,0.4,1.6,0.5
	c1.5,0.4,10.8,3.3,14.9,2.3c-2.2-4.7-6.2-14.6-6.1-21.9c0.1-4.9-0.1-51.6-0.1-51.6c-2.3,2.5-5.9,5-10.3,6.6v4.8l5.8-1.9
	c0,0-0.1,26.2-0.4,34.7c-0.3,8.1,1.3,19,4.1,24.2c-2.8,0.2-5.6-1.8-9.5-3.9V157.5z"/>
<path class="st1" d="M43.4,145.1v6c-11.9,1.5-24.5-7.6-25-11.5c6.8,0,20.8,0.3,14.6-13.4c-5.1-11.4-15.6-7.1-17.1-5.6
	c-3.1,3.1-9.2,11.5-1.6,23.5c5.1,8.1,16.9,12.4,29.1,10.9v5.2c-18.1,0.9-33.2-10.9-36.8-20.9c-0.6-1.8-1-3.7-1.1-5.6v-2.3
	c0.6-12.3,11.1-24.8,24.4-17.4c16.2,9.2,13.6,28.5-3.2,29C32.8,146,38.7,146.6,43.4,145.1L43.4,145.1z M43.4,72.1v8.3l-0.9,1.2l0,0
	c0.3,0,0.6,0,0.9-0.1v9.8c-4.2-3.7-8.4-6.4-10.5-7.5c-1.4-0.7-1-1-1-1C36.7,79.6,40.4,75.9,43.4,72.1L43.4,72.1L43.4,72.1z
	 M43.4,26.5v6.2c-8.6,0.6-16.8-0.4-20.5-0.5c-4.8-0.2-7.1,2.1-7.4,5.8c-0.2,2.1-0.3,5.4-0.3,8.9c0,4.1,0.6,8.1,1.6,11.1
	c0,0,8.4-12.8,11.1-17.1c4.4-0.6,9.2,2.6,15.5,5v5.6c-1-0.1-2.1-0.3-3.2-0.6c-7-1.5-9.8-1.4-9.8-1.4S20.4,64.4,16.7,67.3h-5.5
	c0,0-3.5-11.1-4.6-27.9C5.6,22.6,22.9,25.6,22.9,25.6C31.2,26.9,37.9,27.1,43.4,26.5L43.4,26.5L43.4,26.5z M43.4,80.4
	c3.5-4.8,11.5-15.6,13.6-18.7c2.5-3.7,5.3-10,4.1-14c-7.1,1.2-12.9-0.1-17.7-1.9v5.6c5.6,0.8,10.1,0.3,10.1,0.3s-2.1,10.2-10.1,20.4
	V80.4L43.4,80.4z M78.7,70.7l-0.2,0.2l0.2,0V70.7L78.7,70.7z M78.7,39.3L78.7,39.3c-1.9,5.2-13.8,25.5-18.9,31.2
	c-5.2,5.8-9.6,10.4-16.4,11v9.8c3.5,3.1,7,6.9,9.3,11c7.1,12.9,5.2,32.4-4.5,40.3c-1.4,1.1-3,2-4.8,2.5v6c1.8-0.2,3.7-0.7,5.4-1.5
	c5.5-2.6,10.5-7.9,13.7-15c4.4-9.7,2.2-22.2-1.5-30.4c-6.3-14-13.7-18.4-13.7-18.4c5.5-1.2,14.3,1.9,20.8,8.9
	c1.5,1.6,7.1,8.3,7.8,19.9c0.4,6,0.2,14.3-4.3,21.8l0,0C64.8,147.9,54,153.7,43.4,155v5.2c11-0.6,23.1-5.8,34.5-18.9
	c0.3,0.4,0.6,0.8,0.8,1.2V97.1c-8.9-11.4-18.7-13.5-21-14.9c7.5-4.7,15.4-17.8,21-29.4V39.3L78.7,39.3z M78.7,28.8L78.7,28.8
	c-1.5-2.2-2.9-4.1-4-5.7C71.8,19.2,67,15,67,15c-1.5,1.7-6.7,9.9-23.6,11.6v6.2c8.7-0.6,18-2.9,23.6-9.2
	c3.6,3.1,10.3,11.7,11.7,14.3V28.8L78.7,28.8z M78.7,52.9V39.3c0.2-0.6,0.3-1,0.2-1.1c0-0.1-0.1-0.3-0.2-0.5v-8.9
	c2,2.9,4.2,6.3,6.2,9.6C83.5,42.2,81.4,47.3,78.7,52.9L78.7,52.9z M91.2,118.9c-2,5.9-1.8,12.1,0,17.6V118.9L91.2,118.9z M91.2,99
	v6.9c-2.6,2.4-5.1,5.9-7.1,11.2c-5.2,14.2,0.1,26,7.1,32.7v5.3c-4.3-2.8-8.5-6.9-12.5-12.6V97.1c1.7,2.1,3.3,4.6,4.8,7.4
	C85.5,102.4,88.3,100.5,91.2,99L91.2,99L91.2,99z M91.2,80.4v10.8c-1.9-0.8-3.9-1.5-5.5-1.9l0.2-7.5C87.6,81.3,89.4,80.8,91.2,80.4
	L91.2,80.4L91.2,80.4z M91.2,55.4v4.3l-4.6,6.7h4.6v12.9c-3.3,0.5-5.4,1.2-5.4,1.2l0.2-8.9l-7.3-0.6v-0.2
	C82.3,67.8,87.8,61.6,91.2,55.4L91.2,55.4L91.2,55.4z M91.2,28.1L91.2,28.1c-7.2,7.1-5.3,12.5,0,15.7v-4.6c-0.2-0.4-0.3-0.8-0.5-1.3
	l0,0c0.1,0.1,0.3,0.2,0.5,0.2v-1.7c-0.3-0.2-0.5-0.4-0.5-0.4c0,0-0.2,0-0.2-0.1l0,0c0-1.2,0.2-2.4,0.6-3.4l0.1,0V28.1L91.2,28.1z
	 M98.8,154.6c-2.5-0.9-5.2-2.6-7.6-4.9v5.3c2.5,1.7,5.1,2.9,7.6,3.7V154.6L98.8,154.6z M98.8,107.4v8.9c-3.8,6.9-4.9,16,0,22.7v8.9
	c-3.4-2.9-6.1-6.9-7.6-11.4v-17.6C92.6,114.8,95.1,110.9,98.8,107.4L98.8,107.4L98.8,107.4z M98.8,95.8L98.8,95.8
	c-2.4,0.7-5.1,1.8-7.6,3.1v6.9c2.6-2.4,5.3-3.7,7.6-4.6V95.8L98.8,95.8z M98.8,79.6L98.8,79.6c-2.6,0-5.1,0.3-7.6,0.8v10.8
	c2.9,1.3,5.7,2.8,7.6,3.7v-7.5c-0.5-0.8-0.7-1.5,0-2V79.6L98.8,79.6z M98.8,44c-0.3,0-0.6-0.1-1-0.1c-2.9-0.3-5.5-2.2-6.6-4.7v4.6
	c0.9,0.5,1.9,1,3,1.4c0.1,3-1.1,6.6-3,10.1v4.3l1-1.5h3.5L93,66.3h-1.8v12.9c2.1-0.4,4.7-0.7,7.6-0.7V66.3h-2.7l1.7-8.2h1V55h-3.4
	l2.8-8.2h0.7V44L98.8,44z M98.8,41.2v1.5c-1.6-0.1-2.9-1.3-3-1.3c-0.3-0.3-0.3-0.7,0-1c0.3-0.3,0.7-0.3,1,0
	C96.9,40.2,97.7,41,98.8,41.2L98.8,41.2L98.8,41.2z M98.8,37.1v1.5c-1.1-0.1-2-0.6-2.5-1c-0.6,0.4-1.9,1-3.1,1c-0.7,0-1.4-0.2-2-0.5
	v-1.7c0.5,0.3,1.3,0.7,2,0.7c1,0,2.3-0.8,2.7-1c0.3-0.2,0.7-0.2,0.9,0.1C96.9,36.2,97.7,37,98.8,37.1L98.8,37.1L98.8,37.1z
	 M98.8,20.9v4.2c-0.3,0.3-0.6,0.6-0.9,0.9c0.3,0.1,0.6,0.2,0.9,0.3v1.5c-0.8-0.1-1.5-0.4-2-0.7c-1.1,1.1-2.3,2-3.4,2.8l0,0
	c-0.6,0.4-1.1,0.9-1.5,1.5c0.4,0.3,1,0.6,1.7,0.6c1.2,0,2.2-0.9,2.2-1c0.3-0.3,0.7-0.3,1,0c0,0,0.9,0.8,2,0.9v1.5
	c-1.1-0.1-1.9-0.6-2.5-1c-0.6,0.4-1.5,1-2.7,1c-1,0-1.8-0.4-2.4-0.7v-4.5c0.7-0.6,1.4-1.3,2.2-2C95.5,24.4,97.3,22.6,98.8,20.9
	L98.8,20.9L98.8,20.9z M107.3,145v14.8c-2.8,0.1-5.6-0.2-8.5-1.2v-4.1c1.7,0.6,3.2,0.9,4.6,0.8l3.8-3.2c-3.1-0.7-6-2.2-8.5-4.3V139
	c1.9,2.5,4.6,4.7,8.3,6.2l0,0C107.2,145.2,107.3,145.1,107.3,145L107.3,145z M107.3,101.8L107.3,101.8c-0.1-0.1-0.1-0.1-0.2-0.2
	c-3.3,1.7-6,3.6-8.3,5.7v8.9c2-3.7,4.9-6.8,7.9-8.6c0.2,0.1,0.4,0.3,0.6,0.5V101.8L107.3,101.8z M107.3,94.5v3.6
	c-1.2,0.5-3,1.1-5.4,2c-0.9,0.3-2,0.7-3.2,1.2v-5.4c0.4-0.1,0.8-0.2,1.2-0.3c-0.3-0.1-0.7-0.3-1.2-0.5v-7.5c0.5,0.7,1.4,1.6,2.3,2.4
	C102.7,91.3,105.5,93.1,107.3,94.5L107.3,94.5L107.3,94.5z M107.3,80.7v5.4c-1.9-0.8-3.7-1.3-5.4-1.3c-1.7,0-2.7,0.3-3.2,0.7v-5.9
	C101.6,79.6,104.5,80,107.3,80.7L107.3,80.7L107.3,80.7z M107.3,44.3v2.4h-1.8l-0.9,8.2h2.8v6.8l-0.1-3.6h-3.8l-0.6,8.2h4.6v4.7
	h-7.1v7.4c-0.5,0-1,0-1.4,0V66.3h2.2l0,0l0.6-8.2h-2.7V55h2.5l0,0l1.1-8.2h-3.6V44C101.6,44.2,104.6,44.3,107.3,44.3L107.3,44.3
	L107.3,44.3z M107.3,40v1.7h0c-0.6,0.4-1.5,1-2.7,1c-1.2,0-2.2-0.6-2.7-1c-0.6,0.4-1.5,1-2.7,1c-0.1,0-0.2,0-0.3,0v-1.5
	c0.1,0,0.2,0,0.3,0c1.2,0,2.2-0.9,2.2-1c0.3-0.3,0.7-0.3,1,0c0,0,1,1,2.2,1c1.2,0,2.2-0.9,2.2-1C107,40.1,107.2,40,107.3,40
	L107.3,40L107.3,40z M107.3,36L107.3,36c-0.2,0-0.4,0.1-0.5,0.2c0,0-1,1-2.2,1c-1.2,0-2.2-0.9-2.2-1c-0.3-0.3-0.7-0.3-1,0
	c0,0-1,1-2.2,1c-0.1,0-0.2,0-0.3,0v1.5c0.1,0,0.2,0,0.3,0c1.2,0,2.2-0.6,2.7-1c0.6,0.4,1.5,1,2.7,1c1.2,0,2.2-0.6,2.7-1h0V36
	L107.3,36z M107.3,30.7L107.3,30.7c-0.2,0-0.4,0.1-0.5,0.2c0,0-1,1-2.2,1c-1.2,0-2.2-0.9-2.2-1c-0.3-0.3-0.7-0.3-1,0c0,0-1,1-2.2,1
	c-0.1,0-0.2,0-0.3,0v1.5c0.1,0,0.2,0,0.3,0c1.2,0,2.2-0.6,2.7-1c0.6,0.4,1.5,1,2.7,1c1.2,0,2.2-0.6,2.7-1h0V30.7L107.3,30.7z
	 M107.3,25.1c-0.2,0-0.4,0.1-0.5,0.2c0,0-1,1-2.2,1c-1.2,0-2.2-0.9-2.2-1c-0.3-0.3-0.7-0.3-1,0c0,0-1,1-2.2,1c-0.1,0-0.2,0-0.3,0
	v1.5c0.1,0,0.2,0,0.3,0c1.2,0,2.2-0.6,2.7-1c0.6,0.4,1.5,1,2.7,1c1.2,0,2.2-0.6,2.7-1l0,0V25.1L107.3,25.1z M107.3,7.2L107.3,7.2
	c-0.4-1.6-0.5-2.6-0.7-2.6c-0.5,1.9-1.2,8.6-7.8,16.3v4.2c0.8-0.9,1.6-1.8,2.4-2.7l0,0c0.3-0.1,0.5-0.3,0.7-0.4c0.6,0.4,1.5,1,2.7,1
	c1.2,0,2.2-0.6,2.7-1h0v-1.7c-0.2,0-0.4,0.1-0.5,0.2c0,0-1,1-2.2,1c-0.9,0-1.7-0.5-2.1-0.8c2.1-2.7,3.7-5.4,4.4-7.3l0,0
	c0.1,0.4,0.3,0.9,0.4,1.3V7.2L107.3,7.2z M107.3,98.1c1.2-0.5,1.8-1,1.9-1.7c0-0.3-0.7-1-1.9-1.8V98.1L107.3,98.1z M114.6,130.9
	L114.6,130.9c-0.7,4.6-2.9,9.4-7.3,14.1v14.8c2.5-0.1,5-0.6,7.3-1.4V153c-1.4,0.6-2.8,1.2-4.4,1.6l0,0c1.4-1.2,2.9-2.9,4.4-5.1
	V130.9L114.6,130.9z M114.6,108.6v14.8c-1.1-7.5-5.3-13.3-7.3-15.2v-6.4C110.3,104,112.7,106.3,114.6,108.6L114.6,108.6L114.6,108.6
	z M114.6,83.5L114.6,83.5c-2.4-1.2-4.8-2.2-7.3-2.8v5.4c2.4,1.1,4.9,2.7,7.3,4.7V83.5L114.6,83.5z M114.6,63.2l-5,4.3l-2.2-1.6
	l0,0.4h-0.2v4.7h7.3V63.2L114.6,63.2z M114.6,44.3L114.6,44.3c-1.5,0-4.2,0.1-7.3,0v2.4h2.2L110,55l0,0h-2.6v6.8l0.1,3.9l7.1-6.2V55
	h-1.7l-0.7-8.2h2.4V44.3L114.6,44.3z M114.6,41L114.6,41c-0.7-0.3-1.3-0.8-1.3-0.8c-0.3-0.3-0.7-0.3-1,0c0,0-1,1-2.2,1
	c-1.2,0-2.2-0.9-2.2-1c-0.1-0.1-0.3-0.2-0.5-0.2v1.7c0.6,0.4,1.5,1,2.7,1c1.2,0,2.2-0.6,2.7-1c0.4,0.3,1,0.7,1.8,0.9V41L114.6,41z
	 M114.6,37v1.5c-0.8-0.2-1.4-0.6-1.8-0.9c-0.6,0.4-1.5,1-2.7,1c-1.2,0-2.2-0.6-2.7-1V36c0.2,0,0.4,0.1,0.5,0.2c0,0,1,1,2.2,1
	c1.2,0,2.2-0.9,2.2-1c0.3-0.3,0.7-0.3,1,0C113.3,36.2,113.9,36.7,114.6,37L114.6,37L114.6,37z M114.6,31.7v1.5
	c-0.8-0.2-1.4-0.6-1.8-0.9c-0.6,0.4-1.5,1-2.7,1c-1.2,0-2.2-0.6-2.7-1v-1.7c0.2,0,0.4,0.1,0.5,0.2c0,0,1,1,2.2,1
	c1.2,0,2.2-0.9,2.2-1c0.3-0.3,0.7-0.3,1,0C113.3,30.9,113.9,31.4,114.6,31.7L114.6,31.7L114.6,31.7z M114.6,26.1v1.5
	c-0.8-0.2-1.4-0.6-1.8-0.9c-0.6,0.4-1.5,1-2.7,1c-1.2,0-2.2-0.6-2.7-1v-1.7c0.2,0,0.4,0.1,0.5,0.2c0,0,1,1,2.2,1
	c1.2,0,2.2-0.9,2.2-1c0.3-0.3,0.7-0.3,1,0C113.3,25.3,113.9,25.8,114.6,26.1L114.6,26.1L114.6,26.1z M114.6,20.4v4
	c-0.8-0.7-1.5-1.4-2.1-2.1c-0.6,0.4-1.4,0.7-2.4,0.7c-1.2,0-2.2-0.6-2.7-1v-1.7c0.2,0,0.4,0.1,0.5,0.2c0,0,1,1,2.2,1
	c0.5,0,1-0.2,1.4-0.4c-2-2.3-3.4-4.6-4.1-6.4V7.2C108,10.2,109.6,15.3,114.6,20.4L114.6,20.4L114.6,20.4z M114.6,42.5V41
	c0.3,0.1,0.6,0.2,1,0.2c1.2,0,2.2-0.9,2.2-1c0.3-0.3,0.8-0.3,1,0c0.3,0.3,0.3,0.8,0,1c-0.1,0.1-1.5,1.4-3.3,1.4
	C115.2,42.7,114.9,42.6,114.6,42.5L114.6,42.5z M114.6,149.6v-18.7c0.4-2.6,0.4-5.1,0-7.5v-14.8
	C126.7,123.2,121.1,140.3,114.6,149.6L114.6,149.6z M134.1,159v3.2c-3.1,0.3-6.8,2-8.4,6.8c-2.4,7.6,2.8,12.3,8.4,14.2v4
	c-0.3-0.1-0.7-0.2-1-0.3c-16.7-5.1-12.1-23.7-4.3-26.7C130.7,159.5,132.5,159.1,134.1,159L134.1,159L134.1,159z M134.1,103.8v34.5
	c-3.6,9.4-10.8,17.1-19.5,20.1V153c19.8-9.3,18.1-38.8,6.7-55.1c-1.8-2.5-4.1-5.1-6.7-7.2v-7.3C121.7,87.1,128.4,93.6,134.1,103.8
	L134.1,103.8L134.1,103.8z M134.1,51.5l-8.8,8.6l3.1,3.9c0.1-0.6,0.3-1.2,0.6-1.8c0.9-1.8,2.8-4.3,5.1-7V51.5L134.1,51.5z
	 M134.1,46.5v2.8l-17.2,15.4l11.5,0.8c0.5,2.9,3.9,4.4,5.7,4.9v7.3h-1.2v10.7l0,0l-4.2,1.2l-0.1,0V71.4h-8.1v13.7l-0.2-0.1
	c-1.2-1-2.5-1.9-3.9-2.6V71.1h-1.8v-7.8L134.1,46.5L134.1,46.5z M134.1,38.1v4.3l-19.5,17V55h2.4l0,0l-1.4-8.2h-1v-2.5l0.6,0
	c4.1,0,7-2.8,7.9-6.3c-0.6,0.3-1.3,0.6-2.1,0.6c-1.2,0-2.2-0.6-2.7-1c-0.6,0.4-1.5,1-2.7,1c-0.3,0-0.7,0-1-0.1V37
	c0.3,0.1,0.6,0.2,1,0.2c1.2,0,2.2-0.9,2.2-1c0.3-0.3,0.7-0.3,1,0c0,0,1,1,2.2,1c1.2,0,2.2-0.9,2.2-1l0.1,0.1
	c0.1-1.1-0.1-2.3-0.4-3.4c-0.5,0.3-1.2,0.5-1.9,0.5c-1.2,0-2.2-0.6-2.7-1c-0.6,0.4-1.5,1-2.7,1c-0.3,0-0.7,0-1-0.1v-1.5
	c0.3,0.1,0.6,0.2,1,0.2c1.2,0,2.2-0.9,2.2-1c0.3-0.3,0.7-0.3,1,0c0,0,1,1,2.2,1c0.5,0,1-0.2,1.3-0.4c-0.7-1.3-1.8-2.5-3.2-3.6
	c-0.4-0.3-0.9-0.6-1.3-0.9c-0.6,0.3-1.4,0.7-2.3,0.7c-0.3,0-0.7,0-1-0.1v-1.5c0.3,0.1,0.6,0.2,1,0.2c0.4,0,0.7-0.1,1-0.2
	c-0.7-0.6-1.4-1.1-2-1.7v-4c1.3,1.3,2.8,2.6,4.7,3.9c3.2,2.3,6.7,7.5,6.8,11.6c0.1,3.6-1.5,7.4-5.9,9.7c-1.5,0.8-0.4,1.7-0.4,1.7
	l1.1,1l12.4-9.4L134.1,38.1L134.1,38.1L134.1,38.1z M134.1,77.5h3.5V89l0.1,0c1.5-1.4,3.2-2.4,2.4-13.7c0,0,0,0,0-0.1l-0.3-1.6
	c-0.9-3.5-3.8-3.4-4.6-3.3c-0.2,0-0.6,0-1.1-0.2V77.5L134.1,77.5z M142.6,173.9L142.6,173.9c-0.9,2.1-3,4-6.8,4.8c0,0,4,1.8,2.5,5.3
	l0,0c-1.3-0.1-2.8-0.4-4.2-0.9v4c2.8,0.8,5.6,1.3,8.5,1.6v-4.1c-0.2,0-0.3,0-0.5-0.1c0.2,0,0.3-0.1,0.5-0.1V173.9L142.6,173.9z
	 M142.6,161.8L142.6,161.8c-2.1-1.9-4.9-3.1-8.5-2.9v3.2c1.6-0.2,3.1,0,3.9,0.3c1.8,0.7,3.7,2.9,4.6,5.6V161.8L142.6,161.8z
	 M142.6,97.2L142.6,97.2c-2.4,3.4-4.7,7.4-6,11.5c-0.8-1.7-1.6-3.3-2.5-4.8v34.5c1.3-3.5,2.2-7.2,2.5-11.1c0.2,8,2.6,14.4,6,19.3
	v-17.2c-0.1-0.7-0.2-1.4-0.3-2l0,0c-0.6-4.4-0.4-8.6,0.3-12.6V97.2L142.6,97.2z M142.6,53.7v0.2V53.7L142.6,53.7L142.6,53.7
	L142.6,53.7z M142.6,39.1v6.4c-2.5,2.7-5.8,6.2-8.5,9.5v-3.6l3-2.9l-1-1.1l-2,1.8v-2.8L142.6,39.1L142.6,39.1z M142.6,30.7
	L142.6,30.7l-8.5,7.5v4.3l8.5-7.4V30.7L142.6,30.7z M153.1,184.5v4.3c-3.5,0.4-7,0.5-10.5,0.1v-4.1
	C146.3,185.1,149.8,185,153.1,184.5L153.1,184.5z M153.1,173.8v5.8c-3.7,2.4-7.3,4-10.5,5v-10.6c0.8-1.9,0.6-3.9,0-5.8v-6.3
	c4.8,4.5,5.5,13,1.3,17.6C146.5,178.5,149.9,176.3,153.1,173.8L153.1,173.8L153.1,173.8z M153.1,148.8v7.8
	c-3.7-2.4-7.5-5.7-10.5-10.1v-17.2C143.9,136.1,146.7,143,153.1,148.8L153.1,148.8L153.1,148.8z M153.1,107.4
	c-7.1,11.4-5.1,23.9,0,33.4V107.4L153.1,107.4z M153.1,85.4V93c-4.4,5.2-8.8,12.9-10.5,21.8V97.2c1.7-2.4,3.4-4.5,5-6.1
	C149.2,89.4,151.1,87.5,153.1,85.4L153.1,85.4L153.1,85.4z M153.1,48.5L153.1,48.5c-4.2,2.5-8.8,5.1-10.5,5.2v0.2l8.9,25.2
	c0.4-0.6,0.9-1.3,1.5-2V65.6c-1.1-4-2.9-8.5-3.1-9.2c1.1-0.9,2.1-1.7,3.1-2.4V48.5L153.1,48.5z M153.1,41.3l-6.4-5.7l-4.1,3.6v6.4
	c2.5-2.7,4.4-4.6,4.4-4.6l6.1,5.1V41.3L153.1,41.3z M153.1,34.2V38l-6.9-6.1l-3.6,3.1v-4.4l3.1-2.8l0,0L153.1,34.2L153.1,34.2
	L153.1,34.2z M153.1,46v-4.7l2.3,2.1l0,0l1.6-1.8l-3.9-3.5v-3.9l11.1,9.5l-1.3,0.2l-3-1.9l-6.4,4.3L153.1,46L153.1,46z M165.3,179.6
	L165.3,179.6c-3.6,2.4-7.7,4.1-12.2,4.9v4.3c4.2-0.5,8.3-1.7,12.2-3.5V179.6L165.3,179.6z M165.3,156.6c-5.1-2.2-9.1-4.9-12.2-7.8
	v7.8c4.1,2.7,8.2,4.2,11.1,4.9c-0.9,2.7-5.9,8-11.1,12.2v5.8c4.1-2.6,8.4-6.2,12.2-10.6V156.6L165.3,156.6z M165.3,95.2L165.3,95.2
	c-5.6,3.8-9.5,7.9-12.2,12.2v33.4c3.3,6.2,8,11.1,12.2,13.5v-9.2c-13.8-12.5-9.3-34.3,0-42.8V95.2L165.3,95.2z M165.3,74.9
	c-0.6-0.3-1.1-0.5-1.7-0.7c-2.2,2.7-6.4,7.1-10.5,11.3V93c2.6-3.1,5.3-5.4,7.3-6.5c1.6,1.5,3.3,3.3,4.9,7.2V82.8l-0.1-0.2l0.1,0
	V74.9L165.3,74.9z M165.3,57v6c-0.5,0.3-1,0.8-1.7,1.5c-1.4,1.4-7.1,8.1-10.5,12.5V65.6c0.5,1.7,0.8,3.4,0.8,4.6
	c0,0,3.9-8.9,10.9-13.6C164.9,56.7,165.1,56.9,165.3,57L165.3,57L165.3,57z M165.3,46.9v4.6c-5.6-1.3-8.8,0.1-12.2,2.5v-5.6
	c4-2.4,7.5-4.7,7.5-4.7C162.1,45,163.7,46,165.3,46.9L165.3,46.9L165.3,46.9z M165.3,169v-12.3c0.2,0.1,0.4,0.2,0.6,0.3l0.9-1.8
	c-0.5-0.2-1-0.5-1.5-0.8v-9.2c1.2,1.1,2.5,2.1,4,3c10.8-22.4,0.1-45.5-1.8-47.5l0,0c-0.8,0.5-1.5,1.1-2.2,1.7v-7.2
	c0.2-0.1,0.3-0.2,0.5-0.3c-0.1-0.4-0.3-0.8-0.5-1.2V82.8c25.2,33.4,15.3,67,1.3,84.5C166.2,167.9,165.7,168.4,165.3,169L165.3,169z
	 M233.1,107.8v1.7l-2.1,0C231.2,109.4,231.9,108.7,233.1,107.8L233.1,107.8L233.1,107.8z M233.1,82.1v8.4
	c-15.2,14.7-24.1,31.7-13.8,50.6c2-6.3,7.9-10.1,13.8-10.3v4.4c-3.3,0.5-6.4,2.5-7.5,3.5c-3.6,2.9-2.3,6.9,0.2,7.9
	c2.5,1,3-0.1,3.4,0.8c0.6,1.2-2.7,2.2-1,4.6c1,1.5,2.9,2,4.9,2v6.4c-12.9,3.1-30.7-4.4-36.7-29c0.9,15.7-10.5,37.9-20.6,47
	c-3.3,2.9-6.8,5.2-10.5,6.9v-5.7c5.3-3.5,9.6-8.3,13-13.8l0,0c10.6-17.1,12.4-40.4,7.7-56.7c-5.9-20.3-12.5-23.6-20.7-26.4v-7.8
	c14.9,6.9,26.9,23.9,29.9,41.4c-0.8-4.7,5-28.1,18.6-41.6c-23.8,2.6-42.3-6.6-46.7-11.1c-0.7-0.7-1.2-0.8-1.8-0.5v-6
	c11.8,7.9,34.6,14.2,57.9,11.8c1.4-0.1,0.8,0.8,0.7,0.8c-8.4,7.6-20,27.4-21.8,46.9l0,0c-1.1,16.3,5.5,36.8,22.1,37.7
	c-12.3-8.3-25.9-33.3-4.7-59.1C223,90.8,227.5,86.4,233.1,82.1L233.1,82.1z M233.1,56.8L233.1,56.8c-5.2-5.5-8.6-10.2-9.4-12.1
	c0,0-33.7,16.1-58.4,2.2v4.6c2.5,0.6,5.4,1.6,9,3.4c14.1,6.8,44.8-1.5,45.8-2.5c2.2,3.6,7.3,8.9,13,13.5V56.8L233.1,56.8z
	 M233.1,90.5c6.3-6.1,13.6-11.7,21.2-17c-8.3-4.6-15.7-11-21.2-16.7V66c4.3,3.4,8.8,6.4,12.7,7.9c-4.8,2.7-9,5.5-12.7,8.3V90.5
	L233.1,90.5z M259,94.5L259,94.5h-10.4c0,0-10.8,9.3-15.5,13.3v1.7l12.6-0.2c1.3,6.6-1,14.4-0.7,28.9c-2.4-5.2-7.1-7.5-11.9-7.4v4.4
	c3-0.5,6.2,0.4,8.4,4.6c4.3,8.3-2.9,13.6-6.1,14l0,0c-0.8,0.1-1.6,0.2-2.4,0.2v6.4c6.1-1.5,11.2-5.3,13.4-10.9c0,0,0-0.3,0.1-0.9
	c2,7.2,6.3,11.3,12.4,11.5v-5.3c-0.1,0-0.2,0-0.3-0.1l0,0c-2.1-0.5-3.2-1.8-4.3-2.9c-3.6-3.3-3.6-17.5-3.3-21.5
	c0.3-3.4,1.1-14.8,0.7-19.3c-0.4-4.5-2.3-7.3-5.7-6.6c4.3-3.5,9.2-4.7,12.9-4.9V94.5L259,94.5z M286.2,92.2v5.2l-5.6,2.3
	c0,0,0,23.6-0.3,26.9c-0.3,3.3,1.1,20.3-7.8,21.9l0,0c3.9,1.7,9.2,4.8,13.6,6.4v4.5c-1.3-0.4-2.3-0.7-2.7-0.9
	c-1.5-0.4-9.6-2-18.4,0.8c-2.2,0.7-4.2,1-6,0.9v-5.3c3.7,0.6,8.4-0.1,12.9-1.8c-8.8-4.4-12-10.1-10.9-20.1c0.7-6.3,0.8-16.7,1.1-19
	c0.3-2.3,0.1-14.4,0.1-14.4c-0.9-0.1-1.9-0.1-3.1-0.1v-5.1h7.8c0,0,0.3,25.2,0.2,27.8c-0.1,2.6-0.4,9.8-1,14.4
	c-0.5,4.1,1.5,7,3.7,7.1c3.1,0.2,4.2-2,5-4.5c1-3,1.7-11,1.7-13.6c0-2.6,0-31.2,0-31.2C279,94.5,282.8,93.6,286.2,92.2L286.2,92.2z
	 M286.2,69.8c-0.8,0-1.7,0-2.4,0l0,0c-0.5,0-1.6,0.3-1.5,0.7c1.6,0.9,2.9,2,3.9,3.3V69.8L286.2,69.8z M286.2,87.6v-4.8
	c-0.9,0.8-2.2,1.5-3.8,1.9c-2.8,0.7-8.1,0.8-12.1-3c-2.4-2.3-5-7-2.1-11.6c2.9-4.6,9.2-7.7,15.3-7.9c0.9,0,1.9,0,2.8,0.1v-6
	c-3.8,0-8,0.8-12.7,2.7c-11.3,4.5-14.5,16.5-10.2,24.1c3.5,6.2,12.4,9.2,21.2,5.3C285,88.2,285.6,87.9,286.2,87.6L286.2,87.6z
	 M310.5,94.5l-10.5,0c0,0-3.3,2.9-7,6.1c0.1-7.4,0.1-12.8,0.1-12.8c-1.5,1.7-4.1,3.2-6.9,4.4v5.2l2-0.8c0,0-0.3,26.8-0.5,35.3
	c-0.3,8.1,1.1,18.7,3.5,24.1c-1.4,0.1-3.1-0.4-5-1.1v4.5c3.4,1,9,2.5,11.9,1.7c-2.2-4.2-4.8-13.7-5.3-19.7c-0.2-2.7-0.1-18.7,0-32.6
	l4.4,0.2c1.3,5.6-1,11.9-0.5,29.3c0.1,2.6,0.3,5,0.6,6.9c1.3,8.6,6.4,13.1,13.1,13.7v-5.1l-0.2,0l0,0c-2.1-0.5-3.3-1.9-4.5-2.9
	c-3.6-3.3-4.2-17.1-3.8-21.1c0.3-3.4,1.6-14.1,1.1-18.6c-0.4-4.5-2-8.4-5.4-7.7c4.9-4,9.3-5,12.8-5V94.5L310.5,94.5z M310.5,80.7
	c-7.1-4.7-12.8-2-15.8,0.7c-2.6,2.3-5.2,4.5-8.5,6.2v-4.8c2.6-2.4,2.4-6,0-9.1v-4c8.2,0.3,19.3,2.3,19.3,2.3
	c-2.5-4.5-10.8-9.2-19.3-9.8v-6c10.8-0.1,17.9,6,22.4,9.7c0.7,0.6,1.3,1.1,1.9,1.7V80.7L310.5,80.7z M333.8,93.1v4.8l-1.9,0.6
	c0,0,0.3,23.7,0,26.9c-0.3,3.3,1.3,19.3-7.7,22.1l0,0c3.9,0.9,7,2.2,9.5,3.6v6.3c-2.7-0.7-8.2-1.8-15.2,0.4c-2.8,0.9-5.6,1.2-8.1,1
	v-5.1c3.7,0.7,8.2,0.1,12.8-1.6c-8.8-4.4-11.7-9.8-11.7-19.9c0-6.2,0.4-15.9,0.7-18.2c0.3-2.3,0-15.6,0-15.6
	c-0.6-0.1-1.1-0.1-1.8-0.1v-3.8l6,0c0,0,0.4,25.2,0.2,27.8c-1.3,13.4,0.7,19.7,4.5,20.7c2.2,0.6,3.5-1.2,4.3-3.8
	c1-3,1.4-11,1.4-13.5c0-2.6,0-31.2,0-31.2C329.3,94.3,331.6,93.8,333.8,93.1L333.8,93.1z M310.7,80.9c-0.1,0-0.1-0.1-0.2-0.1V67.8
	c7.6,7.3,12.1,16.7,13.8,21.4C324.2,89.3,317.8,85.7,310.7,80.9L310.7,80.9L310.7,80.9z M333.8,157.4c0.7,0.2,1.3,0.4,1.6,0.5
	c1.5,0.4,10.8,3.3,14.9,2.3c-2.2-4.7-6.2-14.6-6.1-21.9c0.1-4.9-0.1-51.6-0.1-51.6c-2.3,2.5-5.9,5-10.3,6.6v4.8l5.8-1.9
	c0,0-0.1,26.2-0.4,34.7c-0.3,8.1,1.3,19,4.1,24.2c-2.8,0.2-5.6-1.8-9.5-3.9V157.4z"/>
</svg>
