<?xml version="1.0" encoding="utf-8"?>
<!-- Generator: Adobe Illustrator 19.0.0, SVG Export Plug-In . SVG Version: 6.00 Build 0)  -->
<svg version="1.1" id="Слой_1" xmlns="http://www.w3.org/2000/svg" xmlns:xlink="http://www.w3.org/1999/xlink" x="0px" y="0px"
	 viewBox="-246 273 119 248" style="enable-background:new -246 273 119 248;" xml:space="preserve">
<style type="text/css">
	.st0{fill:#DEDEDE;}
</style>
<g transform="translate(0.000000,1785.000000) scale(0.100000,-0.100000)">
	<path class="st0" d="M-1899.4,15056.2c0-2.2-1.7-5.8-4.1-8.9c-2.4-2.9-5.6-8.3-7.4-12.3c-1.7-3.8-4.5-8.9-6.2-11.2
		c-1.7-2.2-3.8-6.2-4.6-8.9c-0.8-2.6-3-6.7-4.8-9.1c-1.7-2.4-4.2-7.7-5.4-11.8c-1.2-4.1-3.3-9-4.6-11c-1.5-2-3.8-7.1-5.3-11.5
		c-1.3-4.5-4.1-10.8-5.8-14.1c-1.9-3.4-3.3-7.7-3.3-9.4s-1.7-8.3-3.7-14.7c-8.5-25.9-8.6-52.1-0.3-76.2c2.2-6.2,4-12.4,4-13.9
		c0-1.3,1.5-4.6,3.3-7.3c1.9-2.8,4.5-7.1,5.8-9.8c1.5-2.6,6.2-8.7,10.8-13.5c7.3-7.7,10.4-13.1,10.4-18.1c0-0.8-4.9-6.5-10.8-12.6
		c-14.1-14.3-35.4-37.6-41.9-45.6c-2.9-3.6-8.2-9.7-11.9-13.6c-3.7-4-8.5-9-10.4-11.2c-2-2.1-5.4-4.9-7.4-6
		c-3.3-1.7-3.8-1.7-5.4,0.4c-0.9,1.3-2.4,5.8-3.2,10c-0.8,4.4-2.6,9.3-4,11c-1.3,1.6-4,6.5-5.8,10.7c-3.4,7.5-5.7,10.8-13.5,20.5
		c-2.2,2.6-5.2,6.7-6.6,8.9c-6.7,11-60.6,67.8-70.3,74.6c-5.6,3.8-7.4,3.6-12.2-1.9c-4-4.6-5.8-9.7-7.5-20.5
		c-0.5-3.3-2.5-10-4.6-15.2c-2.1-5.4-4.2-14.5-5.2-21.8c-0.8-6.9-3-17.9-4.9-24.5c-4.4-15.9-6.1-35.3-5.3-59.9
		c0.8-19.3,0.9-20.6,5.3-30.4c2.5-5.6,5-11.9,5.6-14.1c0.4-2.1,2.2-5.7,3.8-7.9c1.7-2.1,4.6-7.1,6.6-10.8c1.9-3.8,4-7,4.5-7
		s2.1-2,3.4-4.2c3.6-6.3,17.6-20.5,25.3-25.4c3.7-2.5,7.7-6.5,9.1-9.3c2.5-4.8,2.5-4.9-0.3-8.7c-1.6-2.1-2.9-4.2-2.9-4.8
		c0-0.4-2.2-4.4-4.9-8.6c-2.8-4.1-7.4-11.5-10.3-16.4c-2.9-4.8-7.1-11.5-9.4-14.9c-2.2-3.4-5.4-8.9-7-12.2
		c-4.8-9.7-10.4-20-12.2-21.9c-2.1-2.6-9.7-2.4-12,0.5c-1.1,1.2-2.9,4.8-4.2,7.9c-1.2,3-4.1,7.7-6.5,10.3
		c-7.5,8.2-37.7,38.1-42.8,42.6c-9.9,8.7-36.9,28.8-45.9,34.2c-2.1,1.3-6.7,4.6-10.4,7.3c-7.9,5.8-17.1,7.9-20.4,4.6
		c-3.6-3.6-4.9-25.5-4.9-84.2c-0.1-58.7,0.4-66.1,5.7-77.2c1.5-3,4.1-8.7,5.9-12.7c2-4,5.2-10.4,7.4-14.3c4.5-8.2,22.3-28.8,27.5-32
		c2-1.2,4.4-3.3,5.4-4.5c1.1-1.3,4.4-3.6,7.3-5c3-1.6,7.3-4.1,9.4-5.8c2.2-1.6,6.9-3.7,10.3-4.6c10.6-2.6,12.8-9.3,6.9-21.2
		c-1.9-3.6-4-9.5-4.6-13.2c-0.8-3.7-3.3-11.4-5.8-16.9c-2.5-5.6-4.9-12.4-5.4-15.2c-0.5-2.9-2.2-8.1-4.1-11.5
		c-1.7-3.4-3.7-9.1-4.5-12.6c-2.5-11.1-6.1-12.7-11-4.8c-5.8,9.1-21.9,23.8-36.4,32.9c-3.2,2.1-8.1,5.7-11.1,8.1
		c-2.9,2.2-6.1,4.2-7,4.2s-4.9,2.1-8.7,4.8c-4,2.6-8.9,5.4-11.1,6.2c-2.1,0.7-5.2,2.4-6.7,3.7c-1.5,1.5-6.2,4-10.6,5.6
		c-4.2,1.7-10.2,4.8-13,6.6c-2.8,2-6.1,3.6-7.3,3.6c-1.3,0-4.9,1.7-8.2,3.8c-3.3,2-10.6,5.2-16.3,6.7c-9.5,2.9-10.3,2.9-12.4,0.9
		c-3-3.2-3.4-14.7-1.1-43.9c1.3-16.9,3-29.6,5.3-38.6c2-7.5,4.1-18.2,4.9-23.8c0.8-5.7,2.8-13.5,4.6-17.5c1.7-4,4.1-10.4,5.2-14.5
		c2.2-9,11.6-27.9,17.2-34.9c6.3-8.1,27.1-28.7,28.8-28.7c0.9,0,4.1-2.1,7.3-4.5c3.2-2.5,7.5-5,9.9-5.4c2.4-0.5,6.7-2.4,9.9-4.2
		c3-1.7,9.8-4,15.1-5c5.2-0.9,9.9-2.5,10.6-3.6c1.6-2.4,0-17.5-3-30c-1.3-5.6-3-18.4-3.8-28.6c-0.8-10.2-2-23-2.6-28.4
		c-0.8-5.4-1.3-13.2-1.3-17.2c0-9-2.1-17.3-5-19.4c-4.2-3.3-8.1-1.9-15.9,5.8c-4.2,4.2-10.7,8.9-14.8,10.7c-4,1.9-8.9,4.4-10.7,5.7
		c-1.9,1.3-6.3,3-9.9,4s-9.3,3-12.7,4.8c-3.4,1.6-11.2,4.2-17.2,5.6c-6.1,1.5-13.6,3.8-16.9,5.2c-3.3,1.5-11.2,3.6-17.9,4.6
		c-6.5,1.2-17.8,3.6-25.1,5.6c-7.7,2-18.9,3.8-26.7,4.2l-13.6,0.8v-6.7c0-5.4,0.5-6.9,2.5-7.5c3-0.9,3.7-2.5,6.2-14.3
		c0.9-4.9,3.2-11.8,5-15.2c1.7-3.4,3.8-9.5,4.8-13.5c0.8-4,3.3-10.6,5.3-14.5s4.4-9.9,5.3-13.1c0.8-3.2,2.9-7.9,4.6-10.6
		c1.7-2.6,4.1-7.1,5-10c1.1-2.9,3.4-7.7,5.4-10.4c1.9-2.8,3.4-5.8,3.4-6.7s1.9-4,4.1-6.7c2.2-2.9,5.6-7.8,7.1-11.1
		c5-9.5,19.4-23.3,32.5-30.9c3.3-1.9,7.1-4.6,8.5-6.1c1.3-1.5,3.2-2.6,4.1-2.6c0.8,0,5-1.9,9.3-4.1c9.5-5.2,34-10.3,48.3-10.4
		c20,0,22.3-2.9,22.3-26.8c0-8.3,0.5-18.2,1.2-22.2c0.8-4,2-16,2.8-27c0.8-10.8,2-25.5,2.8-32.4c1.2-11.2,1.1-12.7-1.1-14.1
		c-3.4-2.6-7.1-2-13.2,2.1c-3.2,2.1-8.3,4.2-11.9,4.6c-3.6,0.5-14,2.8-23.5,5.2l-17.2,4.2h-55c-44.7,0-55.4-0.4-57.1-1.9
		c-3.4-2.8-2.9-12.3,0.9-16.9c1.7-2,4.6-6.6,6.6-10.3c2-3.6,4.9-8.6,6.5-10.8c1.6-2.4,5.3-8.2,8.2-13.1c2.9-4.8,6.7-10.6,8.6-12.8
		c1.9-2.4,5-6.6,7-9.5c3.6-5.2,11-15.2,18.8-25.3c2.1-2.9,10.8-12,19.2-20.4c16.7-16.7,29.6-25.1,42.6-27.9
		c3.8-0.8,10.6-2.9,14.9-4.5c11.4-4.2,31.6-6.2,52.8-5.2l17.7,0.9l2.1-4.1c1.2-2.2,2.1-5.2,2.1-6.5s1.6-5.7,3.4-9.7
		c1.9-4,4.2-11.9,5.3-17.7c0.9-5.7,3.3-12.8,5-16c3.4-5.8,8.3-28,7-31.7c-0.9-2.4-7.8-2.6-11.8-0.5c-12.8,6.9-81.3,6.7-114.4-0.1
		c-7-1.5-19.6-3.3-27.9-4.2c-10.2-1.1-16-2.2-17.9-3.7c-2.6-2.2-2.6-2.4-0.4-8.1c1.3-3.2,4.2-7.9,6.5-10.7c2.4-2.6,6.6-7.9,9.5-11.6
		c2.9-3.8,8.5-10.6,12.4-15.1c3.8-4.4,8.6-10.2,10.6-12.7c4.6-6.1,46.1-47.1,53.3-52.6c12.2-9.4,22.3-14.9,35.2-19.3
		c17.1-5.8,27.6-7.4,48.9-7.4c19.6,0,29.2,1.5,39,6c3.7,1.9,8.5,3.3,10.3,3.3c5.7,0,12-5.3,14.5-12c1.2-3.4,3.7-8.2,5.6-10.7
		c2-2.5,4.4-6.9,5.4-9.8c0.9-2.9,3.3-7.4,5.2-10.2c1.9-2.8,4.1-7.3,5-9.9c0.8-2.6,2.8-6.3,4.5-8.2c1.6-1.9,4-6,5.2-9.1
		c1.3-3.3,3.4-7.7,5-9.7c4.8-6.9,2.4-7.7-21.9-7.7c-28.3,0-49.5-2.1-61.1-6c-5.2-1.7-14.9-4.1-21.8-5.3c-6.9-1.2-15.7-3.6-19.7-5.3
		c-4-1.7-10.8-3.8-15.2-4.6c-4.4-0.9-12.4-3.6-18-6.1c-5.6-2.5-10.7-4.5-11.4-4.5c-0.8,0-2.4-1.1-3.6-2.5c-2.1-2.4-2-2.8,3.6-9.1
		c5.6-6.6,23.5-22.7,36.1-32.3c11.5-8.9,18-13.6,20.8-15.2c1.6-0.8,4.6-3.2,6.7-5c6.6-5.6,16.8-12.2,24.6-15.9c4-1.9,8.5-4.5,9.9-6
		c1.5-1.3,4.9-3,7.8-3.8c2.8-0.7,7.3-2.8,9.9-4.6c7.1-5,14.1-6.1,42.4-7c29.4-0.9,45.7,0.8,54.6,5.4c3,1.7,8.7,4.1,12.6,5.3
		c3.8,1.3,8.3,3.7,9.9,5.4c1.6,1.7,5.2,3.6,7.9,4c4.5,0.9,5.3,0.5,9.7-4.1c2.6-2.9,7.3-8.3,10.3-12.3c10.3-13.5,16.7-21.9,20-27
		c1.9-2.8,4.1-5.3,5-5.7c0.9-0.3,3.2-2.9,4.9-5.8c1.9-2.9,3.7-5.3,4.2-5.3c2,0,10.3-14,10.3-17.3c0-4.9-1.9-6-14.5-8.5
		c-6.2-1.2-14.1-2.8-17.8-3.4c-3.6-0.7-9-2.6-11.9-4.4c-2.9-1.7-8.3-3.8-12.2-4.6c-3.7-0.9-9.5-3.3-12.7-5.4c-3.2-2-7.3-4.1-9-4.6
		s-7.4-3.2-12.6-5.8c-5-2.6-10.7-5.4-12.6-6.2c-7.8-3.8-21.8-11.5-23.7-13.1c-1.2-1.1-4.4-2.9-7.3-4.2c-7.7-3.4-23.1-13.8-23.1-15.3
		c0-4.1,7.7-12,15.1-15.7c4.5-2.2,9-4.8,10-5.7c1.1-1.1,5.3-3,9.5-4.6c4.1-1.5,8.1-3.6,9-4.6c0.8-0.9,5.6-3.4,10.6-5.3
		c5-1.9,9.8-4.2,10.6-5.3c0.8-1.1,4.6-2.8,8.3-4.1c3.8-1.2,9.3-3.6,12.2-5.2c2.9-1.7,8.9-4.1,13.1-5.3c4.2-1.2,9.7-3.4,12-4.8
		c2.4-1.5,9-3.4,14.7-4.5c5.8-1.1,14.1-2.9,18.6-4.1c6.2-1.7,11.4-2,20.5-1.5c15.2,0.9,40.7,6.6,48.7,10.7c3.3,1.7,8.3,3.8,11.2,4.8
		c2.9,0.9,6.7,2.9,8.6,4.2c3.7,2.9,9,6.6,20.4,14.3c12.3,8.3,15.2,7.5,33.7-10.2c4.8-4.6,9.1-8.3,9.7-8.3c0.5,0,5.3-4.4,10.6-9.7
		c5.3-5.3,11.2-10.7,13.4-11.9c4.6-2.9,4.8-8.6,0.5-12.6c-1.7-1.6-7.5-4.1-13-5.7c-5.4-1.5-11.5-3.8-13.5-5.3c-2.1-1.5-7-3.8-11-5.2
		c-3.8-1.3-9.1-4-11.5-5.8c-2.5-1.9-5.2-3.4-5.8-3.4c-0.8,0-5-2.4-9.4-5.3c-4.4-2.9-8.2-5.3-8.7-5.3c-0.9,0-17.1-10.6-22.5-14.8
		c-2.1-1.7-6.5-4.5-9.5-6.3c-7.8-4.6-16.3-10.4-21.9-15.2c-2.6-2.1-6.2-4.9-7.9-6.2c-3.4-2.2-7.3-11.8-5.8-14.1
		c0.5-0.8,4.4-2.4,8.5-3.6c4.1-1.2,9.9-3.6,12.8-5.3c2.9-1.6,8.3-3.7,11.9-4.6c3.7-0.8,8.7-2.9,11.2-4.6s8.9-4,13.9-5.2
		c5.2-1.2,11.2-3.3,13.8-4.8c2.4-1.5,9.3-3.7,15.2-5.2c5.8-1.3,14.9-4,20.1-5.8c6-2.1,15.1-3.8,24.5-4.8c8.3-0.8,17.6-2,20.6-2.5
		c3-0.5,8.3-0.5,11.9,0c3.4,0.5,11.8,1.6,18.4,2.4c8.9,0.9,14.1,2.2,19.8,5.2c4.4,2.1,10.2,4.6,13.1,5.6c2.9,0.9,6.7,3,8.6,4.6
		c1.9,1.7,5.3,4,7.8,5.3c2.5,1.2,11.6,9.4,20.2,18.1l15.7,15.7l9.1-3.4c5-1.9,9.8-4.4,10.8-5.6c0.9-1.2,4.2-3.3,7.3-4.6
		s7.3-3.8,9.4-5.7c2-1.7,6.2-4.1,9.3-5.3c3.4-1.5,5.6-3.2,5.6-4.5c0-3-8.7-11.1-15.9-14.7c-3.3-1.7-7.9-4.5-10.2-6.5
		c-2.4-1.9-7-5.6-10.3-8.1c-3.3-2.5-8.7-6.9-12-9.5c-3.3-2.8-6.5-5-7.1-5s-4.4-2.6-8.2-6c-3.8-3.2-9.4-7.8-12.2-10.2
		c-2.9-2.4-7.8-6.7-10.8-9.7c-3-2.9-9.3-8.2-13.6-11.9c-4.5-3.6-8.1-7.5-8.1-8.6c0.1-5.7,10.3-12.3,23.3-15.1
		c5.3-1.1,12.4-3.4,16-5.2c3.6-1.9,10.3-4.1,15.1-4.9c4.6-0.8,11.6-2.9,15.5-4.6c3.8-1.9,12.2-3.8,18.5-4.8
		c13.8-1.7,24.7-4.6,27.2-7.3c1.6-1.5,7.9-1.9,33.7-1.9c19.8,0,31.9,0.5,31.9,1.3c0,2.1,5.8,5.3,14.7,7.7c4.6,1.3,10.8,4.1,13.6,5.9
		c2.8,2,5.9,3.6,6.9,3.6s3.7,1.7,6.1,3.7c2.4,2.1,6.6,5,9.3,6.7c5,2.9,18,17.5,22.9,25.4c1.5,2.4,4.6,5.6,7,7
		c4.5,2.5,4.5,2.5,12.6-0.4c4.5-1.5,9.1-2.8,10.2-2.8s5.8-1.9,10.4-4c4.6-2.2,12.3-4.8,17.2-5.8c4.8-1.1,11-3.2,13.5-4.6
		c2.6-1.6,9.5-3.7,15.2-4.8c5.8-1.1,13.8-3.4,17.7-5.2c4-1.9,11.4-4,16.3-4.8c4.9-0.8,13-2.9,17.8-4.8c4.9-1.9,14.5-4.2,21.6-5.3
		c7-1.1,17.3-3.3,22.9-5.2c5.6-1.9,13.1-3.3,16.8-3.3c6.1,0,6.7,0.4,8.9,4.1c1.2,2.2,3.4,5.7,4.9,7.5c1.5,2,2.6,5,2.6,6.9
		c0,2,0.7,3.2,1.7,3c1.2-0.3,1.6,7.7,1.6,36.5v36.9l-2.9,0.7c-1.7,0.4-7.8,1.5-13.6,2.2c-5.8,0.8-15.3,2.9-21.2,4.8
		c-5.8,1.7-16.3,4.2-23.3,5.7c-6.9,1.5-15.6,3.8-19.2,5.3c-3.7,1.3-10.4,3.3-15.2,4.2c-4.6,0.8-12,3.2-16.4,5
		c-4.4,2-11.2,4.4-15.2,5.3c-4,0.8-10.6,3.6-14.5,5.9c-8.9,5.2-9.9,9-4.8,16.5c3.2,4.5,4.4,8.5,10.7,37.2c2.5,11,2.5,18.2,0,31.6
		c-3.6,18.6-6.9,29.6-11.8,39.1c-2.6,5.2-4.8,9.9-4.8,10.7c0,0.8-1.2,2.5-2.8,4c-1.6,1.3-4.2,5.3-5.8,8.6c-1.7,3.3-4.1,6.7-5.3,7.8
		c-1.2,0.9-3.4,4.2-4.9,7.1c-1.5,3-4.6,7.7-6.9,10.3s-6.5,7.9-9.4,11.6c-2.9,3.7-7,8.7-9.3,11.2c-2.1,2.5-6.1,7.1-8.7,10.2
		c-20.1,23.7-29.1,32.8-32.1,32.8c-0.4,0-3.4-3.6-6.6-7.9c-4.1-5.6-6.3-10.3-7.4-15.6c-0.9-4.1-3-10.3-4.8-13.8
		c-1.7-3.4-4.1-10.6-5.2-15.9c-1.2-5.3-3.6-13.2-5.3-17.6c-1.7-4.5-3.8-12.2-4.6-17.1c-0.8-5-2.9-14.7-4.6-21.6
		c-2.8-10.7-3.3-15.6-3.4-37.2c-0.1-17.9,0.3-26.2,1.6-29.8c0.9-2.6,1.3-5.2,0.9-5.7c-0.5-0.4-3.2-1.1-5.9-1.5
		c-4-0.5-6.1,0.1-10.2,2.9c-2.8,1.9-8.3,4.6-12.2,6.1c-4,1.5-7.4,3.3-7.9,4c-0.7,1.2-8.3,5.4-25.5,14.4c-9.8,5-11,6.3-10,11.1
		c0.5,2.2,2,5.6,3.2,7.4c1.3,1.9,3.2,5.7,4.1,8.6s3.2,7.8,4.9,10.8c4.9,8.5,7.4,29.5,6.6,53.3c-0.9,22.2-2.5,31.1-6.9,37.7
		c-1.9,2.5-4.1,7.9-5.2,12c-1.1,4.1-2.8,8.3-3.8,9.5c-1.1,1.3-3.2,4.6-4.6,7.5c-1.5,2.9-4.6,8.3-7,12.2c-2.5,3.8-6.9,10.7-9.8,15.6
		c-5.7,9.3-13.1,20.1-18.2,26.4c-1.7,2.2-4.2,6.1-5.6,8.6c-1.3,2.5-4.2,6.9-6.5,9.5s-7,8.5-10.7,13c-3.6,4.4-7.7,7.9-8.9,7.9
		c-1.2,0-3.3-1.6-4.6-3.4c-1.3-1.9-3.7-4.9-5.3-6.9c-1.5-2-3.4-6.2-4.4-9.4c-0.8-3.2-3.6-9.5-6.1-14.3s-4.5-9.7-4.5-10.8
		c0-1.3-2-6.2-4.5-10.8c-2.4-4.6-4.9-11.1-5.4-14.4c-0.5-3.3-2.4-8.9-4.2-12.3c-1.7-3.6-4.4-11.6-5.7-17.8
		c-1.5-6.3-3.4-14.1-4.6-17.5c-1.2-3.3-3-13.1-4.1-21.8c-2.6-21-3.8-22.3-13-14.4c-2.9,2.5-7.5,6.5-10,8.6c-2.5,2.2-8.5,7-13.2,10.6
		c-10.8,8.3-22.5,18.6-22.5,20s11.1,16,13.8,18.1c1.1,0.9,2.6,3.8,3.6,6.5c0.8,2.6,2.9,6.7,4.6,9c1.7,2.4,4.2,8.6,5.7,13.9
		c1.5,5.4,3.6,11.9,4.6,14.5c5.6,13.4,6.3,53.5,1.2,64.7c-1.6,3.3-4,10.7-5.6,16.4c-1.5,5.8-3.8,12-5.2,14
		c-1.5,1.9-3.4,6.6-4.6,10.6c-1.2,4-3.6,9.4-5.3,11.9c-1.7,2.5-3.8,6.7-4.8,9.4c-0.8,2.5-3.6,7.8-6.1,11.8s-4.6,7.8-4.6,8.6
		c0,0.8-1.6,3.6-3.4,6.1c-1.9,2.5-4.6,7-6,10c-1.5,3-4,7.3-5.7,9.3s-3.4,5-4,6.7c-1.5,4.2-7.1,10.6-11.8,13.1c-4,2-4.2,2-6.5-1.1
		c-4.6-6-11.2-16.4-14-22.3c-1.6-3.3-4.2-8.1-5.7-10.6c-8.5-13.9-11.6-19.7-13-23.9c-0.8-2.6-3-6.7-4.8-9.1s-4-6.5-4.8-9.1
		s-3.2-7.4-5.2-10.7c-2-3.3-4.4-9.1-5.2-13c-0.8-4-2.9-9.5-4.6-12.6c-1.7-3-4.1-10.3-5.3-16.1c-1.2-5.8-2.9-11.4-4-12.3
		c-2.5-2.6-12.8,2.2-16.4,7.8c-1.6,2.5-5.6,7.8-8.9,11.8c-3.3,4-8.1,10.3-10.4,13.9c-2.5,3.7-5.7,7.8-7.3,9.1
		c-2,1.9-2.8,4.1-2.8,8.2c0,5.3,0.5,6,5.8,9.7c6,4.2,23.3,22.6,23.3,24.9c0,0.8,1.9,3.6,4,6.3c2.2,2.8,5,8.3,6.1,12.4
		c1.2,4.1,3.6,10,5.4,13.2c4.9,8.5,8.7,34.6,7.7,52.4c-1.5,23.5-4.4,43.4-7.7,52.2c-1.9,4.8-4,13.1-4.8,18.5c-0.9,5.8-3,13-5.3,17.2
		c-2,4-4.1,10.3-4.6,13.9c-0.5,3.7-2.4,9.3-4.2,12.4c-1.7,3.2-4.4,9.8-5.8,14.9c-1.6,5.2-3.7,9.5-4.9,9.9
		c-3.4,1.3-10.6-3.4-18.6-12.6c-4.1-4.8-9.4-10.8-11.8-13.4c-2.2-2.6-6.6-7.7-9.5-11.4c-2.9-3.6-7.1-8.7-9.3-11.2
		c-4.4-5-10.4-13-16.7-21.8c-2.1-3-5-7-6.3-8.7c-4.5-6-14.1-21.6-14.1-22.9c0-0.7-1.6-3.3-3.4-5.8c-2-2.5-4.5-7.3-5.7-10.7
		c-1.5-3.7-3.2-6.2-4.6-6.5c-3.8-0.8-12.3,8.5-14.8,16.1c-1.2,3.7-3.6,8.7-5.4,11c-1.7,2.4-4,7.1-5,10.4c-0.9,3.4-3.2,7.5-4.8,9.4
		c-2.2,2.2-3,4.5-2.9,8.6c0.3,6.6,2.8,9.4,10,11.6c3,0.9,7.5,3.3,9.9,5.4c2.4,2.1,4.8,3.8,5.4,3.8c3.8,0,31.9,30.1,31.9,34.2
		c0,0.5,2.1,4.1,4.6,8.1c2.6,4,5.3,9.7,6.1,12.6s3,8.9,4.9,13.2c3.3,7.8,3.4,8.6,4,44.3c0.5,42.4-2,78.8-6.1,88.9
		c-0.8,1.9-1.9,8.6-2.4,14.9c-0.7,7.5-1.6,12.3-3.2,14.1c-2,2.5-2.6,2.6-7.4,1.1c-2.8-0.9-7.4-3.6-10-5.8c-2.6-2.2-8.2-6.7-12.3-10
		s-10-8.1-13.2-10.6c-3.2-2.5-8.7-7-12.6-9.9c-8.7-6.9-49.6-47.5-55.3-55c-2.4-3.2-5.7-7.9-7.3-10.4c-1.7-2.5-3.8-4.6-4.9-4.6
		c-2.8,0-12.8,23.7-14.4,34c-0.8,4.8-3.3,12.2-5.4,16.3c-4.5,8.5-4.8,10.7-2.1,17.1c2,4.8,4.5,6,18.2,8.7c4.6,0.9,9.4,2.9,12.4,5.4
		c2.6,2.1,5.7,3.8,6.6,3.8c2.4,0,12.4,8.3,22.6,18.5c13.1,13.2,15.9,16.3,17.6,19.7c0.9,1.7,3.6,5.7,5.9,8.7
		c2.4,3.2,4.8,7.9,5.3,10.7c0.5,2.8,2.4,7.5,4.1,10.6c3.2,5.4,6.3,23,10,56.7c2,18.1,2.8,95.2,1.1,98.5c-0.9,1.7-2.8,2.6-5.4,2.6
		c-5,0-17.6-5.8-23.4-10.8c-2.4-2-5.2-3.7-6.1-3.7c-1.1,0-5-2.4-8.9-5.3c-4-2.9-7.8-5.3-8.7-5.3s-3.6-1.7-5.9-3.8
		c-2.4-2-6.7-5.3-9.7-7.3c-9.8-6.5-14.5-9.9-20.5-14.7c-20-15.7-27.8-22.2-33.1-27.6c-9.5-9.8-14.5-7.7-14.5,6.1c0,12-2.8,53-4,57.5
		c-0.7,2.8-0.5,4.9,0.5,6.2c1.7,2.4,10.2,6.1,13.6,6.1c3.6,0,28.2,7.8,33.5,10.6c2.5,1.5,7.1,3.7,10,5.2c3,1.3,8.3,4.6,11.8,7.3
		c3.3,2.6,6.9,4.8,7.7,4.8c0.9,0,3.3,1.7,5.6,4c2.1,2.1,7.1,6.7,11,10.2c4,3.4,8.1,8.1,9.1,10.3c1.2,2.1,3.7,6.1,5.7,8.6
		c2.1,2.5,4.4,7,5.3,9.9s3,7.4,4.9,10c1.7,2.8,4,8.3,5,12.6c1.1,4.4,3.3,11.1,5.3,15.3c1.9,4.1,4.2,12,5.3,17.9
		c0.9,5.7,3,13.1,4.6,16.5c1.6,3.6,3.8,14,5.3,24.9c1.5,10.2,3.8,22.1,5.4,26.4c2.8,8.2,2.5,14.4-0.7,17.1c-2.4,2-27.8-4.1-38.5-9.1
		c-4.4-2.1-11.2-4.5-15.2-5.3c-4-0.8-9.7-2.8-12.8-4.5c-3-1.9-7.8-3.8-10.6-4.8c-5-1.5-20-8.2-30.1-13.6c-2.9-1.5-8.9-4.5-13.2-6.6
		c-4.4-2.2-9.8-5.4-12-7.1c-4.6-3.4-8.7-4-11.1-1.1c-1.9,2.1-1.1,12.6,2,27.8c3.3,17.1,4.6,25.1,5.4,33.7
		c1.6,19.2,0.7,18.5,27.1,18.5c19.3,0,21.7,0.3,29.1,3.3c4.4,1.7,11.1,3.8,14.9,4.5c7.3,1.3,29.8,12,32.7,15.5
		c0.9,1.1,3.8,3.2,6.5,4.5c4.8,2.4,22.5,20.1,22.5,22.5c0,0.7,2.2,3.8,5,7.1c7.7,9.4,10.3,13,12.8,17.8c1.2,2.5,4,6.9,6.1,9.8
		c2.1,2.9,3.8,5.9,3.8,6.7c0,0.8,2.4,4.9,5.3,9.3c2.9,4.2,5.3,8.7,5.3,10c0,1.2,1.6,4.6,3.6,7.4c1.9,2.8,4.5,7.9,5.8,11.2
		c1.3,3.4,4,8.5,5.8,11.1c1.9,2.8,4,7.4,4.6,10.4c0.8,2.9,2.2,6.9,3.4,8.7c5.4,9,6.3,11.8,4.9,14.9c-2,4.2-4.5,4.6-26.8,3.3
		c-21.9-1.2-37-3-47.9-5.8c-4.2-1.1-14.8-2.8-23.7-4c-10.3-1.2-18.8-3-23.8-5.2c-4.2-1.9-12.2-4.2-17.5-5.4
		c-5.2-1.2-10.8-2.5-12.4-2.8c-2.4-0.5-3.3,0.1-4.4,3c-1.7,4.5-0.9,8.3,3.3,16.5c1.7,3.3,4.1,9.9,5.3,14.5
		c4.1,15.6,10.6,22.3,19.3,19.6c2.5-0.8,14.7-1.7,27-2.1c26.4-0.8,43.1,0.9,52.1,5.6c3.4,1.7,9.8,4.1,14,5.3
		c4.4,1.3,9.8,3.6,11.9,5.3c2.2,1.6,6.1,4,8.6,5.3s6.2,4,8.1,5.8c35.4,34.8,45.6,45.2,48.3,49.5c1.7,2.6,3.8,4.9,4.5,4.9
		s3.3,3.2,5.9,7c4.5,6.6,8.6,12.3,19.6,27.1c2.9,3.8,5.6,6.9,6.1,6.9c1.3,0,8.1,12.4,8.1,14.8c0,4.5-6.3,7.9-19.4,10.4
		c-10.4,2-21.9,2.6-58.6,3.3c-25.1,0.4-50.8,0.3-57.1-0.4s-12.7-0.8-14.1-0.3c-4.6,1.9-4.8,6.2-0.3,12.6c2.4,3.2,5.4,8.3,6.7,11.5
		c1.5,3.3,3.4,6.6,4.5,7.4c1.1,0.9,2.9,4.6,4.1,8.2c1.2,3.6,3.6,8.2,5.2,10.2c1.7,2,4,5.4,5.2,7.7c3.6,6.9,4.9,7.4,13.6,5
		c4.2-1.1,12.2-4,17.7-6.3c7.3-3.3,13.4-4.9,22.7-6c27.8-3.2,59.5-0.7,71.8,5.6c3.7,1.9,9.4,4,12.6,4.9c3.3,0.8,8.1,3.2,10.6,5.2
		s6.1,4.4,7.8,5.3c9,4.9,45.1,33.6,45.1,36c0,0.7,1.6,2,3.7,3c2,1.1,9.8,8.1,17.5,15.6c25.3,25,26.7,26.7,27.8,33.1
		c1.6,7.7-0.9,10-13,12.3c-5.3,1.1-12,3.3-15.1,5c-3.2,1.9-9.8,4-14.8,4.8c-4.9,0.9-12.7,3-17.3,4.8s-13,3.7-18.6,4.5
		c-19,2.6-35.6,5.7-41.4,7.5c-3.3,1.1-8.3,1.9-11.4,1.9c-7.5,0-11.5,4-8.6,8.6c4.4,6.7,18.1,22.7,32.1,36.9
		c17.5,17.7,21,19.3,27.8,13.1c7.8-7.1,19.8-15.3,26-17.7c3.3-1.2,8.9-3.7,12.2-5.6c4-2.1,9.7-3.6,15.9-4.2
		c5.3-0.5,11.9-1.9,14.8-2.8c6.1-2.2,44.6-2.6,48.4-0.5c1.3,0.8,7,2.2,12.4,3.3c5.6,0.9,12.6,3.3,15.6,5c3.2,1.9,8.9,4.4,12.8,5.6
		c4,1.3,9.3,3.7,11.8,5.4c2.5,1.7,5.3,3.2,6.2,3.2s4.9,2.1,8.7,4.8c4,2.6,9.5,5.7,12.4,6.7c2.9,0.9,6.5,2.9,7.9,4.4
		c1.5,1.3,4.9,3.4,7.5,4.6c2.8,1.1,6.9,3.7,9.3,5.8c2.4,2,5.7,4.1,7.3,4.6c1.5,0.5,5.4,2.9,8.6,5.4c3,2.5,6.3,4.6,7.1,4.6
		c5.8,0,8.1,14.1,2.9,17.7c-1.6,1.2-4,2.1-5,2.1c-1.2,0-5,1.9-8.5,4c-3.4,2.2-9.1,5.2-12.6,6.5c-3.3,1.3-8.5,4-11.2,5.8
		c-2.8,2-6.2,3.6-7.5,3.6c-1.2,0-6.1,2-10.8,4.5c-4.8,2.5-11.1,5.3-14.3,6.1c-3.2,0.8-7.9,2.9-10.4,4.6c-2.5,1.7-8.7,4.1-13.9,5.3
		c-5,1.2-12.2,3.4-15.9,5.2c-3.6,1.7-8.7,3.6-11.2,4.1c-8.7,1.6-13.2,3.6-13.2,5.4c0,3.7,14.1,15.7,29.8,25c2.4,1.6,5.6,3.7,6.9,4.9
		c1.3,1.2,5.4,3.6,9,5.3c3.7,1.7,8.3,4.2,10.3,5.6c2.6,1.7,7.8,2.9,17.2,3.7c10.6,0.9,15.3,2,22.1,5.2c4.8,2.2,11.1,4.9,14.1,5.8
		c3.2,0.9,7.5,3.3,9.8,5.2c2.2,2,6.3,4.6,9,6.1c4.4,2.2,16.9,13.6,20.9,18.9c0.9,1.2,5.2,6.2,9.3,11.4
		c11.4,13.6,20.1,25.4,25.1,33.7c1.3,2.1,4.6,6.7,7.4,10.4c2.6,3.8,4.9,7.4,4.9,8.2s2.4,4.5,5.3,8.5c2.9,3.8,5.3,7.7,5.3,8.3
		c0,0.8,2.4,4.9,5.3,9.3c2.9,4.4,5.3,8.7,5.3,9.7c0,0.8,1.7,4.1,4,7c4.5,6.2,4.9,9.7,1.9,12.7c-1.7,1.7-5.8,2.1-24.1,2.1
		c-36.1,0-72.6-2.4-87.1-5.4c-7.1-1.6-19-4.1-26.3-5.7c-7.4-1.6-14.8-3.8-16.5-5c-1.7-1.1-6.1-3-9.8-4.4
		c-20.4-7.5-44.2-27.2-52.5-43.6c-1.6-2.9-3.8-6.6-5.2-8.3c-1.3-1.7-3.6-6.7-5.2-11.4c-3.4-10.3-5.8-12.8-27.1-27.8
		c-3.6-2.6-9.9-7-13.9-9.9c-4-2.9-10.4-7.4-14.1-9.9c-3.8-2.6-7-5.3-7-6s-1.9-1.9-4.2-2.9c-2.2-0.9-6.7-4-9.9-6.7
		c-6.6-5.7-8.3-6.1-11.4-2.6c-1.7,1.9-2.2,5.2-2.2,14.3c-0.1,8.2-0.8,13.8-2.5,18.4c-5.3,14-6.9,18.6-8.1,24.1
		c-0.8,3-2.9,7.3-4.6,9.4c-1.9,2.1-4,7-4.9,10.7c-0.8,3.8-2.9,8.2-4.5,9.8c-1.7,1.7-4.2,6.2-5.8,10c-1.5,3.8-4.2,9-5.9,11.2
		c-1.9,2.4-3.3,4.9-3.3,5.7c0,1.3-9.8,17.2-14.3,22.9c-1.3,1.9-3.8,5.8-5.4,9c-1.6,3.2-4.9,7.9-7.4,10.7c-2.5,2.8-5,6.9-5.4,9.3
		C-1894.8,15061.5-1899.4,15061.8-1899.4,15056.2z"/>
</g>
</svg>
