<?xml version="1.0" standalone="no"?>
<!DOCTYPE svg PUBLIC "-//W3C//DTD SVG 20010904//EN"
 "http://www.w3.org/TR/2001/REC-SVG-20010904/DTD/svg10.dtd">
<svg version="1.0" xmlns="http://www.w3.org/2000/svg"
 width="119.000000pt" height="248.000000pt" viewBox="0 0 119.000000 248.000000"
 preserveAspectRatio="xMidYMid meet">
<metadata>
Created by potrace 1.10, written by Peter Selinger 2001-2011
</metadata>
<g transform="translate(0.000000,248.000000) scale(0.050000,-0.050000)"
fill="#dedede" stroke="none">
<path d="M1180 4735 c-33 -58 -66 -138 -73 -179 l-12 -74 -82 69 c-46 38 -101
96 -123 129 -62 92 -430 201 -430 127 0 -74 209 -307 275 -307 18 0 68 -24
111 -54 l78 -55 -57 -16 c-93 -28 -247 -101 -247 -117 0 -8 64 -47 143 -87
154 -77 233 -80 333 -15 43 28 50 26 105 -27 62 -60 76 -94 34 -86 -45 9 -275
-25 -275 -40 0 -17 103 -116 188 -180 63 -47 205 -59 273 -22 33 17 45 10 79
-45 54 -90 57 -88 -95 -81 -193 9 -210 -10 -116 -126 109 -132 180 -172 296
-165 89 6 96 2 115 -52 25 -71 19 -78 -44 -54 -27 10 -101 25 -164 33 l-115
14 44 -87 c96 -192 198 -278 328 -278 39 0 51 -10 51 -45 0 -25 6 -67 14 -94
l13 -49 -69 40 c-242 142 -273 125 -192 -112 42 -123 50 -133 148 -180 101
-48 104 -53 105 -134 l1 -84 -135 102 -135 102 -6 -118 c-11 -211 66 -368 180
-368 29 0 37 -9 28 -32 -7 -17 -18 -54 -24 -81 -12 -47 -16 -46 -129 62 -145
138 -151 138 -164 -10 -17 -178 52 -359 136 -359 36 0 36 -4 -4 -87 l-33 -69
-77 115 c-109 164 -131 179 -158 108 -77 -198 -70 -325 24 -425 39 -43 39 -43
-5 -105 l-44 -62 -70 153 c-84 184 -87 184 -166 28 -70 -139 -74 -283 -10
-354 32 -36 31 -40 -32 -89 l-66 -52 -13 84 c-14 95 -74 255 -95 255 -80 0
-199 -321 -156 -423 l29 -69 -77 -44 c-42 -24 -79 -44 -82 -44 -4 0 -3 39 1
86 3 47 -9 139 -28 204 l-34 119 -69 -80 c-132 -153 -169 -265 -127 -377 18
-48 15 -51 -95 -82 -63 -18 -130 -37 -149 -42 -27 -8 -35 -32 -35 -99 0 -108
5 -108 240 -40 l168 49 64 -57 c89 -78 155 -88 317 -46 175 46 177 58 30 153
l-121 78 55 36 c54 35 55 35 121 -23 93 -82 181 -85 371 -16 63 23 115 48 115
54 -1 21 -194 141 -249 154 -66 17 -65 28 13 92 l64 52 55 -41 c93 -68 477 2
477 88 0 24 -186 116 -271 133 l-71 15 71 83 70 83 79 -27 c111 -39 231 1 380
128 l69 58 -102 33 c-56 19 -138 35 -183 37 -97 4 -95 -4 -31 104 49 85 52 86
118 66 92 -28 214 33 327 165 103 120 96 126 -135 117 -88 -4 -161 -6 -161 -6
3 92 70 185 126 176 107 -16 350 189 353 298 1 27 -239 16 -312 -15 -64 -27
-70 -27 -59 2 7 17 12 80 12 140 0 107 1 108 61 108 133 0 202 67 277 268 l43
117 -84 -13 c-68 -11 -199 -61 -278 -106 -6 -4 -14 36 -16 89 -2 52 -8 109
-13 125 -6 20 17 41 70 63 111 47 254 370 191 433 -18 18 -179 -66 -255 -134
l-69 -60 -31 97 c-31 96 -30 97 15 118 100 45 156 202 136 378 -15 131 -17
131 -171 -15 -69 -66 -128 -114 -131 -105 -3 8 -27 50 -53 93 l-47 79 56 47
c31 26 62 74 69 107 14 62 -46 359 -72 359 -31 0 -201 -213 -212 -266 l-11
-56 -95 106 -94 105 41 56 c57 78 52 215 -13 360 -63 140 -59 139 -134 10z"/>
</g>
</svg>
