<?xml version="1.0" encoding="utf-8"?>
<!-- Generator: Adobe Illustrator 19.0.1, SVG Export Plug-In . SVG Version: 6.00 Build 0)  -->
<svg version="1.1" id="Слой_1" xmlns="http://www.w3.org/2000/svg" xmlns:xlink="http://www.w3.org/1999/xlink" x="0px" y="0px"
	 viewBox="0 0 59.5 34" style="enable-background:new 0 0 59.5 34;" xml:space="preserve">
<style type="text/css">
	.st0{fill:url(#SVGID_1_);}
</style>
<g>
	<g>
		<linearGradient id="SVGID_1_" gradientUnits="userSpaceOnUse" x1="29.9988" y1="9.122232e-010" x2="29.9988" y2="34.0072">
			<stop  offset="5.000000e-003" style="stop-color:#FF6256"/>
			<stop  offset="1" style="stop-color:#D34F6E"/>
		</linearGradient>
		<path class="st0" d="M58.3,4.5c-1.2-2.1-3.2-3.6-5.6-4.2c-2.4-0.6-4.8-0.3-6.9,0.9l-17.3,9.8L16,4.9L8.8,9l7.8,8.8l-4.5,2.6
			l-5.5-4.2l-6.1,3.5l3.2,5.5L8.9,34l22-3.5l24-13.7C59.3,14.4,60.8,8.8,58.3,4.5z M14.3,9.9l1.8-1l15.7,7.7L24,21l-4.3-4.9h0
			L14.3,9.9z M6.7,23.4L5.3,21l1-0.6l2.5,1.9l-0.7,0.4L6.7,23.4z M53.2,13.9L29.7,27.2l-19,3l-2.2-3.8l6.6-3.7h0l3.9-2.2l4.3,4.9
			l15.9-9.1l-7-3.4l15.3-8.7c1.3-0.7,2.8-0.9,4.3-0.6C53.3,4,54.5,5,55.2,6.2C56.8,8.9,55.9,12.3,53.2,13.9z M39.3,12.3l1.8,3
			l3.3-1.9l-1.8-3L39.3,12.3z M45,9l1.8,3l3.3-1.9l-1.8-3L45,9z"/>
	</g>
</g>
</svg>
