<?xml version="1.0" encoding="utf-8"?>
<!-- Generator: Adobe Illustrator 19.0.1, SVG Export Plug-In . SVG Version: 6.00 Build 0)  -->
<svg version="1.1" id="Слой_1" xmlns="http://www.w3.org/2000/svg" xmlns:xlink="http://www.w3.org/1999/xlink" x="0px" y="0px"
	 viewBox="0 0 39.9 62" style="enable-background:new 0 0 39.9 62;" xml:space="preserve">
<style type="text/css">
	.st0{fill:url(#SVGID_1_);}
</style>
<g>
	<g>
		<linearGradient id="SVGID_1_" gradientUnits="userSpaceOnUse" x1="19.9547" y1="-1.784038e-007" x2="19.9547" y2="61.9755">
			<stop  offset="5.000000e-003" style="stop-color:#FF6256"/>
			<stop  offset="1" style="stop-color:#D34F6E"/>
		</linearGradient>
		<path class="st0" d="M20,10.7c-1.3,0-2.4,0.5-3.3,1.4c-0.9,0.9-1.4,2.1-1.4,3.3c0,2.6,2.1,4.7,4.7,4.7c1.3,0,2.4-0.5,3.3-1.4
			c0.9-0.9,1.4-2.1,1.4-3.3C24.7,12.8,22.6,10.7,20,10.7z M21.1,16.5C20.8,16.8,20.4,17,20,17c-0.9,0-1.6-0.7-1.6-1.6
			c0-0.4,0.2-0.8,0.5-1.1c0.3-0.3,0.7-0.5,1.1-0.5c0.9,0,1.6,0.7,1.6,1.6C21.5,15.8,21.4,16.2,21.1,16.5z M32.6,25.2v-6.7
			c0-7.9-4.7-15-12-18.2L20,0l-0.6,0.3c-2.3,1-4.4,2.4-6.1,4.2c-3.8,3.8-5.8,8.8-5.8,14l0,6.7L0,34.7L0,47l7.4-3.2l0,2.3h3.4
			l1.1,6.3l16.3,0l1.1-6.3h3.4v-2.3l7.4,3.2l0-12.4L32.6,25.2z M7.4,40.5l-4.2,1.8l0-6.5l4.2-5.4L7.4,40.5z M25.4,49.4h-11l-0.5-3.2
			l12,0L25.4,49.4z M29.4,43.1h-7.9l0-17.3l-3.2,0l0,17.3h-7.9l0-24.5c0-4.4,1.7-8.6,4.9-11.8c1.3-1.3,2.9-2.4,4.5-3.3
			c5.8,2.9,9.5,8.7,9.5,15.1L29.4,43.1z M36.8,42.3l-4.2-1.8l0-10.1l4.2,5.4L36.8,42.3z M18.4,62h3.2l0-6.3h-3.2L18.4,62z M24.7,62
			h3.2l0-6.3h-3.2L24.7,62z M12.1,62l3.2,0l0-6.3h-3.2L12.1,62z"/>
	</g>
</g>
</svg>
