<?xml version="1.0" encoding="utf-8"?>
<!-- Generator: Adobe Illustrator 19.0.1, SVG Export Plug-In . SVG Version: 6.00 Build 0)  -->
<svg version="1.1" id="Слой_1" xmlns="http://www.w3.org/2000/svg" xmlns:xlink="http://www.w3.org/1999/xlink" x="0px" y="0px"
	 viewBox="0 0 50 50" style="enable-background:new 0 0 50 50;" xml:space="preserve">
<style type="text/css">
	.st0{fill:url(#SVGID_1_);}
</style>
<linearGradient id="SVGID_1_" gradientUnits="userSpaceOnUse" x1="25.001" y1="-2.455636e-011" x2="25.001" y2="50.0004">
	<stop  offset="5.000000e-003" style="stop-color:#FF6256"/>
	<stop  offset="1" style="stop-color:#D34F6E"/>
</linearGradient>
<path class="st0" d="M48.4,37h-19v-1.6c0-0.6-0.1-1.1-0.3-1.6c0.5,0,18,0,18.2,0c0.9,0,1.6-0.7,1.6-1.6c0-0.9-0.7-1.6-1.6-1.6h-1.7
	C45,18.7,38.1,9.9,27.3,4.5l-1.2-0.6V1.7c0-1.2-1.1-2-2.3-1.5c0,0,0,0,0,0l-1.1,0.5C13.3,4.3,7.2,14,6.6,23.9H4.9
	c-0.9,0-1.6,0.7-1.6,1.6c0,0.9,0.7,1.6,1.6,1.6c0.6,0,17,0,17.9,0v3.3H11.4c-2.7,0-4.9,2.2-4.9,4.9V37C2.9,37,0,39.9,0,43.5
	C0,47.1,2.9,50,6.5,50h31.8c2.7,0,5.3-1.4,6.8-3.6l4.6-6.9C50.4,38.4,49.7,37,48.4,37z M26.1,7.5c7.2,3.7,15.6,10.6,16.3,22.9H26.1
	V7.5z M9.8,23.9c0.6-8.4,5.8-16.4,13-19.8v19.8H9.8z M9.8,35.3c0-0.9,0.7-1.6,1.6-1.6h13c0.9,0,1.6,0.7,1.6,1.6V37H9.8V35.3z
	 M42.4,44.6c-0.9,1.4-2.4,2.2-4.1,2.2H6.5c-1.8,0-3.3-1.5-3.3-3.3c0-1.8,1.5-3.3,3.3-3.3c0.2,0,23.4,0,23.9,0v1.6
	c0,0.9,0.7,1.6,1.6,1.6c0.9,0,1.6-0.7,1.6-1.6v-1.6H37v1.6c0,0.9,0.7,1.6,1.6,1.6c0.9,0,1.6-0.7,1.6-1.6v-1.6h5.1L42.4,44.6z"/>
</svg>
