<?xml version="1.0" encoding="utf-8"?>
<!-- Generator: Adobe Illustrator 19.0.1, SVG Export Plug-In . SVG Version: 6.00 Build 0)  -->
<svg version="1.1" id="Слой_1" xmlns="http://www.w3.org/2000/svg" xmlns:xlink="http://www.w3.org/1999/xlink" x="0px" y="0px"
	 viewBox="0 0 86 13" style="enable-background:new 0 0 86 13;" xml:space="preserve">
<style type="text/css">
	.st0{fill:#E9C621;}
</style>
<g>
	<g>
		<path class="st0" d="M13.6,4.7L9.1,4.3L7.3,0.2c-0.1-0.3-0.5-0.3-0.7,0L4.9,4.3L0.3,4.7C0,4.7-0.1,5.1,0.1,5.3l3.4,2.9l-1,4.3
			c-0.1,0.3,0.3,0.5,0.5,0.4L7,10.7l3.9,2.3c0.3,0.2,0.6-0.1,0.5-0.4l-1-4.3l3.4-2.9C14.1,5.1,13.9,4.7,13.6,4.7z M31.6,4.7
			l-4.5-0.4l-1.8-4.1c-0.1-0.3-0.5-0.3-0.7,0l-1.8,4.1l-4.5,0.4c-0.3,0-0.4,0.4-0.2,0.6l3.4,2.9l-1,4.3c-0.1,0.3,0.3,0.5,0.5,0.4
			l3.9-2.3l3.9,2.3c0.3,0.2,0.6-0.1,0.5-0.4l-1-4.3l3.4-2.9C32.1,5.1,31.9,4.7,31.6,4.7z M49.6,4.7l-4.5-0.4l-1.8-4.1
			c-0.1-0.3-0.5-0.3-0.7,0l-1.8,4.1l-4.5,0.4c-0.3,0-0.4,0.4-0.2,0.6l3.4,2.9l-1,4.3c-0.1,0.3,0.3,0.5,0.5,0.4l3.9-2.3l3.9,2.3
			c0.3,0.2,0.6-0.1,0.5-0.4l-1-4.3l3.4-2.9C50.1,5.1,49.9,4.7,49.6,4.7z M67.6,4.7l-4.5-0.4l-1.8-4.1c-0.1-0.3-0.5-0.3-0.7,0
			l-1.8,4.1l-4.5,0.4c-0.3,0-0.4,0.4-0.2,0.6l3.4,2.9l-1,4.3c-0.1,0.3,0.3,0.5,0.5,0.4l3.9-2.3l3.9,2.3c0.3,0.2,0.6-0.1,0.5-0.4
			l-1-4.3l3.4-2.9C68.1,5.1,67.9,4.7,67.6,4.7z M85.6,4.7l-4.5-0.4l-1.8-4.1c-0.1-0.3-0.5-0.3-0.7,0l-1.8,4.1l-4.5,0.4
			c-0.3,0-0.4,0.4-0.2,0.6l3.4,2.9l-1,4.3c-0.1,0.3,0.3,0.5,0.5,0.4l3.9-2.3l3.9,2.3c0.3,0.2,0.6-0.1,0.5-0.4l-1-4.3l3.4-2.9
			C86.1,5.1,85.9,4.7,85.6,4.7z"/>
	</g>
</g>
</svg>
