<?xml version="1.0" encoding="utf-8"?>
<!-- Generator: Adobe Illustrator 19.0.1, SVG Export Plug-In . SVG Version: 6.00 Build 0)  -->
<svg version="1.1" id="Слой_1" xmlns="http://www.w3.org/2000/svg" xmlns:xlink="http://www.w3.org/1999/xlink" x="0px" y="0px"
	 viewBox="34 -29 126.1 94.3" style="enable-background:new 34 -29 126.1 94.3;" xml:space="preserve">
<style type="text/css">
	.st0{fill:url(#SVGID_1_);}
	.st1{fill:url(#SVGID_2_);}
	.st2{fill:url(#SVGID_3_);}
	.st3{fill:url(#SVGID_4_);}
	.st4{fill:url(#SVGID_5_);}
</style>
<g>
	<g>
		
			<linearGradient id="SVGID_1_" gradientUnits="userSpaceOnUse" x1="115.6" y1="70" x2="115.6" y2="-29.4221" gradientTransform="matrix(1 0 0 -1 0 41)">
			<stop  offset="0" style="stop-color:#607DBF"/>
			<stop  offset="0.995" style="stop-color:#535484"/>
		</linearGradient>
		<rect x="114" y="60.8" class="st0" width="3.2" height="4.5"/>
		
			<linearGradient id="SVGID_2_" gradientUnits="userSpaceOnUse" x1="140.6125" y1="70" x2="140.6125" y2="-29.4221" gradientTransform="matrix(1 0 0 -1 0 41)">
			<stop  offset="0" style="stop-color:#607DBF"/>
			<stop  offset="0.995" style="stop-color:#535484"/>
		</linearGradient>
		<path class="st1" d="M159.7,29.5l-4.2-4.5c-0.2-0.3-0.6-0.4-0.9-0.4c-0.1,0-0.3,0-0.4,0.1l-0.8-4c-0.3-1.4-1.3-2.5-2.7-2.9
			l-13.1-3.4L143,9l0.5,0.5c0.3,0.3,0.7,0.4,1.1,0.4c0.4,0,0.8-0.2,1.1-0.4l2.9-2.9c0.6-0.6,0.6-1.6,0-2.2l-2.9-2.9
			c-0.6-0.6-1.6-0.6-2.2,0l-2.9,2.9C140,5,140,6,140.6,6.6l0.5,0.5L127.2,21l-0.5-0.5c-0.6-0.6-1.6-0.6-2.2,0l-2.9,2.9
			c-0.6,0.6-0.6,1.6,0,2.1l2.9,2.9c0.6,0.6,1.6,0.6,2.2,0l2.9-2.9c0.6-0.6,0.6-1.6,0-2.1l-0.6-0.5l5.4-5.4l3.4,13.1
			c0.3,1.4,1.5,2.4,2.9,2.7l4.1,0.8c0,0.1-0.1,0.3-0.1,0.4c0,0.4,0.2,0.7,0.4,0.9l4.5,4.2c0.3,0.2,0.6,0.3,0.9,0.3s0.7-0.1,0.9-0.4
			l8.3-8.3C160.2,30.8,160.2,30,159.7,29.5z M146.2,31.7l-5.1-1c-0.4-0.1-0.7-0.4-0.8-0.8l-2.7-10.5l4.7,4.7c-0.2,0.8,0,1.7,0.7,2.4
			c1,1,2.6,1,3.6,0s1-2.6,0-3.6c-0.6-0.6-1.5-0.9-2.4-0.7l-4.7-4.7l10.6,2.7c0.4,0.1,0.7,0.4,0.8,0.8l1,5.1c0.1,0.3,0,0.7-0.3,0.9
			l-4.3,4.3C146.9,31.6,146.6,31.7,146.2,31.7z M150.4,36.9l-2.6-2.4l6.7-6.7l2.4,2.6L150.4,36.9z"/>
		
			<linearGradient id="SVGID_3_" gradientUnits="userSpaceOnUse" x1="38.5" y1="70" x2="38.5" y2="-29.4221" gradientTransform="matrix(1 0 0 -1 0 41)">
			<stop  offset="0" style="stop-color:#607DBF"/>
			<stop  offset="0.995" style="stop-color:#535484"/>
		</linearGradient>
		<path class="st2" d="M39.9,19.6c-0.2-0.6-0.8-1-1.4-1s-1.2,0.4-1.4,1l-3,9C34,28.7,34,28.9,34,29v36c0,0.8,0.7,1.5,1.5,1.5h6
			c0.8,0,1.5-0.7,1.5-1.5V29c0-0.1,0-0.3-0.1-0.4L39.9,19.6z M38.5,24.8l0.9,2.8h-1.8L38.5,24.8z M40,63.6h-3v-3h3V63.6z M40,57.6
			h-3v-27h3V57.6z"/>
		
			<linearGradient id="SVGID_4_" gradientUnits="userSpaceOnUse" x1="70.6" y1="70" x2="70.6" y2="-29.4221" gradientTransform="matrix(1 0 0 -1 0 41)">
			<stop  offset="0" style="stop-color:#607DBF"/>
			<stop  offset="0.995" style="stop-color:#535484"/>
		</linearGradient>
		<rect x="69" y="60.8" class="st3" width="3.2" height="4.5"/>
		
			<linearGradient id="SVGID_5_" gradientUnits="userSpaceOnUse" x1="93.15" y1="70" x2="93.15" y2="-29.4221" gradientTransform="matrix(1 0 0 -1 0 41)">
			<stop  offset="0" style="stop-color:#607DBF"/>
			<stop  offset="0.995" style="stop-color:#535484"/>
		</linearGradient>
		<path class="st4" d="M56.2,65.3v-9.9c0-8.3,5.7-15.4,13.8-17.2l7.3-1.6l3.5,15.7l5.5-4l1.9,1.9L87,65.3h3.2L91.5,49L89,46.4
			l4.1-2.9l4.1,2.9L94.6,49l1.3,16.3h3.3L98,50.2l1.9-1.9l5.5,4l3.5-15.7l7.3,1.6c8.1,1.8,13.8,8.9,13.8,17.2v9.9h3.3v-10
			c-0.1-9.8-6.8-18.1-16.4-20.3l-12.6-2.8v-4c4.7-3.4,7.8-8.8,8-14.9c4.2-4.4,6.5-10.1,6.5-16.1v-7c0-4.1-3-7.4-7-7.9
			C108.4-24.6,101.4-29,93.7-29H91c-5.2,0-10.4,1.8-14.5,5c-5.8,4.5-9.1,11.3-9.1,18.6v2.6c0,6.1,2.3,11.8,6.5,16.1
			c0.2,6.1,3.3,11.6,8,14.9v4L69.3,35C59.7,37.1,53,45.5,53,55.3v10H56.2z M85.1,32.8v-2.6c2.4,1.1,5.2,1.8,8,1.8
			c2.9,0,5.6-0.6,8-1.8v2.6l-8,6.7L85.1,32.8z M105.7,35.9l-2.4,11l-7.6-5.4l7.4-6.2L105.7,35.9z M73.8-1.8v10
			c-2.1-3.2-3.2-7-3.2-10.9v-2.6c0-6.3,2.9-12.2,7.9-16.1c3.6-2.8,8-4.3,12.5-4.3h2.7c6.8,0,12.9,4,15.6,10.3l0.4,1h1.1
			c2.7,0,4.8,2.2,4.8,4.8v7c0,3.9-1.1,7.7-3.2,10.9V-4.9h-2.2c-3.1,0-6-1.5-7.7-4.1L102-9.8h-3.4L98.1-9c-2.7,4.5-7.6,7.2-12.8,7.2
			H73.8z M77,12.7V1.5h8.3c6,0,11.7-3,15-8c2.1,2.7,5.3,4.4,8.8,4.7v14.5c0,8.8-7.2,16-16.1,16C84.2,28.7,77,21.5,77,12.7z M83,35.3
			l7.4,6.2l-7.6,5.4l-2.4-11L83,35.3z"/>
	</g>
</g>
</svg>
