<?xml version="1.0" encoding="utf-8"?>
<!-- Generator: Adobe Illustrator 19.0.1, SVG Export Plug-In . SVG Version: 6.00 Build 0)  -->
<svg version="1.1" id="Слой_1" xmlns="http://www.w3.org/2000/svg" xmlns:xlink="http://www.w3.org/1999/xlink" x="0px" y="0px"
	 viewBox="26 -37 110 109.2" style="enable-background:new 26 -37 110 109.2;" xml:space="preserve">
<style type="text/css">
	.st0{fill:url(#SVGID_1_);}
	.st1{fill:url(#SVGID_2_);}
	.st2{fill:url(#SVGID_3_);}
	.st3{fill:url(#SVGID_4_);}
	.st4{fill:url(#SVGID_5_);}
</style>
<g>
	<g>
		
			<linearGradient id="SVGID_1_" gradientUnits="userSpaceOnUse" x1="111.4311" y1="75.9612" x2="111.4311" y2="-38" gradientTransform="matrix(1 0 0 -1 0 39)">
			<stop  offset="0" style="stop-color:#607DBF"/>
			<stop  offset="0.995" style="stop-color:#535484"/>
		</linearGradient>
		<path class="st0" d="M127.8-30.7c-5.2-4.7-12.2-6.9-19.2-6.1C97.3-35.6,88.2-26.4,87-15.1C86-5.5,90.5,3.7,98.6,8.6l-2.2,9
			c-0.1,0.6,0,1.2,0.4,1.7c0.3,0.4,0.8,0.5,1.3,0.5h0.3c8.1-1.6,12.4-5.8,13.8-7.6C125.4,11.8,136,0.9,136-12.4
			C136-19.4,133-26.1,127.8-30.7z M111.4,8.7c-0.6,0-1.2,0.3-1.5,0.8c0,0-2.7,4-9.4,6.1l1.8-7.4c0.2-0.8-0.2-1.6-0.9-2
			c-7.6-4.1-11.9-12.3-11-20.9c1-9.7,8.8-17.5,18.5-18.6c6.2-0.7,12,1.2,16.5,5.2s7,9.7,7,15.7C132.4-0.8,123,8.7,111.4,8.7z"/>
		
			<linearGradient id="SVGID_2_" gradientUnits="userSpaceOnUse" x1="120.8" y1="75.9612" x2="120.8" y2="-38" gradientTransform="matrix(1 0 0 -1 0 39)">
			<stop  offset="0" style="stop-color:#607DBF"/>
			<stop  offset="0.995" style="stop-color:#535484"/>
		</linearGradient>
		<path class="st1" d="M120.8-15c-1.2,0-2.2,0.9-2.2,2s1,2,2.2,2c1.2,0,2.2-0.9,2.2-2S122-15,120.8-15z"/>
		
			<linearGradient id="SVGID_3_" gradientUnits="userSpaceOnUse" x1="103.2" y1="75.9612" x2="103.2" y2="-38" gradientTransform="matrix(1 0 0 -1 0 39)">
			<stop  offset="0" style="stop-color:#607DBF"/>
			<stop  offset="0.995" style="stop-color:#535484"/>
		</linearGradient>
		<path class="st2" d="M103.2-15c-1.2,0-2.2,0.9-2.2,2s1,2,2.2,2s2.2-0.9,2.2-2S104.4-15,103.2-15z"/>
		
			<linearGradient id="SVGID_4_" gradientUnits="userSpaceOnUse" x1="60.1" y1="75.9612" x2="60.1" y2="-38" gradientTransform="matrix(1 0 0 -1 0 39)">
			<stop  offset="0" style="stop-color:#607DBF"/>
			<stop  offset="0.995" style="stop-color:#535484"/>
		</linearGradient>
		<path class="st3" d="M26.2,72.2h3.6c-0.1-0.2-0.2-0.5-0.2-0.8V56.2c0-0.5,0.1-1,0.3-1.4l6.1,4.9c0.9,0.7,1.5,1.9,1.5,3.1v9.4H41
			v-9.5c0-2.3-1-4.4-2.8-5.9l-5.7-4.5l7.2-3c1.8,11.2,9.4,17.5,9.8,17.7c0.3,0.3,0.7,0.4,1.1,0.4c0.3,0,0.5-0.1,0.8-0.2
			c0.6-0.3,1-0.9,1-1.6V57l5.9-4.8v20h3.6V52.3l5,4c0.7,0.5,1.5,0.8,2.3,0.8h0.6c1-0.2,1.9-0.7,2.5-1.6l5-7.5l10.5,4.4L82,56.9
			c-1.8,1.4-2.8,3.5-2.8,5.8v9.5h3.6v-9.5c0-1.2,0.5-2.3,1.5-3.1l6.1-4.9c0.2,0.4,0.3,0.9,0.3,1.4v15.3h-0.1c0,0.3-0.1,0.5-0.2,0.8
			h3.7c0-0.3,0.1-0.5,0.1-0.8V56.2c0-3.1-1.8-5.8-4.6-6.9L79,44.8c0-0.4-0.1-0.7-0.3-1.1l-2.7-4c-0.6-0.8-1.4-1.4-2.4-1.6
			c-0.8-0.1-1.5,0-2.2,0.3v-3.6l3.2-1.8c2.7-1.5,4.5-4.3,4.8-7.4v-0.1H81c3.1,0,5.6-2.5,5.6-5.6v-3.8c0-1.5-0.6-2.9-1.6-3.9
			c1-2.3,1.6-4.9,1.6-7.5c0-12.3-11.6-26.5-26.5-26.5c-14.9,0-26.5,14.3-26.5,26.5c0,2.7,0.5,5.2,1.6,7.5c-1,1-1.6,2.4-1.6,3.9V20
			c0,3.1,2.5,5.6,5.6,5.6h1.7v0.1c0.2,2,1,3.8,2.2,5.3c-1,1.6-3.8,7-3.8,13.8v0.9l-8.7,3.6c-2.8,1.1-4.6,3.8-4.6,6.9v15.2
			c0,0.3,0,0.5,0.1,0.8C26.1,72.2,26.1,72.2,26.2,72.2z M52.4,52.4v-7.2l4.8,3.4L52.4,52.4z M60.3,46.3l-7.9-5.5v-4.1l3.2,1.8
			c1.4,0.8,3,1.2,4.6,1.2c1.6,0,3.1-0.4,4.6-1.2l3.2-1.8v4.1L60.3,46.3z M72.8,41.6C72.8,41.6,72.9,41.6,72.8,41.6
			c0.1,0,0.2,0,0.2,0l2.1,3.1l-5.8,8.7c0,0,0,0-0.1,0.1c-0.1,0-0.1,0-0.1,0l-6-4.8L72.8,41.6z M83,20c0,1.1-0.9,2-2,2h-1.3l0.7-7.9
			H81c1.1,0,2,0.9,2,2V20z M39.2,22.1L39.2,22.1c-1.1-0.1-2-1-2-2.1v-3.8c0-1.1,0.9-2,2-2h0.6l0.7,7.9H39.2z M39.3,8.7l0.2,1.9h-0.3
			c-0.3,0-0.6,0-0.8,0.1c-0.8-1.8-1.2-3.8-1.2-5.9c0-5.2,2.5-11,6.8-15.5c4.5-4.8,10.3-7.5,16.2-7.5c5.9,0,11.6,2.7,16.2,7.5
			c4.2,4.5,6.8,10.3,6.8,15.5c0,2.1-0.4,4.1-1.2,5.9c-0.3,0-0.5-0.1-0.8-0.1h-0.3l0.2-1.9c0.1-0.8-0.4-1.6-1.2-1.9
			c-4.8-1.6-6.5-6.4-6.5-6.5c-0.2-0.5-0.6-0.9-1.1-1.1s-1.1-0.1-1.5,0.1c-9,5.4-29.5,7.4-29.7,7.4C39.9,6.9,39.2,7.8,39.3,8.7z
			 M43,10.2c5-0.6,19.1-2.5,27.7-6.7c1,1.9,3,4.7,6.5,6.3l-1.4,15.6c-0.2,1.9-1.3,3.6-3,4.6l-9.9,5.5c-1.8,1-3.9,1-5.7,0L47.3,30
			c-1.7-0.9-2.8-2.6-3-4.6L43,10.2z M45.9,33.2l2.9,1.6v26.4c-2.6-3.2-5.9-8.9-5.9-16.5C42.9,39.4,45,34.9,45.9,33.2z"/>
		
			<linearGradient id="SVGID_5_" gradientUnits="userSpaceOnUse" x1="112" y1="75.9612" x2="112" y2="-38" gradientTransform="matrix(1 0 0 -1 0 39)">
			<stop  offset="0" style="stop-color:#607DBF"/>
			<stop  offset="0.995" style="stop-color:#535484"/>
		</linearGradient>
		<path class="st4" d="M112-15c-1.2,0-2.2,0.9-2.2,2s1,2,2.2,2s2.2-0.9,2.2-2S113.2-15,112-15z"/>
	</g>
</g>
</svg>
