<?xml version="1.0" encoding="utf-8"?>
<!-- Generator: Adobe Illustrator 19.0.1, SVG Export Plug-In . SVG Version: 6.00 Build 0)  -->
<svg version="1.1" id="Слой_1" xmlns="http://www.w3.org/2000/svg" xmlns:xlink="http://www.w3.org/1999/xlink" x="0px" y="0px"
	 viewBox="68 -32 193.5 98" style="enable-background:new 68 -32 193.5 98;" xml:space="preserve">
<style type="text/css">
	.st0{fill:url(#SVGID_1_);}
	.st1{fill:url(#SVGID_2_);}
	.st2{fill:url(#SVGID_3_);}
	.st3{fill:url(#SVGID_4_);}
	.st4{fill:url(#SVGID_5_);}
	.st5{fill:url(#SVGID_6_);}
	.st6{fill:url(#SVGID_7_);}
	.st7{fill:url(#SVGID_8_);}
	.st8{fill:url(#SVGID_9_);}
	.st9{fill:url(#SVGID_10_);}
	.st10{fill:url(#SVGID_11_);}
	.st11{fill:url(#SVGID_12_);}
	.st12{fill:url(#SVGID_13_);}
	.st13{fill:url(#SVGID_14_);}
	.st14{fill:url(#SVGID_15_);}
</style>
<g>
	<g>
		
			<linearGradient id="SVGID_1_" gradientUnits="userSpaceOnUse" x1="73.1" y1="71" x2="73.1" y2="-33.0037" gradientTransform="matrix(1 0 0 -1 0 39)">
			<stop  offset="0" style="stop-color:#607DBF"/>
			<stop  offset="0.995" style="stop-color:#535484"/>
		</linearGradient>
		<path class="st0" d="M75.6,32c-0.7,0-1.3,0.5-1.3,1.2v7.2c0,0.7-0.6,1.2-1.3,1.2s-1.3-0.5-1.3-1.2c0-0.7-0.6-1.2-1.3-1.2
			c-0.7,0-1.3,0.5-1.3,1.2c0,2,1.8,3.6,4,3.6c2.2,0,4-1.6,4-3.6v-7.2C76.9,32.5,76.3,32,75.6,32z"/>
		
			<linearGradient id="SVGID_2_" gradientUnits="userSpaceOnUse" x1="105.8996" y1="71" x2="105.8996" y2="-33.0037" gradientTransform="matrix(1 0 0 -1 0 39)">
			<stop  offset="0" style="stop-color:#607DBF"/>
			<stop  offset="0.995" style="stop-color:#535484"/>
		</linearGradient>
		<path class="st1" d="M107.1,32.8c-0.2-0.5-0.7-0.8-1.2-0.8s-1,0.3-1.2,0.8l-4,9.6c-0.3,0.6,0.1,1.3,0.8,1.5
			c0.7,0.2,1.4-0.1,1.7-0.7l0.7-1.6h4.1c0.9,2,1.3,2.4,1.8,2.4h0.4l-0.2-1.2l1.2-0.5C110.7,41.7,108.5,36.2,107.1,32.8z M104.8,39.2
			l1-2.5c0.4,1,0.7,1.8,1,2.5H104.8z"/>
		
			<linearGradient id="SVGID_3_" gradientUnits="userSpaceOnUse" x1="124" y1="71" x2="124" y2="-33.0037" gradientTransform="matrix(1 0 0 -1 0 39)">
			<stop  offset="0" style="stop-color:#607DBF"/>
			<stop  offset="0.995" style="stop-color:#535484"/>
		</linearGradient>
		<path class="st2" d="M129,4.4c0-1.9-1.5-3.1-4.6-3.6H124c-2.2-0.3-2.5-0.9-2.5-1.2c0-0.5,1-1.2,2.5-1.2s2.5,0.7,2.5,1.2
			c0.1,0.7,0.7,1.2,1.4,1.1c0.7-0.1,1.2-0.6,1.1-1.3c-0.2-1.9-2.3-3.3-5-3.3c-2.8,0-5,1.6-5,3.6c0,1.9,1.6,3.1,4.6,3.6l0.2-1.2
			l0.2,1.2c2.1,0.3,2.5,0.8,2.5,1.2c0,0.5-1,1.2-2.5,1.2s-2.5-0.7-2.5-1.2c-0.1-0.7-0.7-1.2-1.4-1.1c-0.7,0.1-1.2,0.6-1.1,1.3
			c0.2,1.9,2.3,3.3,5,3.3C126.8,8,129,6.4,129,4.4z"/>
		
			<linearGradient id="SVGID_4_" gradientUnits="userSpaceOnUse" x1="111.5" y1="71" x2="111.5" y2="-33.0037" gradientTransform="matrix(1 0 0 -1 0 39)">
			<stop  offset="0" style="stop-color:#607DBF"/>
			<stop  offset="0.995" style="stop-color:#535484"/>
		</linearGradient>
		<path class="st3" d="M111.5-1.7c1.5,0,2.5,0.7,2.5,1.2c0.1,0.7,0.7,1.2,1.4,1.1c0.7-0.1,1.2-0.6,1.1-1.3c-0.2-1.9-2.3-3.3-5-3.3
			c-2.8,0-5,1.6-5,3.6c0,1.9,1.6,3.1,4.6,3.6l0.2-1.2l0.2,1.2c2.1,0.3,2.5,0.8,2.5,1.2c0,0.5-1,1.2-2.5,1.2S109,4.9,109,4.4
			c-0.1-0.7-0.7-1.2-1.4-1.1c-0.7,0.1-1.2,0.6-1.1,1.3c0.2,1.9,2.3,3.3,5,3.3c2.8,0,5-1.6,5-3.6c0-1.8-1.6-3-4.6-3.5l-0.4-0.1
			c-2.2-0.3-2.5-0.9-2.5-1.2C109-1,110-1.7,111.5-1.7z"/>
		
			<linearGradient id="SVGID_5_" gradientUnits="userSpaceOnUse" x1="95.3956" y1="71" x2="95.3956" y2="-33.0037" gradientTransform="matrix(1 0 0 -1 0 39)">
			<stop  offset="0" style="stop-color:#607DBF"/>
			<stop  offset="0.995" style="stop-color:#535484"/>
		</linearGradient>
		<path class="st4" d="M99.8,32.1c-0.7-0.2-1.4,0.1-1.7,0.7l-2.7,6.6l-2.7-6.6c-0.3-0.6-1-0.9-1.7-0.7s-1,0.9-0.8,1.5l4,9.6
			c0.2,0.5,0.7,0.8,1.2,0.8c0.6,0,1-0.3,1.2-0.8l4-9.6C100.8,33,100.4,32.3,99.8,32.1z"/>
		
			<linearGradient id="SVGID_6_" gradientUnits="userSpaceOnUse" x1="84.7996" y1="71" x2="84.7996" y2="-33.0037" gradientTransform="matrix(1 0 0 -1 0 39)">
			<stop  offset="0" style="stop-color:#607DBF"/>
			<stop  offset="0.995" style="stop-color:#535484"/>
		</linearGradient>
		<path class="st5" d="M86,32.8c-0.2-0.5-0.7-0.8-1.2-0.8s-1,0.3-1.2,0.8l-4,9.6c-0.3,0.6,0.1,1.3,0.8,1.5c0.7,0.2,1.4-0.1,1.7-0.7
			l0.7-1.6h4.1c0.9,2,1.3,2.4,1.8,2.4h0.4l-0.2-1.2l1.2-0.5C89.7,41.7,87.4,36.2,86,32.8z M83.7,39.2l1-2.5c0.4,1,0.7,1.8,1,2.5
			H83.7z"/>
		
			<linearGradient id="SVGID_7_" gradientUnits="userSpaceOnUse" x1="99.0479" y1="71" x2="99.0479" y2="-33.0037" gradientTransform="matrix(1 0 0 -1 0 39)">
			<stop  offset="0" style="stop-color:#607DBF"/>
			<stop  offset="0.995" style="stop-color:#535484"/>
		</linearGradient>
		<path class="st6" d="M97.8,8h2.5c2.1,0,3.7-1.6,3.7-3.6c0-0.7-0.6-1.2-1.3-1.2s-1.2,0.5-1.2,1.2c0,0.7-0.6,1.2-1.3,1.2h-2.5
			c-0.7,0-1.2-0.5-1.2-1.2v-4.8c0-0.7,0.6-1.2,1.2-1.2h2.5c0.7,0,1.3,0.5,1.3,1.2c0,0.7,0.6,1.2,1.2,1.2c0.7,0,1.3-0.5,1.3-1.2
			c0-2-1.7-3.6-3.7-3.6h-2.5c-2.1,0-3.7,1.6-3.7,3.6v4.8C94,6.4,95.7,8,97.8,8z"/>
		
			<linearGradient id="SVGID_8_" gradientUnits="userSpaceOnUse" x1="169.85" y1="71" x2="169.85" y2="-33.0037" gradientTransform="matrix(1 0 0 -1 0 39)">
			<stop  offset="0" style="stop-color:#607DBF"/>
			<stop  offset="0.995" style="stop-color:#535484"/>
		</linearGradient>
		<path class="st7" d="M121.3,66h2.8v-8.7c0-3.1,1.1-6.5,3.3-9.2l5,5c2.2,2.2,3.4,5.1,3.4,8.1V66h3.1v-4.7c0-3.9-1.5-7.5-4.3-10.3
			l-5-4.9c1.2-0.9,2.6-1.7,4.2-2.1l9-1.7c0,0.1,0.1,0.3,0.2,0.4c5.2,7.7,10.8,13.5,16.9,17.3c4.7,3,8,3.7,9,3.8l1.1,0.2
			c0.1,0,0.2,0,0.2,0c0.1,0,0.2,0,0.2,0l1.1-0.2c0.9-0.1,4.3-0.9,9-3.8c6-3.8,11.7-9.6,16.9-17.3c0.1-0.1,0.1-0.3,0.2-0.4l9,1.7
			c1.6,0.4,3,1.2,4.2,2.1l-5,4.9c-2.8,2.7-4.3,6.4-4.3,10.3V66h2.8v-4.7c0-3.1,1.2-6,3.4-8.1l5-5c2.2,2.7,3.3,6.1,3.3,9.2V66h2.9
			v-8.7c0-3.5-1.1-7-3.1-9.9c-2-3.3-5.1-5.5-8.7-6.5h-0.1l-15.2-2.8l-5.1-6.7c0.3-0.3,0.5-0.6,0.8-0.9c4.5-5.6,7.1-12.9,7.1-20.2
			V3.8c4.8-15.2,3-28,1.5-31.5v-0.1c0,0,0,0,0-0.1c0,0,0,0,0-0.1c0,0,0,0,0-0.1c0,0,0,0-0.1-0.1c0,0,0,0-0.1-0.1c0,0-0.1,0-0.1-0.1
			c0,0-0.1,0-0.1-0.1c0,0,0,0-0.1,0c0,0,0,0-0.1,0h-0.1c0,0,0,0-0.1,0h-0.1c0,0,0,0-0.1,0h-0.1c0,0,0,0-0.1,0h-0.1c0,0,0,0-0.1,0
			c0,0,0,0-0.1,0h-0.1c0,0,0,0-0.1,0h-0.1c-4.1,0.6-9.1-0.4-14.4-1.5c-8.8-1.8-17.9-3.6-25,1.5h-0.4c-7.2,0-12.3,6-12.3,14.6
			c0,6.7,2.8,19.1,3.2,20.8v3.5c0,7.3,2.6,14.6,7.1,20.2c0.3,0.3,0.5,0.6,0.8,0.9l-5.1,6.7L132.9,41h-0.1c-3.6,1-6.6,3.2-8.8,6.4
			c-2,2.9-3.1,6.5-3.1,9.9V66C121,66,121.1,66,121.3,66z M170.8,60.8l-0.8,0.1l-0.8-0.1c-0.7-0.1-4.2-0.8-9.3-4.3c0.1,0,0.1,0,0.2,0
			h0.3c0.8,0,1.6-0.3,2.2-0.9l1-0.8c3.6,2.1,6.1,2.5,6.2,2.5c0.1,0,0.1,0,0.2,0s0.1,0,0.2,0c0.1,0,2.6-0.4,6.2-2.5l1,0.8
			c0.6,0.6,1.4,0.9,2.2,0.9h0.3c0.1,0,0.1,0,0.2,0C175.1,60,171.5,60.7,170.8,60.8z M173.9,52.7c-2,1-3.4,1.4-3.9,1.5
			c-0.5-0.1-1.9-0.5-3.9-1.5l3.9-3.1L173.9,52.7z M163.6,38.4c2.1,0.7,4.2,1.1,6.4,1.1s4.3-0.4,6.3-1l-6.3,7L163.6,38.4z
			 M194.1,41.6c-4.1,5.9-8,10-11.5,12.9l9.1-13.3L194.1,41.6z M189,39.6l-9.4,13.7c0,0,0,0-0.1,0h-0.1l-0.1-0.1l-7.2-5.7l12.4-13.7
			L189,39.6z M145.3-14.2c0-7.9,4.6-11.5,9.2-11.5c0.2,0,0.3,0,0.5-0.1c0.5,0.1,1,0.1,1.4-0.2c6-4.6,14.6-2.9,22.9-1.2
			c4.3,0.9,8.5,1.7,12.3,1.7c0.6,0,1.2,0,1.8-0.1c1,3.6,2,12.9-0.8,24.4L191-5c-0.1-0.3-0.4-0.6-0.7-0.7c-0.6-0.3-15-8.1-38.6-5.1
			h-0.1c0,0,0,0-0.1,0h-0.1c0,0,0,0-0.1,0c-0.1,0-0.2,0.1-0.3,0.2c-0.2,0.1-0.3,0.2-0.4,0.4c0,0,0,0,0,0.1c0,0,0,0,0,0.1v0.1
			c-0.1,0.3-2.1,4.3-3.5,9.2C146.2-5.2,145.3-10.6,145.3-14.2z M148.6,11.1c-0.1-0.4-0.1-0.7-0.1-1.1c0-0.8,0.1-1.5,0.1-2.3
			c0-0.2,0-0.4,0.1-0.7l-0.1,0c0.4-5.7,3.4-12.7,4.4-15c11.4-1.3,20.4,0,26,1.4c5,1.2,8.2,2.7,9.4,3.2l2.3,5.3
			c0.1,0.1,0.1,0.2,0.2,0.4l0.6,1.4l-0.2,0c0.1,0.6,0.2,1.1,0.2,1.7c0.1,0.4,0.2,0.9,0.2,1.4c0,1.3-0.1,2.5-0.2,3.7
			c0,6.5-2.3,13-6.4,18.1c-4.1,5.1-9.5,7.9-15,7.9s-10.9-2.8-15-7.9C151.1,23.6,148.8,17.4,148.6,11.1z M155.4,33.8l12.4,13.7
			l-7.2,5.7l-0.1,0.1c0,0,0,0-0.1,0h-0.1L151,39.6L155.4,33.8z M148.3,41.2l9.1,13.3c-3.5-2.8-7.4-6.9-11.5-12.9L148.3,41.2z"/>
		
			<linearGradient id="SVGID_9_" gradientUnits="userSpaceOnUse" x1="250.5" y1="71" x2="250.5" y2="-33" gradientTransform="matrix(1 0 0 -1 0 39)">
			<stop  offset="0" style="stop-color:#607DBF"/>
			<stop  offset="0.995" style="stop-color:#535484"/>
		</linearGradient>
		<path class="st8" d="M250.5,48c-1,0-1.9,0.9-1.9,2s0.9,2,1.9,2s1.9-0.9,1.9-2S251.5,48,250.5,48z"/>
		
			<linearGradient id="SVGID_10_" gradientUnits="userSpaceOnUse" x1="258.1" y1="71" x2="258.1" y2="-33" gradientTransform="matrix(1 0 0 -1 0 39)">
			<stop  offset="0" style="stop-color:#607DBF"/>
			<stop  offset="0.995" style="stop-color:#535484"/>
		</linearGradient>
		<path class="st9" d="M258.1,48c-1,0-1.9,0.9-1.9,2s0.9,2,1.9,2s1.9-0.9,1.9-2S259.2,48,258.1,48z"/>
		
			<linearGradient id="SVGID_11_" gradientUnits="userSpaceOnUse" x1="236.95" y1="71" x2="236.95" y2="-33.0037" gradientTransform="matrix(1 0 0 -1 0 39)">
			<stop  offset="0" style="stop-color:#607DBF"/>
			<stop  offset="0.995" style="stop-color:#535484"/>
		</linearGradient>
		<polygon class="st10" points="232.8,8.9 236.9,13 232.8,17.1 234.9,19.2 241.1,13 234.9,6.8 		"/>
		
			<linearGradient id="SVGID_12_" gradientUnits="userSpaceOnUse" x1="228" y1="71" x2="228" y2="-33.0037" gradientTransform="matrix(1 0 0 -1 0 39)">
			<stop  offset="0" style="stop-color:#607DBF"/>
			<stop  offset="0.995" style="stop-color:#535484"/>
		</linearGradient>
		<path class="st11" d="M228-5c-9.9,0-18,8.1-18,18s8.1,18,18,18c9.9,0,18-8.1,18-18S237.9-5,228-5z M228,28c-8.3,0-15-6.7-15-15
			s6.7-15,15-15s15,6.7,15,15S236.3,28,228,28z"/>
		
			<linearGradient id="SVGID_13_" gradientUnits="userSpaceOnUse" x1="242.9" y1="71" x2="242.9" y2="-33" gradientTransform="matrix(1 0 0 -1 0 39)">
			<stop  offset="0" style="stop-color:#607DBF"/>
			<stop  offset="0.995" style="stop-color:#535484"/>
		</linearGradient>
		<path class="st12" d="M242.9,48c-1,0-1.9,0.9-1.9,2s0.9,2,1.9,2s1.9-0.9,1.9-2S243.9,48,242.9,48z"/>
		
			<linearGradient id="SVGID_14_" gradientUnits="userSpaceOnUse" x1="227.95" y1="71" x2="227.95" y2="-33.0037" gradientTransform="matrix(1 0 0 -1 0 39)">
			<stop  offset="0" style="stop-color:#607DBF"/>
			<stop  offset="0.995" style="stop-color:#535484"/>
		</linearGradient>
		<polygon class="st13" points="223.6,21.5 226.4,22.5 232.3,6.2 229.5,5.2 		"/>
		
			<linearGradient id="SVGID_15_" gradientUnits="userSpaceOnUse" x1="219.05" y1="71" x2="219.05" y2="-33.0037" gradientTransform="matrix(1 0 0 -1 0 39)">
			<stop  offset="0" style="stop-color:#607DBF"/>
			<stop  offset="0.995" style="stop-color:#535484"/>
		</linearGradient>
		<polygon class="st14" points="221.1,6.8 214.9,13 221.1,19.2 223.2,17.1 219.1,13 223.2,8.9 		"/>
	</g>
</g>
</svg>
