<?xml version="1.0" encoding="utf-8"?>
<!-- Generator: Adobe Illustrator 19.0.1, SVG Export Plug-In . SVG Version: 6.00 Build 0)  -->
<svg version="1.1" id="Слой_1" xmlns="http://www.w3.org/2000/svg" xmlns:xlink="http://www.w3.org/1999/xlink" x="0px" y="0px"
	 viewBox="0 0 16 12" style="enable-background:new 0 0 16 12;" xml:space="preserve">
<style type="text/css">
	.st0{fill:#DE3B50;}
</style>
<path class="st0" d="M15.8,1.8L15.8,1.8L15.8,1.8L6,11.9C5.8,12,5.7,12,5.5,12c-0.2,0-0.4-0.1-0.4-0.2L0.3,6.8L0.2,6.7
	C0.1,6.5,0,6.4,0,6.2c0-0.1,0.1-0.3,0.2-0.4L1,5c0.2-0.2,0.6-0.2,0.9,0L2,5l3.4,3.6c0.1,0.1,0.3,0.1,0.4,0L14,0.2h0.1
	c0.2-0.2,0.6-0.2,0.9,0L15.8,1C16.1,1.2,16.1,1.6,15.8,1.8z"/>
</svg>
