<?xml version="1.0" encoding="utf-8"?>
<!-- Generator: Adobe Illustrator 19.0.1, SVG Export Plug-In . SVG Version: 6.00 Build 0)  -->
<svg version="1.1" id="Слой_1" xmlns="http://www.w3.org/2000/svg" xmlns:xlink="http://www.w3.org/1999/xlink" x="0px" y="0px"
	 viewBox="0 0 10 20" style="enable-background:new 0 0 10 20;" xml:space="preserve">
<style type="text/css">
	.st0{fill:#959595;}
</style>
<path class="st0" d="M6.5,20H2.3v-9H0V6.9h2.3V4.6c0-2.1,1.3-4.6,5-4.6c1.3,0,2.2,0.1,2.3,0.1L10,0.2L9.9,4L9.4,4c0,0-1,0-2,0
	C6.6,4,6.5,4.2,6.5,5v1.9H10L9.8,11H6.5L6.5,20L6.5,20L6.5,20z M3.2,19.1h2.5v-9H9l0.1-2.3H5.7V5c0-0.9,0.2-1.9,1.8-1.9
	c0.6,0,1.2,0,1.6,0L9.1,1c-0.4,0-1-0.1-1.8-0.1c-3,0-4.1,1.9-4.1,3.7v3.2H0.9v2.3h2.3L3.2,19.1L3.2,19.1L3.2,19.1z"/>
</svg>
