<?xml version="1.0" encoding="utf-8"?>
<!-- Generator: Adobe Illustrator 19.0.1, SVG Export Plug-In . SVG Version: 6.00 Build 0)  -->
<svg version="1.1" id="Слой_1" xmlns="http://www.w3.org/2000/svg" xmlns:xlink="http://www.w3.org/1999/xlink" x="0px" y="0px"
	 viewBox="0 0 58 41" style="enable-background:new 0 0 58 41;" xml:space="preserve">
<style type="text/css">
	.st0{fill:#E70520;}
	.st1{fill:#FFFFFF;}
</style>
<path class="st0" d="M55.7,3.5C53.6,1,49.8,0,42.4,0H15.6C8.1,0,4.1,1.1,2,3.7c-2,2.6-2,6.4-2,11.7v10.1C0,35.8,2.4,41,15.6,41h26.8
	c6.4,0,9.9-0.9,12.2-3.1c2.4-2.3,3.4-6,3.4-12.4V15.5C58,9.9,57.8,6,55.7,3.5z"/>
<path class="st1" d="M36.8,20.9l-12.2,6.4c-0.3,0.1-0.6,0.2-0.9,0.2c-0.3,0-0.7-0.1-1-0.3c-0.6-0.3-0.9-1-0.9-1.6V12.9
	c0-0.7,0.3-1.3,0.9-1.6c0.6-0.3,1.3-0.4,1.8-0.1l12.2,6.3c0.6,0.3,1,1,1,1.7C37.8,19.9,37.4,20.6,36.8,20.9z"/>
</svg>
