<?xml version="1.0" encoding="utf-8"?>
<!-- Generator: Adobe Illustrator 19.0.1, SVG Export Plug-In . SVG Version: 6.00 Build 0)  -->
<svg version="1.1" id="Слой_1" xmlns="http://www.w3.org/2000/svg" xmlns:xlink="http://www.w3.org/1999/xlink" x="0px" y="0px"
	 viewBox="0 0 43 41" style="enable-background:new 0 0 43 41;" xml:space="preserve">
<style type="text/css">
	.st0{fill:#A6A6A6;}
</style>
<g>
	<g>
		<path class="st0" d="M21.5,20.9c3.9,0,7-3.1,7-7c0-3.9-3.1-7-7-7c-3.9,0-7,3.1-7,7C14.5,17.8,17.6,20.9,21.5,20.9z M21.5,9.2
			c2.6,0,4.7,2.1,4.7,4.7c0,2.6-2.1,4.7-4.7,4.7c-2.6,0-4.7-2.1-4.7-4.7C16.8,11.3,18.9,9.2,21.5,9.2z M21.5,17.3
			c1.9,0,3.4-1.5,3.4-3.4c0-1.9-1.5-3.4-3.4-3.4c-1.9,0-3.4,1.5-3.4,3.4C18.1,15.8,19.6,17.3,21.5,17.3z M41.8,12.8h-6.5
			C34.8,5.6,28.8,0,21.5,0C14.2,0,8.2,5.6,7.6,12.8H1.2c-0.6,0-1.2,0.5-1.2,1.2c0,0.6,0.5,1.2,1.2,1.2h1.6
			c0.4,8.4,6.5,15.3,14.6,17.1c-2.7,1.5-4.6,4.4-4.6,7.7c0,0.6,0.5,1.2,1.2,1.2H29c0.6,0,1.2-0.5,1.2-1.2c0-3.3-1.8-6.2-4.6-7.7
			c8-1.8,14.1-8.7,14.6-17.1h1.6c0.6,0,1.2-0.5,1.2-1.2C43,13.3,42.5,12.8,41.8,12.8z M21.5,2.3c6.4,0,11.6,5.2,11.6,11.6
			c0,6.4-5.2,11.6-11.6,11.6c-6.4,0-11.6-5.2-11.6-11.6C9.9,7.5,15.1,2.3,21.5,2.3z M27.8,38.7H15.2c0.5-3,3.2-5.2,6.3-5.2
			C24.6,33.5,27.2,35.7,27.8,38.7z M21.5,30.3c-8.7,0-15.9-6.8-16.4-15.3h2.5c0.6,7.1,6.6,12.8,13.9,12.8c7.3,0,13.3-5.6,13.9-12.8
			h2.5C37.4,23.6,30.2,30.3,21.5,30.3z"/>
	</g>
</g>
</svg>
