<?xml version="1.0" encoding="utf-8"?>
<!-- Generator: Adobe Illustrator 19.0.1, SVG Export Plug-In . SVG Version: 6.00 Build 0)  -->
<svg version="1.1" id="Слой_1" xmlns="http://www.w3.org/2000/svg" xmlns:xlink="http://www.w3.org/1999/xlink" x="0px" y="0px"
	 viewBox="0 0 47 48" style="enable-background:new 0 0 47 48;" xml:space="preserve">
<style type="text/css">
	.st0{fill:#2C63BC;}
</style>
<g>
	<g>
		<path class="st0" d="M35.7,0c-4.8,0-9,3.1-10.6,7.3H7.9V1.6h-2v5.7H0V48h42.8V20.1c2.5-2.1,4.2-5.2,4.2-8.8C47,5.1,41.9,0,35.7,0z
			 M1.9,9.4h22.7c-0.1,0.6-0.2,1.3-0.2,1.9c0,2.5,0.8,4.9,2.2,6.7H1.9V9.4z M40.8,46H1.9V20.1h26.7v0c1.9,1.6,4.4,2.6,7.1,2.6
			c1.8,0,3.6-0.4,5.1-1.2V46z M35.7,20.6c-5.1,0-9.3-4.2-9.3-9.3c0-5.1,4.2-9.3,9.3-9.3c5.2,0,9.4,4.1,9.3,9.3
			C45,16.4,40.8,20.6,35.7,20.6z M36.7,3h-1.9v8.9l5.1,3.4l1.1-1.7l-4.3-2.8V3z M24.1,33.7v-0.1c1.4-0.3,2.2-1.4,2.2-2.8
			c0-2-1.8-3.4-4.4-3.4s-4.4,1.4-4.4,3.4c0,1.4,0.9,2.5,2.2,2.8v0.1C18.1,34,17,35.3,17,36.9c0,2.2,2,3.7,4.9,3.7
			c2.9,0,4.9-1.5,4.9-3.7C26.9,35.3,25.8,34,24.1,33.7z M21.9,29.1c1.3,0,2.2,0.8,2.2,1.9c0,1.1-0.9,1.9-2.2,1.9
			c-1.3,0-2.2-0.8-2.2-1.9C19.8,29.8,20.6,29.1,21.9,29.1z M21.9,38.9c-1.5,0-2.6-0.9-2.6-2.1c0-1.3,1.1-2.1,2.6-2.1
			c1.5,0,2.6,0.9,2.6,2.1C24.5,38,23.5,38.9,21.9,38.9z"/>
	</g>
</g>
</svg>
