<?xml version="1.0" encoding="utf-8"?>
<!-- Generator: Adobe Illustrator 19.0.1, SVG Export Plug-In . SVG Version: 6.00 Build 0)  -->
<svg version="1.1" id="Слой_1" xmlns="http://www.w3.org/2000/svg" xmlns:xlink="http://www.w3.org/1999/xlink" x="0px" y="0px"
	 viewBox="0 0 92 86.9" style="enable-background:new 0 0 92 86.9;" xml:space="preserve">
<style type="text/css">
	.st0{fill:#FFFFFF;}
</style>
<g>
	<g>
		<path class="st0" d="M11.5,31.5c2.5,0,4.5-2,4.5-4.5c0-2.5-2-4.5-4.5-4.5C9,22.5,7,24.5,7,27C7,29.5,9,31.5,11.5,31.5z M11.5,25.5
			c0.8,0,1.5,0.7,1.5,1.5c0,0.8-0.7,1.5-1.5,1.5S10,27.8,10,27C10,26.2,10.7,25.5,11.5,25.5z M92,35.6l-2.1-2.1L68.4,54.9
			c-0.1-0.1-0.1-0.2-0.2-0.3L55.6,42l1.9-1.9l-2.1-2.1L51,42.4c-2.4,2.4-6.1,2.7-8.8,1L53,32.6c0,0,0,0,0,0L81.5,4.1l-2.1-2.1
			L52,29.4L50,27.4C49.8,27.2,49.4,27,49,27h-5.4L41,24.4l-21-21l-2.1,2.1l13.9,13.9L12.7,38.7L2,28.9l-2,2.2l17.5,16.1V51
			c0,0.4,0.2,0.8,0.4,1.1l6.5,6.5c-0.6,0.8-0.9,1.8-0.9,2.8c0,2.5,2,4.6,4.5,4.7c0.1,2.4,2.1,4.4,4.5,4.5c0.1,2.4,2.1,4.4,4.5,4.5
			c0.1,2.5,2.1,4.5,4.7,4.5c0.6,0,1.3-0.1,1.8-0.4l0.1,0.1c1.1,1.1,2.6,1.8,4.2,1.8c1.6,0,3.1-0.6,4.2-1.8l16.1-16.1
			c1.1-1.1,1.8-2.6,1.8-4.2c0-0.4,0-0.8-0.1-1.1L92,35.6z M14.9,40.7L34,21.6l3.9,3.9L19,44.4L14.9,40.7z M29.4,62.5
			C29,62.8,28.6,63,28.2,63c-0.9,0-1.7-0.8-1.7-1.7c0-0.4,0.2-0.9,0.5-1.2l7.1-7.1c0.3-0.3,0.7-0.5,1.2-0.5c0.9,0,1.7,0.8,1.7,1.7
			c0,0.4-0.2,0.9-0.5,1.2L29.4,62.5z M33.9,67c-0.3,0.3-0.7,0.5-1.2,0.5c-0.9,0-1.7-0.8-1.7-1.7c0-0.4,0.2-0.9,0.5-1.2l7.1-7.1
			c0.3-0.3,0.7-0.5,1.2-0.5c0.9,0,1.7,0.8,1.7,1.7c0,0.5-0.2,0.9-0.5,1.2L33.9,67z M38.4,71.5C38,71.8,37.6,72,37.2,72
			c-0.9,0-1.7-0.8-1.7-1.7c0-0.5,0.2-0.9,0.5-1.2l7.1-7.1c0.3-0.3,0.7-0.5,1.2-0.5c0.9,0,1.7,0.8,1.7,1.7c0,0.5-0.2,0.9-0.5,1.2
			L38.4,71.5z M42.9,76c-0.3,0.3-0.7,0.5-1.2,0.5c-0.9,0-1.7-0.8-1.7-1.7c0-0.5,0.2-0.9,0.5-1.2l7.1-7.1c0.3-0.3,0.7-0.5,1.2-0.5
			c0.9,0,1.7,0.8,1.7,1.7c0,0.4-0.2,0.9-0.5,1.2L42.9,76z M66.1,61L50,77.1c-1.1,1.1-2.9,1.1-4.1,0.1l6.2-6.2
			c0.9-0.9,1.4-2.1,1.4-3.3c0-2.5-2-4.6-4.5-4.7c-0.1-2.4-2.1-4.4-4.5-4.5c-0.1-2.4-2.1-4.4-4.5-4.5c-0.1-2.5-2.1-4.5-4.7-4.5
			c-1.3,0-2.4,0.5-3.3,1.4l-5.5,5.5l-6-6v-3.3L40,27.6l1.9,1.9c0.3,0.3,0.7,0.4,1.1,0.4h5.4l1.5,1.5l-11,10.9
			c-0.3,0.3-0.4,0.7-0.4,1.1c0,0.4,0.2,0.8,0.4,1.1c3.9,3.9,10.3,3.9,14.2-0.1l0.4-0.4l12.6,12.6c0.6,0.6,0.9,1.3,0.9,2.1
			C67,59.7,66.6,60.4,66.1,61z M10.5,62.9l-2.6,1.4c0.5,0.9,1,1.8,1.6,2.7l2.5-1.6C11.4,64.6,10.9,63.7,10.5,62.9z M30.8,84.3
			c1,0.4,2,0.7,2.9,1l0.8-2.9c-0.9-0.3-1.8-0.6-2.7-0.9L30.8,84.3z M19.9,78.3c0.8,0.6,1.7,1.2,2.5,1.8l1.6-2.5
			c-0.8-0.5-1.6-1.1-2.4-1.7L19.9,78.3z M25.1,81.7c0.9,0.5,1.8,1,2.8,1.4l1.2-2.7c-0.9-0.4-1.7-0.8-2.6-1.3L25.1,81.7z M15.2,74.3
			c0.7,0.7,1.5,1.4,2.3,2.1l2-2.3c-0.7-0.6-1.4-1.3-2.1-2L15.2,74.3z M13.6,67.8l-2.4,1.8c0.6,0.8,1.3,1.6,1.9,2.4l2.3-2
			C14.8,69.3,14.2,68.5,13.6,67.8z M5.6,46.4l-3,0.2c0.1,1,0.2,2.1,0.3,3.1l3-0.4C5.8,48.3,5.7,47.4,5.6,46.4z M5.6,40.6l-3-0.2
			c-0.1,1-0.1,2.1-0.1,3.1v0l3,0C5.5,42.5,5.5,41.6,5.6,40.6z M6.4,52.1l-2.9,0.6c0.2,1,0.5,2,0.8,3l2.9-0.8
			C6.9,54,6.6,53.1,6.4,52.1z M8.1,57.7l-2.8,1.1c0.4,1,0.8,1.9,1.2,2.9l2.7-1.2C8.8,59.5,8.4,58.6,8.1,57.7z M81.5,62.9l2.6,1.4
			c0.5-0.9,1-1.8,1.4-2.8l-2.7-1.2C82.4,61.2,82,62.1,81.5,62.9z M78.4,67.8l2.4,1.8c0.6-0.8,1.2-1.7,1.8-2.6L80,65.4
			C79.5,66.2,78.9,67,78.4,67.8z M74.6,72.1l2.1,2.1c0.7-0.7,1.4-1.5,2.1-2.3l-2.3-2C75.9,70.8,75.3,71.5,74.6,72.1z M83.9,57.7
			l2.8,1c0.4-1,0.7-2,1-2.9l-2.9-0.8C84.5,55.8,84.2,56.8,83.9,57.7z M85.5,52.1l2.9,0.6c0.2-1,0.4-2,0.5-3.1l-3-0.4
			C85.9,50.2,85.7,51.2,85.5,52.1z M70.2,75.9l1.8,2.4c0.8-0.6,1.6-1.3,2.4-1.9l-2-2.3C71.7,74.7,71,75.4,70.2,75.9z M36.7,86
			c1,0.2,2,0.4,3.1,0.5l0.4-3c-1-0.1-1.9-0.3-2.8-0.5L36.7,86z M86.3,46.4l3,0.2c0.1-1,0.1-2.1,0.1-3.1h-3
			C86.4,44.5,86.4,45.4,86.3,46.4z M48.9,83.9l0.2,3c1-0.1,2.1-0.2,3.1-0.3l-0.4-3C50.8,83.7,49.8,83.8,48.9,83.9z M43.1,83.9
			l-0.2,3c1,0.1,2.1,0.1,3.1,0.1l0-3C45,84,44,84,43.1,83.9z M65.4,79.1l1.4,2.6c0.9-0.5,1.8-1,2.7-1.6l-1.6-2.5
			C67,78.1,66.2,78.6,65.4,79.1z M60.1,81.5l1,2.8c1-0.4,1.9-0.8,2.9-1.2l-1.2-2.7C61.9,80.7,61,81.1,60.1,81.5z M54.6,83.1l0.6,2.9
			c1-0.2,2-0.5,3-0.8l-0.8-2.9C56.5,82.6,55.5,82.9,54.6,83.1z M66.2,5.3c-0.9-0.5-1.8-1-2.7-1.5l-1.3,2.7c0.8,0.4,1.7,0.9,2.5,1.4
			L66.2,5.3z M46,3c0.8,0,1.6,0,2.3,0.1l0.1-3C47.6,0,46.8,0,46,0l-0.6,0l0,3L46,3z M60.6,2.5c-1-0.4-2-0.7-3-1l-0.8,2.9
			c0.9,0.3,1.8,0.6,2.7,0.9L60.6,2.5z M54.6,0.8c-1-0.2-2-0.4-3.1-0.5l-0.3,3c1,0.1,1.9,0.3,2.8,0.4L54.6,0.8z M31.3,5.7L30.2,3
			c-1,0.4-1.9,0.8-2.8,1.2l1.3,2.7C29.5,6.5,30.4,6.1,31.3,5.7z M36.8,4l-0.7-2.9c-1,0.2-2,0.5-3,0.8L34,4.8
			C34.9,4.5,35.9,4.3,36.8,4z M42.5,3.1l-0.3-3c-1,0.1-2.1,0.2-3.1,0.4l0.5,3C40.6,3.3,41.5,3.2,42.5,3.1z"/>
	</g>
</g>
</svg>
