<?xml version="1.0" encoding="utf-8"?>
<!-- Generator: Adobe Illustrator 19.0.1, SVG Export Plug-In . SVG Version: 6.00 Build 0)  -->
<svg version="1.1" id="Слой_1" xmlns="http://www.w3.org/2000/svg" xmlns:xlink="http://www.w3.org/1999/xlink" x="0px" y="0px"
	 viewBox="0 0 41 45" style="enable-background:new 0 0 41 45;" xml:space="preserve">
<style type="text/css">
	.st0{fill:#A6A6A6;}
</style>
<g>
	<g>
		<path class="st0" d="M33.6,34.8c-1.2-0.5-2.6-1.1-4.1-1.8l-0.1,0L29.3,33c-0.5,0.5-1.1,1-1.7,1.4l-0.2,0.1l0.2,0.1
			c2,0.9,3.7,1.6,5.1,2.3c5.3,2.3,6,2.8,6,4c0,0.9-0.9,1.9-1.9,1.9H4.2c-1.1,0-1.9-1-1.9-1.9c0-1.3,0.7-1.7,6-4
			c1.4-0.6,3.1-1.4,5.1-2.3l0.2-0.1l-0.2-0.1c-0.6-0.4-1.2-0.9-1.7-1.4l-0.1-0.1l-0.1,0c-1.6,0.7-2.9,1.3-4.1,1.8
			C2,37.1,0,37.9,0,40.8C0,43,2,45,4.2,45h32.6c2.2,0,4.2-2,4.2-4.1C41,37.9,39,37.1,33.6,34.8z M4.6,24.7h2.3
			c0.7,0,1.3-0.3,1.7-0.8c0.1,0.1,0.1,0.2,0.2,0.3c1.6,6.2,6.3,10.6,11.8,10.6c5.7,0,10.4-4.7,11.9-11.1c0.4,0.5,1,0.9,1.8,0.9h2.3
			c1.3,0,2.3-1,2.3-2.3v-6.8c0-1.2-1-2.3-2.3-2.3h-2.3C34.2,6,28,0,20.5,0S6.8,6,6.8,13.5H4.6c-1.3,0-2.3,1-2.3,2.3v6.8
			C2.3,23.7,3.3,24.7,4.6,24.7z M34.2,15.7h2.3v6.8h-2.3V15.7z M20.5,32.7c-3.7,0-6.9-2.6-8.7-6.4c2.7,1.2,6.2,1.8,8.7,1.8
			c0.6,0,1.1-0.5,1.1-1.1c0-0.6-0.5-1.1-1.1-1.1c-4,0-8.3-1.6-9.7-2.7c-0.2-1.1-0.4-2.3-0.4-3.5c0-7.2,4.5-13,10.1-13
			c5.6,0,10.1,5.8,10.1,13C30.6,26.8,26.1,32.7,20.5,32.7z M20.5,2.2c6.3,0,11.4,5,11.4,11.3c0,0.1,0,0.2,0,0.3
			C30,8.3,25.6,4.5,20.5,4.5S11,8.3,9.1,13.7c0-0.1,0-0.2,0-0.3C9.1,7.3,14.2,2.2,20.5,2.2z M4.6,15.7h2.3v6.8H4.6V15.7z"/>
	</g>
</g>
</svg>
