<?xml version="1.0" encoding="utf-8"?>
<!-- Generator: Adobe Illustrator 19.0.1, SVG Export Plug-In . SVG Version: 6.00 Build 0)  -->
<svg version="1.1" id="Слой_1" xmlns="http://www.w3.org/2000/svg" xmlns:xlink="http://www.w3.org/1999/xlink" x="0px" y="0px"
	 viewBox="0 0 47 48" style="enable-background:new 0 0 47 48;" xml:space="preserve">
<style type="text/css">
	.st0{fill:#2C63BC;}
</style>
<g>
	<g>
		<path class="st0" d="M9.4,15.1c3.9,0,7-3.2,7-7.1c0-3.9-3.2-7-7-7c-3.9,0-7,3.2-7,7.1C2.4,11.9,5.5,15.1,9.4,15.1z M9.4,3.3
			c2.6,0,4.7,2.1,4.7,4.7c0,2.6-2.1,4.7-4.7,4.7c-2.6,0-4.7-2.1-4.7-4.7C4.7,5.5,6.8,3.3,9.4,3.3z M44.6,12.7H21.2
			c-1.3,0-2.3,1.1-2.3,2.3v1.8l2.3,1.2v-3h23.5v18.8H21.2v-2.8l-2.3-0.6v3.4c0,1.3,1.1,2.4,2.3,2.4h9.7l-6,10
			c-0.3,0.6-0.2,1.3,0.4,1.6c0.6,0.3,1.3,0.2,1.6-0.4l4.9-8.1v7.5c0,0.6,0.5,1.2,1.2,1.2s1.2-0.5,1.2-1.2v-7.5l4.9,8.1
			c0.2,0.4,0.6,0.6,1,0.6c0.2,0,0.4-0.1,0.6-0.2c0.6-0.3,0.7-1.1,0.4-1.6l-6-10h9.7c1.3,0,2.3-1.1,2.3-2.4V15.1
			C47,13.8,45.9,12.7,44.6,12.7z M23.5,29.2c0.5,0,1-0.2,1.4-0.5c0.6-0.4,0.9-1.1,0.9-1.9V25l14.4-4.1c0.6-0.2,1-0.8,0.8-1.5
			c-0.2-0.6-0.8-1-1.5-0.8l-14.5,4.1c-0.2-0.2-0.4-0.3-0.6-0.4l-9.4-4.7c-0.3-0.2-0.7-0.2-1.1-0.2H4.7c-1.1,0-2.1,0.8-2.3,1.9
			L0,32.3c-0.1,0.7,0.1,1.4,0.5,1.9c0.4,0.5,1.1,0.8,1.8,0.8h1.5l0.9,10.8C4.8,47.1,5.8,48,7.1,48h4.7c1.2,0,2.2-0.9,2.3-2.1
			l2.1-18.5l6.8,1.7C23.1,29.2,23.3,29.2,23.5,29.2z M14.1,24.5l-2.3,21.1H7.1L6,32.7H2.4l2.4-12.9h3.5v7.1c0,0.7,0.5,1.2,1.2,1.2
			c0.6,0,1.2-0.5,1.2-1.2v-7.1h3.5l9.4,4.7v2.3L14.1,24.5z"/>
	</g>
</g>
</svg>
