<?xml version="1.0" encoding="utf-8"?>
<!-- Generator: Adobe Illustrator 19.0.1, SVG Export Plug-In . SVG Version: 6.00 Build 0)  -->
<svg version="1.1" id="Слой_1" xmlns="http://www.w3.org/2000/svg" xmlns:xlink="http://www.w3.org/1999/xlink" x="0px" y="0px"
	 viewBox="0 0 45 56.2" style="enable-background:new 0 0 45 56.2;" xml:space="preserve">
<style type="text/css">
	.st0{fill:#A6A6A6;}
</style>
<g>
	<g>
		<path class="st0" d="M24.6,27.1h-2.4v15.6h2.4V27.1z M2,15L17.6,3l15.6,12c0.2,0.2,0.5,0.3,0.7,0.3c0.4,0,0.7-0.2,1-0.5
			c0.4-0.5,0.3-1.3-0.2-1.7L18.3,0.5c-0.4-0.3-1-0.3-1.5,0L0.5,13c-0.5,0.4-0.6,1.2-0.2,1.7C0.7,15.3,1.4,15.4,2,15z M35.1,21.2v-2
			c0-0.4-0.2-0.8-0.5-1L18.3,5.8c-0.4-0.3-1-0.3-1.5,0L0.5,18.3c-0.3,0.2-0.5,0.6-0.5,1v21.1c0,0.7,0.5,1.2,1.2,1.2H16v9.6
			c0,2.8,2.3,5.1,5.1,5.1H45v-35H35.1z M16,26.3v12.8H2.4V19.9L17.6,8.3l15.1,11.6v1.3H21.1C18.3,21.2,16,23.5,16,26.3z M42.6,53.9
			H21.1c-1.5,0-2.7-1.2-2.7-2.7c0-1.5,1.2-2.7,2.7-2.7h21.6V53.9z M42.6,46.1H21.1c-1,0-2,0.3-2.7,0.8V26.3c0-1.5,1.2-2.7,2.7-2.7
			h21.6V46.1z M38.3,29h-9.4v2.3h9.4V29z M38.3,33.7h-9.4V36h9.4V33.7z"/>
	</g>
</g>
</svg>
