<?xml version="1.0" encoding="utf-8"?>
<!-- Generator: Adobe Illustrator 19.0.1, SVG Export Plug-In . SVG Version: 6.00 Build 0)  -->
<svg version="1.1" id="Слой_1" xmlns="http://www.w3.org/2000/svg" xmlns:xlink="http://www.w3.org/1999/xlink" x="0px" y="0px"
	 viewBox="0 0 32 32" style="enable-background:new 0 0 32 32;" xml:space="preserve">
<style type="text/css">
	.st0{fill-rule:evenodd;clip-rule:evenodd;fill:#7C8189;}
	.st1{fill:#FFFFFF;}
</style>
<path class="st0" d="M16,0c8.8,0,16,7.2,16,16c0,8.8-7.2,16-16,16C7.2,32,0,24.8,0,16C0,7.2,7.2,0,16,0z"/>
<path class="st1" d="M21.9,18.2c0.6,0.6,1.3,1.2,1.9,1.9c0.2,0.3,0.5,0.6,0.7,1c0.3,0.5,0,1.1-0.4,1.1l-2.8,0
	c-0.7,0.1-1.3-0.2-1.8-0.7c-0.4-0.4-0.7-0.8-1.1-1.2c-0.2-0.2-0.3-0.3-0.5-0.5c-0.4-0.3-0.7-0.2-0.9,0.2c-0.2,0.4-0.3,0.9-0.3,1.3
	c0,0.7-0.2,0.8-0.9,0.9c-1.4,0.1-2.7-0.1-4-0.9c-1.1-0.6-1.9-1.5-2.7-2.6c-1.4-2-2.5-4.2-3.5-6.4c-0.2-0.5-0.1-0.8,0.5-0.8
	c0.9,0,1.8,0,2.7,0c0.4,0,0.6,0.2,0.8,0.6c0.5,1.2,1.1,2.4,1.8,3.5c0.2,0.3,0.4,0.6,0.7,0.8c0.3,0.2,0.6,0.1,0.7-0.2
	c0.1-0.2,0.1-0.5,0.2-0.7c0.1-0.9,0.1-1.7,0-2.6c-0.1-0.5-0.4-0.9-0.9-1c-0.3-0.1-0.2-0.2-0.1-0.3c0.2-0.3,0.4-0.4,0.8-0.4h3.1
	c0.5,0.1,0.6,0.3,0.7,0.8l0,3.6c0,0.2,0.1,0.8,0.4,0.9c0.3,0.1,0.5-0.1,0.6-0.3c0.7-0.8,1.3-1.8,1.8-2.8c0.2-0.4,0.4-0.9,0.6-1.3
	c0.1-0.3,0.3-0.5,0.7-0.5l3,0c0.1,0,0.2,0,0.3,0c0.5,0.1,0.6,0.3,0.5,0.8c-0.2,0.8-0.7,1.5-1.2,2.1c-0.5,0.7-1,1.4-1.5,2.1
	C21.2,17.3,21.3,17.6,21.9,18.2L21.9,18.2z"/>
</svg>
