<?xml version="1.0" encoding="utf-8"?>
<!-- Generator: Adobe Illustrator 19.0.1, SVG Export Plug-In . SVG Version: 6.00 Build 0)  -->
<svg version="1.1" id="Слой_1" xmlns="http://www.w3.org/2000/svg" xmlns:xlink="http://www.w3.org/1999/xlink" x="0px" y="0px"
	 viewBox="0 0 32 32" style="enable-background:new 0 0 32 32;" xml:space="preserve">
<style type="text/css">
	.st0{fill-rule:evenodd;clip-rule:evenodd;fill:#7C8189;}
	.st1{fill:#FFFFFF;}
</style>
<path class="st0" d="M16,0c8.8,0,16,7.2,16,16c0,8.8-7.2,16-16,16C7.2,32,0,24.8,0,16C0,7.2,7.2,0,16,0z"/>
<path class="st1" d="M25,12.3c0-1.5-1.2-2.8-2.7-2.8H9.7C8.2,9.5,7,10.7,7,12.3v7.4c0,1.5,1.2,2.8,2.7,2.8h12.6
	c1.5,0,2.7-1.2,2.7-2.8V12.3z M14.2,19.1v-7l5.1,3.5L14.2,19.1z"/>
</svg>
